<?xml version="1.0" encoding="utf-8"?>
<!-- Generator: Adobe Illustrator 18.0.0, SVG Export Plug-In . SVG Version: 6.00 Build 0)  -->
<!DOCTYPE svg PUBLIC "-//W3C//DTD SVG 1.1//EN" "http://www.w3.org/Graphics/SVG/1.1/DTD/svg11.dtd">
<svg version="1.1" id="Layer_1" xmlns="http://www.w3.org/2000/svg" xmlns:xlink="http://www.w3.org/1999/xlink" x="0px" y="0px"
	 width="501px" height="121.4px" viewBox="0 0 501 121.4" enable-background="new 0 0 501 121.4" xml:space="preserve">
<g>
	<g>
		<path fill="#ECF0F1" d="M497,121.4H293c-2.2,0-4-1.8-4-4V4c0-2.2,1.8-4,4-4h204c2.2,0,4,1.8,4,4v113.4
			C501,119.6,499.2,121.4,497,121.4z M293,2c-1.1,0-2,0.9-2,2v113.4c0,1.1,0.9,2,2,2h204c1.1,0,2-0.9,2-2V4c0-1.1-0.9-2-2-2H293z"/>
	</g>
	<g>
		
			<linearGradient id="SVGID_1_" gradientUnits="userSpaceOnUse" x1="4739.7319" y1="3102.8335" x2="5012.7202" y2="3102.8335" gradientTransform="matrix(-1 0 0 -1 5029.7197 3150.1667)">
			<stop  offset="0" style="stop-color:#FFFFFF"/>
			<stop  offset="1" style="stop-color:#7F8C8D"/>
		</linearGradient>
		<rect x="17" y="46.3" fill="url(#SVGID_1_)" width="273" height="2"/>
	</g>
	<g>
		<path fill="#7F8C8D" d="M9,56.2c-5,0-9-4-9-9s4-9,9-9s9,4,9,9S14,56.2,9,56.2z M9,40.2c-3.9,0-7,3.1-7,7s3.1,7,7,7s7-3.1,7-7
			S12.9,40.2,9,40.2z"/>
	</g>
</g>
</svg>
