<?xml version="1.0" encoding="utf-8"?>
<!-- Generator: Adobe Illustrator 18.0.0, SVG Export Plug-In . SVG Version: 6.00 Build 0)  -->
<!DOCTYPE svg PUBLIC "-//W3C//DTD SVG 1.1//EN" "http://www.w3.org/Graphics/SVG/1.1/DTD/svg11.dtd">
<svg version="1.1" id="גרפיקה" xmlns="http://www.w3.org/2000/svg" xmlns:xlink="http://www.w3.org/1999/xlink" x="0px"
	 y="0px" width="271px" height="61px" viewBox="0 0 271 61" enable-background="new 0 0 271 61" xml:space="preserve">
<g>
	<g>
		<path fill="#FFFFFF" d="M170.5,61C153.7,61,140,47.3,140,30.5S153.7,0,170.5,0S201,13.7,201,30.5S187.3,61,170.5,61z M170.5,1
			C154.2,1,141,14.2,141,30.5S154.2,60,170.5,60S200,46.8,200,30.5S186.8,1,170.5,1z"/>
	</g>
	<g>
		<path fill="#FFFFFF" d="M159.8,22.6c0.2,14.9,10.5,21.4,12.2,22.1c4,1.8,7.5,0.1,9.3-3.6c0,0-3.3-4.1-5.2-5.2l-4.4,2.2
			c0,0-1.8-0.5-4.3-5.7c-2.6-5.2-1.9-6.9-1.9-6.9l3.8-1.9c0.5-3,0.4-8.1-3.2-8.2C162.5,15.4,159.7,19.5,159.8,22.6z"/>
	</g>
</g>
<g>
	<g>
		<path fill="#FFFFFF" d="M30.5,61C13.7,61,0,47.3,0,30.5S13.7,0,30.5,0S61,13.7,61,30.5S47.3,61,30.5,61z M30.5,1
			C14.2,1,1,14.2,1,30.5S14.2,60,30.5,60S60,46.8,60,30.5S46.8,1,30.5,1z"/>
	</g>
	<g>
		<path fill="#FFFFFF" d="M18.7,38.8l-2.9,2.9c-0.5,0.5-1.4,0.5-1.9,0c-0.5-0.5-0.5-1.4,0-1.9l2.9-2.9c0.5-0.5,1.4-0.5,1.9,0
			C19.2,37.4,19.2,38.2,18.7,38.8z M18.7,20.7c-0.5,0.5-1.4,0.5-1.9,0l-2.9-2.9c-0.5-0.5-0.5-1.4,0-1.9c0.5-0.5,1.4-0.5,1.9,0
			l2.9,2.9C19.2,19.3,19.2,20.2,18.7,20.7z M33.7,45.5h-6.4c-0.5,0-0.8-0.8-1-1.5h8.4C34.6,44.7,34.2,45.5,33.7,45.5z M39.3,29
			c-0.4,1.6-1.4,2.9-2.4,4.2c-1.1,1.4-2.2,6.4-2.2,8.2c-2.8,0-5.6,0-8.4,0c-0.1-1.7-1-6.5-2-7.8c-0.7-0.9-1.5-1.8-2-2.8
			c-1.2-2.1-1.2-4.6-0.4-6.8c1-2.9,3.5-5.1,6.5-5.8c1.7-0.4,3.4-0.3,5.1,0.3c1.8,0.6,3.3,1.8,4.4,3.3C39.4,23.8,40,26.5,39.3,29z
			 M47.1,41.6c-0.5,0.5-1.4,0.5-1.9,0l-2.9-2.9c-0.5-0.5-0.5-1.4,0-1.9c0.5-0.5,1.4-0.5,1.9,0l2.9,2.9
			C47.6,40.2,47.6,41.1,47.1,41.6z M47.1,17.8l-2.9,2.9c-0.5,0.5-1.4,0.5-1.9,0c-0.5-0.5-0.5-1.4,0-1.9l2.9-2.9
			c0.5-0.5,1.4-0.5,1.9,0C47.6,16.4,47.6,17.3,47.1,17.8z M30.7,27.1c-1.1-2.2-0.3-4.7,1-6.6c-1,0.7-1.7,1.8-2.4,2.9
			c-0.8,1.4-1.1,3.2-0.6,4.8c0.5,1.4,1.7,2.4,2.4,3.7c0.5,1,0.8,2.1,0.9,3.2c0.7-1.5,1-3.2,0.6-4.7C32.2,29.1,31.3,28.1,30.7,27.1z"
			/>
	</g>
</g>
<g>
	<g>
		<path fill="#FFFFFF" d="M100.5,61C83.7,61,70,47.3,70,30.5S83.7,0,100.5,0S131,13.7,131,30.5S117.3,61,100.5,61z M100.5,1
			C84.2,1,71,14.2,71,30.5S84.2,60,100.5,60S130,46.8,130,30.5S116.8,1,100.5,1z"/>
	</g>
	<g>
		<g>
			<path fill="#FFFFFF" d="M114,14H87c-2.2,0-4.5,0.8-4.5,3v20c0,2.2,2.3,5,4.5,5h8l-2,7h14l-2-7h9c2.2,0,3.5-2.8,3.5-5V17
				C117.5,14.8,116.2,14,114,14z M115.5,36c0,1.1-0.9,2-2,2h-27c-1.1,0-2-0.9-2-2V18c0-1.1,0.9-2,2-2h27c1.1,0,2,0.9,2,2V36z"/>
		</g>
		<g>
			<polygon fill="#FFFFFF" points="113.5,24 111.5,24 111.5,25 107.5,25 107.5,24 105.5,24 105.5,25 101.5,25 101.5,24 99.5,24 
				99.5,25 95.5,25 95.5,24 93.5,24 93.5,25 89.5,25 89.5,24 87.5,24 87.5,24 87.5,26 90,26 94,26 96,26 100,26 102,26 106,26 
				107.9,26 112,26 113.9,26 113.5,26 113.5,24 113.5,24 			"/>
		</g>
		<g>
			<rect x="89.5" y="19" fill="#FFFFFF" width="4" height="4"/>
		</g>
		<g>
			<rect x="95.5" y="20" fill="#FFFFFF" width="4" height="3"/>
		</g>
		<g>
			<rect x="107.5" y="20" fill="#FFFFFF" width="4" height="3"/>
		</g>
		<g>
			<rect x="101.5" y="18" fill="#FFFFFF" width="4" height="5"/>
		</g>
		<g>
			<path fill="#FFFFFF" d="M111.5,26.5c-1.1,0-2,0.9-2,2c0,0.2,0,0.5,0.1,0.7l-3.8,2.8c-0.4-0.3-0.8-0.5-1.3-0.5
				c-0.6,0-1.1,0.2-1.4,0.6L98.4,29c0-0.2,0.1-0.3,0.1-0.5c0-1.1-0.9-2-2-2s-2,0.9-2,2c0,0.2,0,0.4,0.1,0.5l-2.9,1.9
				c-0.3-0.3-0.8-0.4-1.2-0.4c-1.1,0-2,0.9-2,2c0,1.1,0.9,2,2,2s2-0.9,2-2c0-0.3-0.1-0.5-0.2-0.8l2.7-1.8c0.4,0.4,0.9,0.6,1.4,0.6
				s1.1-0.2,1.4-0.6l4.6,3.1c0,0.2-0.1,0.3-0.1,0.5c0,1.1,0.9,2,2,2s2-0.9,2-2c0-0.2,0-0.5-0.1-0.7l3.8-2.8c0.4,0.3,0.8,0.5,1.3,0.5
				c1.1,0,2-0.9,2-2C113.5,27.4,112.6,26.5,111.5,26.5z"/>
		</g>
	</g>
</g>
<g>
	<g>
		<path fill="#FFFFFF" d="M240.5,61C223.7,61,210,47.3,210,30.5S223.7,0,240.5,0S271,13.7,271,30.5S257.3,61,240.5,61z M240.5,1
			C224.2,1,211,14.2,211,30.5S224.2,60,240.5,60S270,46.8,270,30.5S256.8,1,240.5,1z"/>
	</g>
	<g>
		<path fill="#FFFFFF" d="M244.9,20.1c0.6,2.3,2.5,4.4,5,4.4c2.5,0,4.5-2.1,5.1-4.4c0.2,0,0.4-0.2,0.4-0.4l0.1-0.9
			c0-0.2-0.1-0.4-0.3-0.5c0-0.1,0-0.1,0-0.2c0-2.1-0.4-3.7-2-4.4c-1.7-0.7-3.2-0.7-4.4-0.3c-0.1,0-0.3,0.3-0.3,0.3
			c-0.1,0-0.5-0.1-0.6,0c-2.4,0.3-3.3,2.7-3.1,4.5c0,0.1,0,0.1,0,0.2c-0.2,0.1-0.4,0.3-0.4,0.5l0.1,0.9
			C244.5,19.9,244.7,20,244.9,20.1z M245.4,18.3c1.1-0.4,3.1-1.2,3.4-1.6c0.9,1,4.2,1.5,5.7,1.7c0,0.1,0,0.2,0,0.3
			c0,2.4-2,5.2-4.6,5.2c-2.6,0-4.5-2.7-4.5-5.2C245.4,18.5,245.4,18.4,245.4,18.3z M253.5,23.7l-2.1,2.8l-1.3-1.2l0.3,0v0l-0.3,0
			l-1.7,1.2l-2.1-2.8c-0.1,0-0.2-0.1-0.4,0c-0.5,0.1-0.9,0.3-1.2,0.5c2.3,1.4,3.8,3.9,3.8,6.8c0,0.7,0.2,1.4-0.1,2.1l1.9,0v0l7.8,0
			c0,0-0.4-8.8-4.3-9.3C253.9,23.6,253.6,23.7,253.5,23.7z M231.5,33l1.6,0c-0.2-0.7-0.4-1.4-0.4-2.1c0-2.8,1.5-5.3,3.8-6.7
			c-0.4-0.3-0.8-0.5-1.3-0.5c-0.1,0-0.3,0-0.3,0l-2.1,2.8l-1.4-1.2l0.2,0v0l-0.2,0l-1.6,1.2l-2.1-2.8c-0.1,0-0.2-0.1-0.4,0
			c-3.9,0.5-4,9.3-4,9.3L231.5,33L231.5,33z M226.1,20.1c0.6,2.3,2.5,4.4,5,4.4c2.5,0,4.5-2.1,5.1-4.4c0.2,0,0.4-0.2,0.4-0.4
			l0.1-0.9c0-0.2-0.1-0.4-0.3-0.5c0-0.1,0-0.1,0-0.2c0-2.1-0.4-3.7-2-4.4c-1.7-0.7-3.2-0.7-4.4-0.3c-0.1,0-0.3,0.3-0.3,0.3
			c-0.1,0-0.5-0.1-0.6,0c-2.4,0.3-3.3,2.7-3.1,4.5c0,0.1,0,0.1,0,0.2c-0.2,0.1-0.4,0.3-0.4,0.5l0.1,0.9
			C225.7,19.9,225.9,20,226.1,20.1z M226.7,18.3c1.1-0.4,3.1-1.2,3.4-1.6c0.9,1,4.2,1.5,5.7,1.7c0,0.1,0,0.2,0,0.3
			c0,2.4-2,5.2-4.6,5.2c-2.6,0-4.5-2.7-4.5-5.2C226.6,18.5,226.6,18.4,226.7,18.3z M240.5,37.9c3.9,0,7-3.1,7-6.9
			c0-3.8-3.2-6.9-7-6.9c-3.9,0-7,3.1-7,6.9C233.5,34.8,236.6,37.9,240.5,37.9z M243.6,26.5c0.2,1.6,1.4,3.8,2.7,4.9
			c-0.3,2.9-2.7,5.2-5.7,5.2c-2.3,0-4.3-1.3-5.2-3.3c1,1.2,2.7,2.1,4.6,2.2c0.1,0,0.2,0,0.3,0c0,0,0.1,0,0.1,0h0
			c0.6,0,1.1-0.3,1.1-0.6c0-0.3-0.6-0.6-1.2-0.6c-0.7,0-1.2,0.3-1.2,0.6c0,0,0,0.1,0,0.1c-2.3-0.5-4.1-2.2-4.2-4.2
			c0-0.7,0.2-1.4,0.4-2.1C236.8,28.7,243.3,27.4,243.6,26.5z M245.8,36.7c-1.4,1.2-3.2,2-5.3,2v0c0,0,0,0,0,0c0,0,0,0,0,0v0
			c-2,0-3.9-0.8-5.3-2c-2.5,0.5-4.5,2.7-4.5,5.3v6h9.7h0.1h9.7v-6C250.3,39.3,248.4,37.1,245.8,36.7z"/>
	</g>
</g>
</svg>
