<?xml version="1.0" encoding="utf-8"?>
<!-- Generator: Adobe Illustrator 18.0.0, SVG Export Plug-In . SVG Version: 6.00 Build 0)  -->
<!DOCTYPE svg PUBLIC "-//W3C//DTD SVG 1.1//EN" "http://www.w3.org/Graphics/SVG/1.1/DTD/svg11.dtd">
<svg version="1.1" id="Layer_1" xmlns="http://www.w3.org/2000/svg" xmlns:xlink="http://www.w3.org/1999/xlink" x="0px" y="0px"
	 width="129px" height="196.2px" viewBox="0 0 129 196.2" enable-background="new 0 0 129 196.2" xml:space="preserve">
<g>
	<polygon fill="#FFFFFF" points="0,51.6 0,196.2 129,196.2 129,51.6 64.5,0 	"/>
	<g>
		<g>
			<path fill="#34495E" d="M13,67.8c-0.1,0-0.2-0.1-0.5-0.2c-0.2-0.1-0.5-0.3-0.7-0.4c-0.2-0.2-0.4-0.3-0.4-0.5
				c-0.1-0.2,0-0.3,0.2-0.4c0.1,0.1,0.3,0.3,0.6,0.5c0.3,0.2,0.5,0.3,0.7,0.4c0.7,0,1.4,0,2.1,0c0.7,0,1.3-0.1,2-0.3
				c0.6-0.1,1.3-0.3,1.9-0.6c0.6-0.3,1.2-0.6,1.8-1.1c0.6-0.5,1-1,1.2-1.5c0.2-0.4,0.2-0.9,0.1-1.2c-0.1-0.4-0.4-0.7-0.8-1.1
				c-0.4-0.3-0.8-0.6-1.4-0.9c-0.5-0.3-1.1-0.6-1.7-0.8c-0.6-0.3-1.2-0.5-1.7-0.7c-0.5-0.2-1-0.5-1.5-0.7c-0.4-0.2-0.8-0.5-1-0.7
				c-0.1-0.2,0.1-0.5,0.3-0.8c0.3-0.3,0.6-0.6,1.1-0.9c0.5-0.3,1-0.6,1.6-0.9c0.6-0.3,1.3-0.6,1.9-0.9c0.7-0.3,1.3-0.5,1.9-0.7
				c0.6-0.2,1.2-0.3,1.6-0.3c0.5,0,0.8,0,1.1,0.1c0.2,0.1,0.3,0.3,0.3,0.7c-0.1,0-0.3,0.1-0.7,0.2c-0.4,0.1-0.8,0.2-1.4,0.4
				c-0.5,0.2-1.1,0.3-1.7,0.5c-0.6,0.2-1.2,0.4-1.8,0.6c-0.6,0.2-1.2,0.5-1.7,0.7c-0.5,0.2-0.9,0.5-1.2,0.7
				c-0.3,0.2-0.5,0.4-0.5,0.6c0,0.2,0.1,0.3,0.5,0.5c1.9,0.6,3.4,1.2,4.4,1.8c1.1,0.6,1.8,1.3,2.3,1.9c0.4,0.7,0.6,1.3,0.5,1.9
				c-0.1,0.6-0.4,1.2-0.8,1.8c-0.5,0.5-1.1,1-1.8,1.4c-0.7,0.4-1.5,0.7-2.3,1c-0.8,0.2-1.6,0.4-2.5,0.4S13.6,68.1,13,67.8z"/>
			<path fill="#34495E" d="M25.1,67.8c-0.7-0.2-1.1-0.6-1.3-1c-0.2-0.5-0.3-1-0.2-1.6c0.1-0.6,0.3-1.2,0.7-1.9
				c0.3-0.7,0.8-1.3,1.2-1.9c0.5-0.6,1-1.1,1.5-1.6c0.5-0.5,1-0.8,1.5-1.1c0.5-0.2,0.9-0.3,1.2-0.3c0.3,0.1,0.5,0.3,0.6,0.8
				c0,0.2,0,0.4-0.1,0.7c-0.1,0.2-0.2,0.5-0.3,0.7c-0.1,0.2-0.3,0.4-0.5,0.6c-0.2,0.2-0.4,0.3-0.5,0.4c-0.2,0.1-0.3,0.1-0.5,0.1
				c-0.1,0-0.2-0.1-0.3-0.3c0.2-0.3,0.3-0.5,0.5-0.8c0.2-0.3,0.4-0.5,0.6-0.7c-0.1-0.1-0.2-0.2-0.4-0.1c-0.2,0.1-0.5,0.2-0.8,0.5
				c-0.3,0.2-0.6,0.5-1,0.9c-0.3,0.4-0.7,0.7-1,1.2c-0.3,0.4-0.6,0.8-0.9,1.3c-0.3,0.4-0.4,0.9-0.6,1.3c-0.1,0.4-0.1,0.8-0.1,1.2
				s0.2,0.6,0.6,0.9c0.4,0,0.9,0,1.5-0.1c0.6-0.1,1.1-0.3,1.7-0.5c0.6-0.2,1.2-0.4,1.7-0.6c0.6-0.2,1.1-0.4,1.6-0.6
				c0.5-0.2,0.9-0.3,1.2-0.5c0.3-0.1,0.5-0.1,0.6-0.1c0.2,0.1,0.3,0.3,0,0.6c-0.2,0.2-0.6,0.5-1.1,0.8c-0.5,0.3-1.1,0.6-1.8,0.8
				c-0.7,0.3-1.4,0.5-2.1,0.7c-0.7,0.2-1.4,0.3-2,0.4C26,68,25.5,68,25.1,67.8z"/>
			<path fill="#34495E" d="M34.5,67.8c0,0,0-0.2,0-0.5c0-0.3,0.1-0.7,0.1-1.1c0.1-0.4,0.1-0.9,0.3-1.5c0.1-0.5,0.2-1,0.3-1.5
				c0.1-0.5,0.2-0.9,0.4-1.3c0.1-0.4,0.3-0.6,0.4-0.8c0.1-0.1,0.2-0.1,0.3,0c0.1,0.1,0.2,0.2,0.3,0.3c0.1,0.1,0.2,0.2,0.3,0.3
				c0.1,0.1,0.2,0.1,0.3,0c0.4-0.5,0.8-1,1.2-1.4c0.4-0.5,0.9-0.9,1.4-1.2c0.1,0,0.2-0.1,0.4-0.2c0.2-0.1,0.5-0.2,0.8-0.3
				c0.3-0.1,0.6-0.2,0.9-0.2c0.3-0.1,0.6-0.1,0.8-0.1c0.2,0,0.4,0.1,0.5,0.2c0.1,0.1,0,0.3-0.1,0.6c-0.8,0-1.5,0.2-2.2,0.7
				c-0.7,0.4-1.3,1-1.9,1.6c-0.6,0.6-1.1,1.3-1.5,2.1c-0.5,0.8-0.9,1.5-1.2,2.1c-0.3,0.6-0.6,1.2-0.9,1.6c-0.2,0.4-0.4,0.6-0.5,0.6
				c0,0-0.1,0-0.2-0.1C34.7,67.9,34.6,67.9,34.5,67.8z"/>
			<path fill="#34495E" d="M44.9,67.8c-0.5-0.2-0.9-0.5-1-1c-0.1-0.4-0.1-0.9,0-1.5c0.1-0.5,0.4-1.1,0.7-1.7
				c0.3-0.6,0.7-1.1,1.2-1.6c0.4-0.5,0.9-0.9,1.3-1.2c0.4-0.3,0.8-0.5,1.1-0.6c0.8-0.1,1.4,0,1.9,0.2c0.5,0.2,0.8,0.5,0.9,0.9
				c0.2,0.4,0.2,0.9,0.1,1.4c-0.1,0.5-0.2,1.1-0.5,1.6c-0.3,0.5-0.6,1.1-1,1.6c-0.4,0.5-0.9,0.9-1.4,1.3c-0.5,0.3-1,0.6-1.6,0.7
				C46.1,68.1,45.5,68.1,44.9,67.8z M44.7,66.7c0.1,0.4,0.3,0.6,0.7,0.7c0.3,0,0.7,0,1.2-0.3c0.4-0.2,0.9-0.5,1.4-0.9
				c0.5-0.4,0.9-0.8,1.3-1.3c0.4-0.5,0.7-1,1-1.4c0.3-0.5,0.4-0.9,0.4-1.3c0-0.4-0.2-0.6-0.5-0.8s-0.9-0.2-1.7-0.1
				c-0.2,0.2-0.4,0.4-0.7,0.6c-0.3,0.2-0.6,0.5-0.9,0.8c-0.3,0.3-0.6,0.6-0.9,0.9c-0.3,0.3-0.6,0.7-0.8,1c-0.2,0.3-0.4,0.7-0.5,1.1
				C44.6,66,44.6,66.4,44.7,66.7z"/>
			<path fill="#34495E" d="M52.8,67.8c-0.4-0.3-0.6-0.6-0.7-1C52,66.4,52,66,52,65.5c0.1-0.5,0.2-1,0.4-1.5c0.2-0.5,0.4-1,0.7-1.5
				c0.2-0.5,0.5-0.9,0.7-1.3c0.2-0.4,0.4-0.7,0.5-1c0-0.1,0.1-0.3,0.3-0.6c0.1-0.3,0.3-0.6,0.5-1c0.2-0.3,0.3-0.7,0.5-1
				c0.1-0.3,0.2-0.5,0.3-0.6c0-0.1,0.1-0.2,0.2-0.4c0.1-0.2,0.2-0.4,0.2-0.6c0.1-0.2,0.2-0.4,0.3-0.6c0.1-0.2,0.2-0.3,0.3-0.4
				s0.2-0.1,0.4,0c0.1,0.1,0.2,0.3,0.4,0.6c-0.1,0.1-0.2,0.4-0.4,0.8c-0.2,0.4-0.4,0.9-0.7,1.4c-0.3,0.5-0.6,1.1-0.9,1.8
				c-0.3,0.7-0.6,1.3-1,2c-0.3,0.7-0.6,1.3-0.9,2s-0.5,1.2-0.7,1.7c-0.2,0.5-0.3,1-0.3,1.3c0,0.3,0,0.6,0.2,0.6
				c0.2,0.1,0.4,0.1,0.7,0.1c0.3,0,0.6-0.1,0.9-0.1c0.3-0.1,0.6-0.1,0.9-0.2c0.3-0.1,0.6-0.1,0.8-0.1c0.1,0.1,0,0.2-0.1,0.3
				c-0.1,0.1-0.3,0.2-0.5,0.3c-0.2,0.1-0.5,0.2-0.8,0.2c-0.3,0.1-0.6,0.1-0.9,0.1c-0.3,0-0.5,0-0.7,0S52.9,67.9,52.8,67.8z"/>
			<path fill="#34495E" d="M59.2,67.8c-0.4-0.3-0.6-0.6-0.7-1c-0.1-0.4-0.1-0.9,0-1.3c0.1-0.5,0.2-1,0.4-1.5c0.2-0.5,0.4-1,0.7-1.5
				c0.2-0.5,0.5-0.9,0.7-1.3c0.2-0.4,0.4-0.7,0.5-1c0-0.1,0.1-0.3,0.3-0.6c0.1-0.3,0.3-0.6,0.5-1c0.2-0.3,0.3-0.7,0.5-1
				c0.1-0.3,0.2-0.5,0.3-0.6c0-0.1,0.1-0.2,0.2-0.4c0.1-0.2,0.2-0.4,0.2-0.6c0.1-0.2,0.2-0.4,0.3-0.6c0.1-0.2,0.2-0.3,0.3-0.4
				s0.2-0.1,0.4,0c0.1,0.1,0.2,0.3,0.4,0.6c-0.1,0.1-0.2,0.4-0.4,0.8c-0.2,0.4-0.4,0.9-0.7,1.4c-0.3,0.5-0.6,1.1-0.9,1.8
				c-0.3,0.7-0.6,1.3-1,2c-0.3,0.7-0.6,1.3-0.9,2s-0.5,1.2-0.7,1.7c-0.2,0.5-0.3,1-0.3,1.3c0,0.3,0,0.6,0.2,0.6
				c0.2,0.1,0.4,0.1,0.7,0.1c0.3,0,0.6-0.1,0.9-0.1c0.3-0.1,0.6-0.1,0.9-0.2c0.3-0.1,0.6-0.1,0.8-0.1c0.1,0.1,0,0.2-0.1,0.3
				c-0.1,0.1-0.3,0.2-0.5,0.3c-0.2,0.1-0.5,0.2-0.8,0.2c-0.3,0.1-0.6,0.1-0.9,0.1c-0.3,0-0.5,0-0.7,0S59.3,67.9,59.2,67.8z"/>
			<path fill="#34495E" d="M83.2,67.6c-0.5-0.3-0.8-0.8-1.1-1.2c-0.2-0.5-0.4-1-0.5-1.6h-0.2c-1,0.9-2,1.5-2.7,1.9
				c-0.8,0.4-1.4,0.7-1.9,0.8c-0.5,0.1-0.9,0.1-1.2-0.1c-0.3-0.2-0.5-0.4-0.6-0.8c-0.1-0.3-0.1-0.7,0-1.2c0.1-0.5,0.3-0.9,0.6-1.4
				c0.3-0.5,0.7-0.9,1.1-1.3c0.5-0.4,1-0.8,1.6-1c0.6-0.3,1.2-0.4,2-0.5c0.7-0.1,1.5,0,2.3,0.2l0.2-0.2l2.6-5.2
				c0.3,0.1,0.6,0.2,0.6,0.5c0.1,0.3,0.1,0.5,0,0.9c-0.1,0.3-0.2,0.6-0.3,0.9c-0.1,0.3-0.2,0.5-0.3,0.6c0,0.1-0.1,0.2-0.2,0.4
				c-0.1,0.2-0.2,0.5-0.4,0.8c-0.1,0.3-0.3,0.6-0.5,1s-0.3,0.7-0.5,1c-0.1,0.3-0.3,0.6-0.4,0.8c-0.1,0.2-0.2,0.4-0.2,0.4
				c-0.2,0.5-0.3,1-0.3,1.5c0,0.5,0,1,0.1,1.5c0.1,0.2,0.2,0.4,0.3,0.6c0.2,0.1,0.3,0.3,0.5,0.4c0.2,0.1,0.3,0.2,0.5,0.4
				s0.3,0.3,0.4,0.4c-0.1,0.2-0.2,0.3-0.3,0.3c-0.2,0-0.3,0-0.5-0.1c-0.2-0.1-0.3-0.1-0.5-0.2C83.3,67.7,83.2,67.6,83.2,67.6z
				 M75.9,66.7c0.1,0.2,0.2,0.3,0.6,0.2c0.3-0.1,0.7-0.3,1.2-0.6c0.5-0.3,1-0.6,1.5-1.1c0.5-0.4,1-0.8,1.4-1.2
				c0.4-0.4,0.7-0.8,1-1.1c0.2-0.3,0.3-0.6,0.2-0.8c-0.4-0.2-0.8-0.3-1.3-0.3c-0.5,0-1,0.1-1.5,0.3c-0.5,0.2-0.9,0.4-1.4,0.7
				c-0.4,0.3-0.8,0.7-1.1,1.1c-0.3,0.4-0.5,0.9-0.6,1.3C75.8,65.7,75.8,66.2,75.9,66.7z"/>
			<path fill="#34495E" d="M86.9,67.8c-0.5-0.2-0.9-0.5-1-1c-0.1-0.4-0.1-0.9,0-1.5c0.1-0.5,0.4-1.1,0.7-1.7
				c0.3-0.6,0.7-1.1,1.2-1.6c0.4-0.5,0.9-0.9,1.3-1.2c0.4-0.3,0.8-0.5,1.1-0.6c0.8-0.1,1.4,0,1.9,0.2c0.5,0.2,0.8,0.5,0.9,0.9
				c0.2,0.4,0.2,0.9,0.1,1.4c-0.1,0.5-0.2,1.1-0.5,1.6c-0.3,0.5-0.6,1.1-1,1.6c-0.4,0.5-0.9,0.9-1.4,1.3c-0.5,0.3-1.1,0.6-1.6,0.7
				C88,68.1,87.5,68.1,86.9,67.8z M86.7,66.7c0.1,0.4,0.3,0.6,0.7,0.7c0.3,0,0.7,0,1.2-0.3c0.4-0.2,0.9-0.5,1.4-0.9
				c0.5-0.4,0.9-0.8,1.3-1.3c0.4-0.5,0.7-1,1-1.4s0.4-0.9,0.4-1.3c0-0.4-0.2-0.6-0.5-0.8c-0.3-0.2-0.9-0.2-1.7-0.1
				c-0.2,0.2-0.4,0.4-0.7,0.6c-0.3,0.2-0.6,0.5-0.9,0.8c-0.3,0.3-0.6,0.6-0.9,0.9c-0.3,0.3-0.6,0.7-0.8,1c-0.2,0.3-0.4,0.7-0.5,1.1
				C86.6,66,86.6,66.4,86.7,66.7z"/>
			<path fill="#34495E" d="M100.2,67.8c-0.3-0.2-0.5-0.4-0.6-0.8s-0.2-0.6-0.3-1s-0.1-0.7-0.1-1c0-0.3,0-0.7,0-0.9c0,0-0.1,0-0.1,0
				s-0.1,0-0.1,0c-0.3,0.2-0.6,0.5-0.9,0.8c-0.3,0.3-0.6,0.7-0.9,1c-0.3,0.3-0.6,0.7-0.9,1c-0.3,0.3-0.6,0.6-0.8,0.9
				c-0.2,0.1-0.4,0.1-0.6,0c-0.2,0-0.4-0.1-0.5-0.2c-0.1-0.1-0.2-0.2-0.3-0.4c-0.1-0.2,0-0.4,0-0.6c0.2-0.8,0.5-1.6,0.8-2.5
				c0.3-0.9,0.6-1.7,0.9-2.5c0.1-0.3,0.2-0.4,0.4-0.5c0.1,0,0.3,0,0.4,0.2c0.1,0.1,0.2,0.3,0.2,0.5c0,0.2,0,0.4-0.1,0.7
				c0,0.1-0.1,0.3-0.2,0.6c-0.1,0.3-0.2,0.5-0.3,0.9c-0.1,0.3-0.2,0.6-0.3,0.9c-0.1,0.3-0.2,0.5-0.2,0.6v0.7c0.4-0.4,0.7-0.7,1-1
				c0.3-0.3,0.5-0.6,0.8-0.9c0.2-0.3,0.5-0.6,0.7-0.9c0.3-0.3,0.6-0.7,1-1.2c0.3-0.3,0.5-0.5,0.7-0.6c0.2,0,0.3,0,0.4,0.2
				c0.1,0.2,0.1,0.4,0.1,0.8c0,0.3,0,0.7,0,1.1c0,0.4,0,0.8,0,1.1c0,0.4,0,0.7,0,1c0,0.3,0,0.5,0.1,0.6c0.1,0.1,0.1,0.1,0.3,0
				c0.2-0.2,0.4-0.6,0.7-1.1c0.3-0.5,0.6-1,1-1.5c0.4-0.6,0.8-1.1,1.2-1.7c0.4-0.6,0.9-1.1,1.4-1.5c0.5-0.5,0.9-0.8,1.4-1.1
				c0.5-0.3,0.9-0.4,1.3-0.3c0,0.1-0.1,0.2-0.2,0.4c-0.2,0.2-0.4,0.5-0.6,0.8c-0.3,0.3-0.6,0.7-0.9,1c-0.3,0.4-0.6,0.7-0.9,1.1
				c-0.3,0.3-0.6,0.6-0.8,0.9c-0.2,0.3-0.4,0.5-0.5,0.6c0,0.1-0.1,0.2-0.2,0.3c-0.1,0.2-0.3,0.4-0.4,0.6c-0.2,0.2-0.3,0.5-0.5,0.8
				c-0.2,0.3-0.4,0.5-0.5,0.8c-0.2,0.2-0.3,0.5-0.4,0.6c-0.1,0.2-0.2,0.3-0.2,0.3c-0.1,0.2-0.2,0.3-0.3,0.4
				c-0.1,0.1-0.2,0.2-0.2,0.2c-0.1,0-0.2,0-0.2,0C100.4,68,100.3,67.9,100.2,67.8z"/>
			<path fill="#34495E" d="M115.7,67.8c0-0.4,0-0.8,0.1-1.3c0.1-0.4,0.3-0.8,0.4-1.2c0.2-0.4,0.4-0.8,0.6-1.2
				c0.2-0.4,0.4-0.8,0.6-1.2c0.2-0.4,0.3-0.8,0.3-1.2c0.1-0.4,0-0.8-0.1-1.1c-0.3-0.1-0.7-0.1-1.1,0.1c-0.4,0.2-0.9,0.4-1.3,0.8
				c-0.5,0.3-0.9,0.7-1.4,1.2c-0.5,0.5-1,0.9-1.5,1.4c-0.5,0.5-0.9,0.9-1.3,1.3c-0.4,0.4-0.8,0.8-1.2,1.1c-0.3,0.3-0.6,0.5-0.9,0.5
				c-0.2,0.1-0.4,0-0.5-0.2c0,0,0.1-0.2,0.2-0.5c0.2-0.3,0.4-0.7,0.6-1.2c0.2-0.5,0.5-1,0.8-1.5c0.3-0.6,0.6-1.1,0.8-1.6
				c0.3-0.5,0.5-0.9,0.7-1.2c0.2-0.3,0.3-0.5,0.4-0.5c0.3,0.2,0.4,0.4,0.4,0.6c0,0.2,0,0.4-0.1,0.7c-0.1,0.2-0.2,0.5-0.3,0.7
				c-0.1,0.2-0.1,0.5,0,0.7c0.2-0.1,0.5-0.3,0.9-0.6c0.4-0.3,0.8-0.5,1.2-0.8c0.4-0.3,0.9-0.5,1.4-0.8c0.5-0.3,0.9-0.5,1.3-0.6
				c0.4-0.1,0.8-0.2,1.1-0.2c0.3,0,0.6,0.1,0.7,0.3c0.2,0.2,0.2,0.5,0.1,1c-0.1,0.5-0.3,1.1-0.6,1.9c0,0.1-0.1,0.3-0.3,0.6
				c-0.1,0.3-0.3,0.7-0.5,1.1c-0.2,0.4-0.3,0.8-0.5,1.1c-0.1,0.3-0.2,0.6-0.3,0.6c0,0.1,0,0.1,0,0.3c0,0.1,0,0.3-0.1,0.4
				c0,0.2-0.1,0.3-0.1,0.5c-0.1,0.1-0.1,0.3-0.2,0.3c-0.1,0.1-0.2,0.1-0.3,0C115.8,67.9,115.7,67.9,115.7,67.8z"/>
		</g>
		<g>
			<path fill="#34495E" d="M62.5,130.2c-8.5,0-15.3-6.9-15.3-15.3V91.2c0-8.5,6.9-15.3,15.3-15.3c8.5,0,15.3,6.9,15.3,15.3v23.7
				C77.8,123.3,71,130.2,62.5,130.2z M62.5,78.8c-6.8,0-12.3,5.5-12.3,12.3v23.7c0,6.8,5.5,12.3,12.3,12.3c6.8,0,12.3-5.5,12.3-12.3
				V91.2C74.8,84.4,69.3,78.8,62.5,78.8z"/>
		</g>
		<g>
			<path fill="#34495E" d="M62,99c-1.1,0-2-0.9-2-2v-9c0-1.1,0.9-2,2-2s2,0.9,2,2v9C64,98.1,63.1,99,62,99z"/>
		</g>
	</g>
</g>
</svg>
