<?xml version="1.0" encoding="utf-8"?>
<!-- Generator: Adobe Illustrator 18.0.0, SVG Export Plug-In . SVG Version: 6.00 Build 0)  -->
<!DOCTYPE svg PUBLIC "-//W3C//DTD SVG 1.1//EN" "http://www.w3.org/Graphics/SVG/1.1/DTD/svg11.dtd">
<svg version="1.1" id="Layer_1" xmlns="http://www.w3.org/2000/svg" xmlns:xlink="http://www.w3.org/1999/xlink" x="0px" y="0px"
	 width="650.6px" height="100px" viewBox="0 0 650.6 100" enable-background="new 0 0 650.6 100" xml:space="preserve">
<g>
	<rect y="0" fill="#FFFFFF" width="100" height="100"/>
	<g>
		<g>
			<path fill="#2980B9" d="M98.8,56.9V21.4c0-1.2-1-2.2-2.2-2.2H3.2c-1.2,0-2.2,1-2.2,2.2v35.6l-1,0.7V74l1,0.8v3
				c0,1.2,1,2.2,2.2,2.2h3.6c0.4,0.5,1,0.8,1.7,0.8h4.9l9.6-9.6h19.9h14.3H77l9.6,9.6h4.9c0.7,0,1.3-0.3,1.7-0.8h3.3
				c1.2,0,2.2-1,2.2-2.2V75l1.2-1V57.7L98.8,56.9z"/>
		</g>
		<path fill="#34495E" d="M77,71.2H57.1H42.9H23l-9.6,9.6h73.3L77,71.2z M26.6,78.3c-1.1,0-2-0.9-2-2c0-1.1,0.9-2,2-2
			c1.1,0,2,0.9,2,2C28.6,77.4,27.7,78.3,26.6,78.3z M34.6,76.1h-1.8c-0.6,0-1.1-0.5-1.1-1.1c0-0.6,0.5-1.1,1.1-1.1h1.8
			c0.6,0,1.1,0.5,1.1,1.1C35.7,75.6,35.2,76.1,34.6,76.1z M67.7,76.1h-1.8c-0.6,0-1.1-0.5-1.1-1.1c0-0.6,0.5-1.1,1.1-1.1h1.8
			c0.6,0,1.1,0.5,1.1,1.1C68.8,75.6,68.3,76.1,67.7,76.1z M73.7,78.3c-1.1,0-2-0.9-2-2c0-1.1,0.9-2,2-2s2,0.9,2,2
			C75.7,77.4,74.8,78.3,73.7,78.3z"/>
		<g>
			<path fill="#ECF0F1" d="M89.1,23.3H9.2l-4,4v39.7c0,1.2,1,2.2,2.2,2.2h84.8c1.2,0,2.2-1,2.2-2.2V28.6L89.1,23.3z"/>
		</g>
		<path fill="#3498DB" d="M78.5,45.1c0,4.1-3.3,7.4-7.3,7.4h-43c-4,0-7.3-3.3-7.3-7.4s3.3-7.4,7.3-7.4h43
			C75.3,37.7,78.5,41,78.5,45.1z"/>
		<circle fill="#FFFFFF" cx="28.4" cy="45" r="5.7"/>
		<circle fill="#FFFFFF" cx="70.8" cy="45" r="5.7"/>
		<rect x="40" y="39.7" fill="#FFFFFF" width="19.6" height="7.1"/>
		<g>
			<defs>
				<circle id="SVGID_1_" cx="28.4" cy="45" r="5.7"/>
			</defs>
			<clipPath id="SVGID_2_">
				<use xlink:href="#SVGID_1_"  overflow="visible"/>
			</clipPath>
			<g clip-path="url(#SVGID_2_)">
				<rect x="27.4" y="39" fill="#7F8C8D" width="2.1" height="2.1"/>
				<rect x="27.4" y="48.8" fill="#7F8C8D" width="2.1" height="2.1"/>
				<g>
					
						<rect x="31.7" y="41.6" transform="matrix(0.4795 0.8776 -0.8776 0.4795 54.5253 -6.5565)" fill="#7F8C8D" width="2.1" height="2.1"/>
					
						<rect x="23" y="46.4" transform="matrix(0.4795 0.8775 -0.8775 0.4795 54.1671 3.5607)" fill="#7F8C8D" width="2.1" height="2.1"/>
				</g>
				<g>
					
						<rect x="31.5" y="46.8" transform="matrix(-0.5602 0.8284 -0.8284 -0.5602 90.408 47.6803)" fill="#7F8C8D" width="2.1" height="2.1"/>
					
						<rect x="23.3" y="41.2" transform="matrix(-0.5602 0.8284 -0.8284 -0.5602 72.9792 45.8179)" fill="#7F8C8D" width="2.1" height="2.1"/>
				</g>
			</g>
		</g>
		<g>
			<defs>
				<circle id="SVGID_3_" cx="70.8" cy="45" r="5.7"/>
			</defs>
			<clipPath id="SVGID_4_">
				<use xlink:href="#SVGID_3_"  overflow="visible"/>
			</clipPath>
			<g clip-path="url(#SVGID_4_)">
				<rect x="69.8" y="39" fill="#7F8C8D" width="2.1" height="2.1"/>
				<rect x="69.8" y="48.8" fill="#7F8C8D" width="2.1" height="2.1"/>
				<g>
					
						<rect x="74.1" y="41.6" transform="matrix(0.4795 0.8775 -0.8775 0.4795 76.5945 -43.7672)" fill="#7F8C8D" width="2.1" height="2.1"/>
					
						<rect x="65.4" y="46.4" transform="matrix(0.4795 0.8775 -0.8775 0.4795 76.2378 -33.6493)" fill="#7F8C8D" width="2.1" height="2.1"/>
				</g>
				<g>
					
						<rect x="73.9" y="46.8" transform="matrix(-0.5602 0.8284 -0.8284 -0.5602 156.563 12.5552)" fill="#7F8C8D" width="2.1" height="2.1"/>
					
						<rect x="65.7" y="41.2" transform="matrix(-0.5602 0.8284 -0.8284 -0.5602 139.1336 10.6923)" fill="#7F8C8D" width="2.1" height="2.1"/>
				</g>
			</g>
		</g>
		<g>
			<defs>
				<rect id="SVGID_5_" x="40" y="39.7" width="19.6" height="7.1"/>
			</defs>
			<clipPath id="SVGID_6_">
				<use xlink:href="#SVGID_5_"  overflow="visible"/>
			</clipPath>
			<g clip-path="url(#SVGID_6_)">
				<circle fill="#2F3131" cx="28.7" cy="45.1" r="19.2"/>
				<circle fill="#2F3131" cx="70.9" cy="45.1" r="19.2"/>
			</g>
		</g>
	</g>
</g>
<g>
	<rect x="110" y="0" fill="#FFFFFF" width="100" height="100"/>
	<g>
		<g>
			<path fill="#ECF0F1" d="M128.6,25.2c-3.7,0-6.7-3-6.7-6.7v-0.1c0-3.7,3-6.7,6.7-6.7h3.2c1.4,0,2.6-1.2,2.6-2.6V8.9
				c0-4.3,3.5-7.8,7.8-7.8h0.2c4.3,0,7.8,3.5,7.8,7.8V9c0,1.4,1.2,2.6,2.6,2.6h3.2c3.7,0,6.7,3,6.7,6.7v0.1c0,3.7-3,6.7-6.7,6.7
				H128.6z"/>
			<path fill="#7F8C8D" d="M142.3,1.7c4,0,7.3,3.2,7.3,7.3V9c0,1.7,1.4,3.1,3.1,3.1h3.2c3.4,0,6.2,2.8,6.2,6.2v0.1
				c0,3.4-2.8,6.2-6.2,6.2h-27.4c-3.4,0-6.2-2.8-6.2-6.2v-0.1c0-3.4,2.8-6.2,6.2-6.2h3.2c1.7,0,3.1-1.4,3.1-3.1V8.9
				c0-4,3.2-7.3,7.3-7.3H142.3 M142.3,0.7h-0.2c-4.6,0-8.3,3.7-8.3,8.3V9c0,1.2-1,2.1-2.1,2.1h-3.2c-4,0-7.2,3.2-7.2,7.2v0.1
				c0,4,3.2,7.2,7.2,7.2h27.4c4,0,7.2-3.2,7.2-7.2v-0.1c0-4-3.2-7.2-7.2-7.2h-3.2c-1.2,0-2.1-1-2.1-2.1V8.9
				C150.6,4.4,146.9,0.7,142.3,0.7L142.3,0.7z"/>
		</g>
		<g>
			<circle fill="#7F8C8D" cx="142.2" cy="9" r="3.1"/>
		</g>
		<path fill="#F39C12" d="M167.5,97.9H117c-3.9,0-7-3.1-7-7V24.9c0-3.9,3.1-7,7-7h50.5c3.9,0,7,3.1,7,7v66.1
			C174.5,94.8,171.4,97.9,167.5,97.9z"/>
		<g>
			<defs>
				<path id="SVGID_7_" d="M167.5,97.9H117c-3.9,0-7-3.1-7-7V24.9c0-3.9,3.1-7,7-7h50.5c3.9,0,7,3.1,7,7v66.1
					C174.5,94.8,171.4,97.9,167.5,97.9z"/>
			</defs>
			<clipPath id="SVGID_8_">
				<use xlink:href="#SVGID_7_"  overflow="visible"/>
			</clipPath>
			<polygon opacity="0.1" clip-path="url(#SVGID_8_)" fill="#231F20" points="178.4,14.8 106.1,102.1 182.1,101.6 			"/>
		</g>
		<rect x="117.3" y="33.5" fill="#FFFFFF" width="49.9" height="57.1"/>
		<g>
			<path d="M162,57.7h-24.8c-0.8,0-1.4-0.6-1.4-1.4v-1.4c0-0.8,0.6-1.4,1.4-1.4H162c0.8,0,1.4,0.6,1.4,1.4v1.4
				C163.4,57.1,162.8,57.7,162,57.7z"/>
			<path d="M162,44.9h-24.8c-0.8,0-1.4-0.6-1.4-1.4v-1.4c0-0.8,0.6-1.4,1.4-1.4H162c0.8,0,1.4,0.6,1.4,1.4v1.4
				C163.4,44.3,162.8,44.9,162,44.9z"/>
			<path d="M155.9,69.1h-18.6c-0.8,0-1.4-0.6-1.4-1.4v-1.4c0-0.8,0.6-1.4,1.4-1.4h18.6c0.8,0,1.4,0.6,1.4,1.4v1.4
				C157.3,68.5,156.7,69.1,155.9,69.1z"/>
			<path d="M153,81.9h-15.8c-0.8,0-1.4-0.6-1.4-1.4v-1.4c0-0.8,0.6-1.4,1.4-1.4H153c0.8,0,1.4,0.6,1.4,1.4v1.4
				C154.4,81.3,153.8,81.9,153,81.9z"/>
		</g>
		<g>
			<path fill="#0584C7" d="M133.1,39.7l-5.2,5.9c-0.3,0.3-0.6,0.4-1,0.4c-0.3,0-0.6-0.1-0.8-0.3l-3.3-2.6c-0.6-0.5-0.7-1.3-0.2-1.8
				c0.5-0.6,1.3-0.7,1.8-0.2l2.3,1.8l4.4-5c0.5-0.5,1.3-0.6,1.8-0.1C133.5,38.3,133.6,39.1,133.1,39.7z"/>
			<path fill="#0584C7" d="M133.1,52.3l-5.2,5.9c-0.3,0.3-0.6,0.4-1,0.4c-0.3,0-0.6-0.1-0.8-0.3l-3.3-2.6c-0.6-0.5-0.7-1.3-0.2-1.8
				c0.5-0.6,1.3-0.7,1.8-0.2l2.3,1.8l4.4-5c0.5-0.5,1.3-0.6,1.8-0.1C133.5,50.9,133.6,51.8,133.1,52.3z"/>
			<path fill="#0584C7" d="M133.1,64.4l-5.2,5.9c-0.3,0.3-0.6,0.4-1,0.4c-0.3,0-0.6-0.1-0.8-0.3l-3.3-2.6c-0.6-0.5-0.7-1.3-0.2-1.8
				c0.5-0.6,1.3-0.7,1.8-0.2l2.3,1.8l4.4-5c0.5-0.5,1.3-0.6,1.8-0.1C133.5,63.1,133.6,63.9,133.1,64.4z"/>
			<path fill="#0584C7" d="M133.1,76.6l-5.2,5.9c-0.3,0.3-0.6,0.4-1,0.4c-0.3,0-0.6-0.1-0.8-0.3l-3.3-2.6c-0.6-0.5-0.7-1.3-0.2-1.8
				c0.5-0.6,1.3-0.7,1.8-0.2l2.3,1.8l4.4-5c0.5-0.5,1.3-0.6,1.8-0.1C133.5,75.2,133.6,76.1,133.1,76.6z"/>
		</g>
		<g>
			
				<rect x="187.4" y="41.2" transform="matrix(0.9637 0.2671 -0.2671 0.9637 19.9807 -49.5512)" fill="#7F8C8D" width="9.5" height="15"/>
			<circle fill="#BDC3C7" cx="185.4" cy="73.7" r="24.6"/>
			<circle fill="#C0392B" cx="185.4" cy="73.7" r="22.1"/>
			<circle fill="#FFFFFF" cx="185.4" cy="73.7" r="19.3"/>
			<g>
				<defs>
					<circle id="SVGID_9_" cx="185.4" cy="73.7" r="19.3"/>
				</defs>
				<clipPath id="SVGID_10_">
					<use xlink:href="#SVGID_9_"  overflow="visible"/>
				</clipPath>
				
					<line clip-path="url(#SVGID_10_)" fill="#FFFFFF" stroke="#000000" stroke-width="2" stroke-miterlimit="10" x1="191.7" y1="51.2" x2="179.3" y2="96.2"/>
				
					<line clip-path="url(#SVGID_10_)" fill="#FFFFFF" stroke="#000000" stroke-width="2" stroke-miterlimit="10" x1="208" y1="80" x2="163" y2="67.5"/>
				
					<line clip-path="url(#SVGID_10_)" fill="#FFFFFF" stroke="#000000" stroke-width="2" stroke-miterlimit="10" x1="206.1" y1="62.1" x2="165.6" y2="85.1"/>
				
					<line clip-path="url(#SVGID_10_)" fill="#FFFFFF" stroke="#000000" stroke-width="2" stroke-miterlimit="10" x1="197.3" y1="93.9" x2="174.4" y2="53.3"/>
				<circle clip-path="url(#SVGID_10_)" fill="#FFFFFF" cx="185.4" cy="73.7" r="14.5"/>
			</g>
			<path fill="#E74C3C" d="M187.8,64.6c0,0-6.8,7.2-7.5,9.7c-0.7,2.5,0.8,5,3.2,5.7c2.5,0.7,5-0.8,5.7-3.2
				C189.9,74.3,187.8,64.6,187.8,64.6z"/>
			<path fill="#95A5A6" d="M203.8,50.8l-22.7-6.3l2.4-8.6c0.7-2.5,23.4,3.8,22.7,6.3L203.8,50.8z"/>
		</g>
	</g>
</g>
<g>
	<rect x="220" y="0" fill="#FFFFFF" width="100" height="100"/>
	<g>
		<g>
			<g>
				<path fill="none" stroke="#E74C3C" stroke-width="4" stroke-miterlimit="10" d="M312.7,39.1c0.9,3.5,1.4,7.2,1.4,11
					c0,14.5-7.1,27.4-18.1,35.2"/>
				<g>
					<polygon fill="#E74C3C" points="293.8,74.8 283.1,91.6 303,92.5 					"/>
				</g>
			</g>
		</g>
		<g>
			<g>
				<path fill="none" stroke="#0584C7" stroke-width="4" stroke-miterlimit="10" d="M232.6,70.4c-3.2-5.7-5.1-12.3-5.1-19.2
					c0-21.1,16.8-38.5,38.5-40.8"/>
				<g>
					<polygon fill="#0584C7" points="263.7,18.7 277.5,10.7 263.6,2.7 					"/>
				</g>
			</g>
		</g>
		<path fill="#7F8C8D" d="M225.9,98.7c-0.3,0-0.6-0.1-0.9-0.1c-0.4-0.1-0.9-0.1-1.4-0.4c-0.7-0.4-1.5-0.4-1.7-1.3
			c0-0.1-0.2-0.1-0.2-0.1c-0.6-0.3-0.6-0.6-0.1-1.1c-0.9-0.3-0.9-0.6-0.3-1.2c-0.1-0.4-0.2-0.7-0.1-1c0.3-0.7,0.8,0,1.3-0.1
			c-0.3-0.4-1.1-0.6-0.8-1.3c0.1-0.2,0.7-0.2,1-0.3c0-0.2-0.2-0.6-0.2-1c0-0.1,0.5-0.2,0.9-0.4c0-0.4,0-1,0.9-0.7
			c0.2-0.4,0.3-0.9,1-0.7c0.2,0.1,0.6-0.3,0.9-0.5c0.7-0.4,1.4-0.6,2-1.1c0.4-0.3,0.6-0.9,0.8-1.4c0.1-0.2,0-0.5,0-0.7
			c0-0.5-0.3-1.3-0.1-1.6c1-1.2,1.8-2.7,3.5-3.2c0.7-0.2,1.4-0.5,2.1-0.7c0,0,0.1,0.1,0.1,0.1c0.4,1.6,0.4,1.6-1.4,1.8
			c-0.1,0-0.2,0.1-0.3,0.1c0.2,0.7,0.4,1.3,0.5,2c0,0.2-0.3,0.5-0.4,0.7c0.1,0.2,0.5,0.5,0.5,0.8c0,0.5-0.5,0.5-0.9,0.5
			c-0.4,0-0.8,0.1-1.3,0.2c0.6,0.1,1.2,0.1,1.7,0.2c0.2,0.1,0.4,0.4,0.6,0.5c-0.2,0.2-0.4,0.4-0.7,0.5c-0.5,0.1-1,0-1.6,0.1
			c0.4,0.1,0.8,0.3,1.1,0.4c0.4,0.1,0.8,0.3,0.6,0.8c-0.2,0.5-0.6,0.3-1,0.2c-0.1,0-0.2-0.1-0.4-0.1c0.1,0.5,1,0.7,0.5,1.3
			c-0.1,0.2-0.6,0.2-0.9,0.3c0,0.4,0.1,0.9-0.7,0.8c-0.1,0-0.2,0-0.2,0c-0.1,0.8-0.9,0.5-1.4,0.9c-0.6,0.4-1.4,0.5-2,0.8
			c-0.5,0.3-1,0.8-1.4,1.3c1,0,1.9,0.5,2.9,0.2c0.2-0.1,0.4,0.2,0.7,0.3c0.5-0.4,0.7-0.4,1.1,0.1c0.6-0.7,0.7-0.7,1.3-0.1
			c0.6-0.7,0.8-0.7,1.3-0.1c0.6-0.8,0.7-0.8,1.4-0.2c0.5-0.8,0.6-0.8,1.4-0.3c0.3-0.6,0.7-0.8,1.3-0.2c0.3-0.5,0.7-0.9,1-0.6
			c0.5-0.1,0.9-0.1,1.3-0.2c0.1,0,0.2-0.1,0.3-0.2c0.2-0.1,0.4-0.2,0.8-0.3c0,1.4,0,2.7,0,3.9c0,0.2-0.2,0.4-0.4,0.4
			c-0.8,0.1-1.6,0-2.3,0.4c-0.6,0.3-1.2-0.1-1.7,0.4c-0.1,0.1-0.6-0.1-0.9-0.1c-0.3,0.6-0.7,0.7-1.2,0c-0.5,0.8-0.7,0.8-1.3,0.2
			c-0.6,0.7-0.8,0.7-1.3,0.2c-0.6,0.7-0.8,0.7-1.3,0.1c-0.8,0.7-0.8,0.7-1.4,0.1c-0.4,0.6-0.8,0.7-1.3,0.1
			C226.6,99,226.5,99,225.9,98.7z"/>
		<polygon fill="#E74C3C" points="248.4,77 247.5,80.6 247.1,87.9 256.6,89.9 266.7,89.7 268.3,83.7 268,80.6 267.1,77 263.9,74 
			251.6,73.8 		"/>
		<circle fill="#3498DB" cx="299.1" cy="20.2" r="20.2"/>
		<g>
			<defs>
				<circle id="SVGID_11_" cx="299.1" cy="20.2" r="20.2"/>
			</defs>
			<clipPath id="SVGID_12_">
				<use xlink:href="#SVGID_11_"  overflow="visible"/>
			</clipPath>
			<rect x="299.1" y="-4.8" opacity="0.15" clip-path="url(#SVGID_12_)" fill="#231F20" width="26.3" height="49.5"/>
		</g>
		<path fill="#FFFFFF" d="M290.5,32c-0.5,0-1-0.2-1.4-0.6l-0.7-0.7c-0.7-0.7-1.1-1.8-1.1-3.1c0-3.5,2.6-8.3,6.7-12.5
			c4.2-4.2,9-6.7,12.5-6.7c1.3,0,2.4,0.4,3.1,1.1l0.7,0.7c0.4,0.4,0.6,0.9,0.6,1.4c0,0.5-0.2,1-0.6,1.4l-2.8,2.8
			c-0.4,0.4-0.9,0.6-1.4,0.6l0,0c-0.5,0-1.1-0.2-1.4-0.6l-0.7-0.7c-0.4-0.4-0.9-0.6-1.4-0.6c-1,0-2.8,0.6-5.6,3.4
			c-2.3,2.2-3.4,4.1-3.4,5.6c0,0.6,0.2,1.1,0.6,1.5l0.7,0.7c0.4,0.4,0.6,0.9,0.6,1.4s-0.2,1-0.6,1.4l-2.8,2.8
			C291.5,31.8,291,32,290.5,32z"/>
		<path fill="#C0392B" d="M269.4,75.8c0.2-0.4,0.3-0.7,0.6-1.2c-0.8-0.2-1.6-0.4-2.4-0.6c0-0.8,0-1.6,0-2.4c0-1-0.4-1.5-1.3-1.6
			c-1.2-0.2-1.9,0.2-2.1,1.2c-0.2,0.7-0.3,1.5-0.5,2.3c-0.5-0.1-1-0.2-1.5-0.3c-2.9-1-5.8-1-8.7,0c-0.1,0-0.2,0.1-0.3,0.1
			c-0.4,0-0.8,0-1.2,0c-0.2-0.8-0.3-1.5-0.5-2.3c-0.2-0.9-0.9-1.3-2.1-1.1c-0.7,0.1-1.3,0.5-1.2,1.5c0,0.6,0,1.2,0,1.8
			c0,0.4-0.1,0.6-0.6,0.6c-0.4,0-0.7,0.1-1.1,0.2c-0.4,0.1-0.8,0.2-1.2,0.3c0.2,0.4,0.4,0.8,0.7,1.3c-3.4,0.9-12,3.2-12.2,3.3
			c-0.7-2.7,1.2-5.8,3.9-6.9c3.3-1.3,6.7-2.4,10.3-3c2.5-0.4,5-0.6,7.5-0.7c1.4-0.1,2.8,0,4.2,0c5.8,0.1,11.5,1.2,16.9,3.4
			c1,0.4,2.1,0.9,3,1.5c1.7,1.4,2.4,3.4,2.1,5.7C278.2,78.2,269.6,75.9,269.4,75.8z"/>
		<ellipse fill="#7F8C8D" cx="257.8" cy="80.7" rx="9.8" ry="7.6"/>
		<path fill="#FFFFFF" d="M261.4,83.1c0.7,0.7,1.7,1,3.8,1c-0.3,0.4-0.6,0.7-0.9,0.9c-2.3,1.8-4.9,2.4-7.8,2.1c-2.1-0.2-4-1-5.5-2.4
			c-2.3-2.1-2.6-5.3-0.3-7.7c1.6-1.7,3.7-2.5,6.1-2.8c2.5-0.2,4.8,0.3,6.9,1.7c1.8,1.2,2.9,2.8,2.8,5c0,0.6-0.2,1.2-0.4,1.7
			c-0.2,0.6-0.9,0.5-1.4,0.5c-0.8,0.1-1.6-0.1-2.5-0.1C261.9,83,261.6,83.1,261.4,83.1z"/>
		<path fill="#7F8C8D" d="M257.9,83.2c1,0.1,1.9-0.2,2.8-0.7c2-1.2,2.2-3.2,0.4-4.7c-1.8-1.5-5.2-1.3-6.9,0.2
			c-1.2,1.1-1.2,2.7,0,3.9C255.2,82.9,256.4,83.3,257.9,83.2z"/>
		<path fill="#ECF0F1" d="M257.8,81.7c0.5,0,1-0.1,1.4-0.4c1-0.6,1.1-1.6,0.2-2.4c-0.9-0.7-2.6-0.7-3.5,0.1c-0.6,0.6-0.6,1.4,0,2
			C256.5,81.5,257.1,81.7,257.8,81.7z"/>
		<g>
			<path fill="#231F20" d="M257.6,76.4c0.7,0,1.3-0.4,1.3-0.9c0-0.5-0.6-1-1.3-1c-0.6,0-1.3,0.5-1.3,1
				C256.3,76,256.9,76.4,257.6,76.4z"/>
			<path fill="#231F20" d="M251.3,80.2c0.7,0,1.3-0.4,1.3-0.9c0-0.5-0.6-1-1.3-1c-0.7,0-1.3,0.4-1.3,0.9
				C250,79.8,250.5,80.2,251.3,80.2z"/>
			<path fill="#231F20" d="M254.8,76.9c0.7,0,1.3-0.4,1.3-0.9c0-0.5-0.6-1-1.2-1c-0.6,0-1.3,0.5-1.3,1
				C253.6,76.5,254,76.9,254.8,76.9z"/>
			<path fill="#231F20" d="M260.5,76.9c0.8,0,1.2-0.4,1.2-1c0-0.5-0.6-1-1.2-0.9c-0.7,0-1.3,0.5-1.3,1
				C259.2,76.5,259.8,76.9,260.5,76.9z"/>
			<path fill="#231F20" d="M253.8,77.3c0-0.5-0.5-0.9-1.3-0.9c-0.8,0-1.2,0.3-1.3,0.9c0,0.5,0.5,1,1.2,1
				C253.2,78.3,253.8,77.9,253.8,77.3z"/>
			<path fill="#231F20" d="M251.3,82.4c0.7,0,1.3-0.5,1.2-1c0-0.5-0.7-1-1.3-0.9c-0.7,0-1.2,0.5-1.2,1
				C250.1,82.1,250.6,82.4,251.3,82.4z"/>
			<path fill="#231F20" d="M251.3,83.4c0,0.5,0.6,1,1.2,1c0.6,0,1.3-0.5,1.3-0.9c0-0.6-0.5-1-1.2-1
				C251.8,82.5,251.3,82.8,251.3,83.4z"/>
			<path fill="#231F20" d="M254.7,83.8c-0.6,0-1.2,0.5-1.2,1c0,0.5,0.6,0.9,1.2,0.9c0.8,0,1.4-0.4,1.3-0.9
				C256.1,84.2,255.5,83.8,254.7,83.8z"/>
			<path fill="#231F20" d="M260.5,85.8c0.7,0,1.2-0.4,1.2-1c0-0.6-0.5-1-1.2-0.9c-0.7,0-1.3,0.5-1.3,1
				C259.2,85.3,259.8,85.8,260.5,85.8z"/>
			<path fill="#231F20" d="M257.7,86.2c0.7,0,1.3-0.5,1.3-1c0-0.5-0.6-1-1.4-1c-0.6,0-1.1,0.4-1.1,0.9
				C256.4,85.8,256.9,86.2,257.7,86.2z"/>
		</g>
		<path fill="#E74C3C" d="M241.5,90.3c2-3.2,4-6.4,6-9.7c0.2,1.6,0.6,2.9,1.3,4.2c1.2,2.1,3,3.3,5.3,4c3.4,1.1,6.7,0.8,9.8-1.1
			c2.4-1.4,3.7-3.4,4.2-7.2c2.1,3.3,4,6.5,6.1,9.7C263.2,90.3,252.4,90.3,241.5,90.3z"/>
		<g>
			<path fill="#E74C3C" d="M281.4,78.7c-3.9-1.1-7.8-2.1-11.8-3.2c-0.6-0.1-0.9,0-1,0.6c-0.2,0.6-0.3,1.1-0.5,1.7
				c-0.2,0.7,0,1,0.7,1.2c2.4,0.7,4.8,1.3,7.2,2c1.4,0.4,2.8,0.8,4.2,1.1c0.4,0.1,0.9,0.3,1.2-0.3c0.3-0.8,0.5-1.6,0.7-2.5
				C281.9,79.1,281.7,78.8,281.4,78.7z"/>
			<path fill="#E74C3C" d="M246.7,76.1c-0.1-0.5-0.4-0.7-1-0.6c-1.3,0.4-2.6,0.7-3.9,1c-2.6,0.7-5.2,1.4-7.8,2.1
				c-0.5,0.1-0.8,0.4-0.7,0.9c0.2,0.7,0.3,1.4,0.6,2c0.1,0.3,0.4,0.4,0.6,0.6c0.4-0.1,0.6-0.1,0.8-0.2c1.1-0.3,2.3-0.6,3.4-0.9
				c2.7-0.7,5.4-1.4,8-2.1c0.5-0.1,0.8-0.4,0.6-1.1C247,77.4,246.9,76.7,246.7,76.1z"/>
		</g>
		<path fill="#E74C3C" d="M248.4,77c0-1.7,0-3.6,0-5.5c0-0.7,0.3-1,1-1c1.4,0,1.4,0,1.7,1.4c0.2,0.7,0.3,1.3,0.4,2
			c0,0.2,0,0.4-0.2,0.5C250.4,75.3,249.4,76.1,248.4,77z"/>
		<path fill="#E74C3C" d="M263.9,74c0.2-0.8,0.4-1.8,0.6-2.7c0.2-0.8,0.6-0.9,1.8-0.7c0.6,0.1,0.7,0.5,0.7,1.1c0,1.8,0,3.7,0,5.4
			C266.1,76.1,265.1,75.1,263.9,74z"/>
		<path fill="#7F8C8D" d="M244.9,98.9c0.1,0.8-0.4,1-1,1c-1.2,0.1-2.3,0.1-3.5,0c-0.6,0-1-0.3-1.1-1.1
			C241.2,98.9,243,98.9,244.9,98.9z"/>
		<path fill="#7F8C8D" d="M276.2,98.9c0.1,0.8-0.4,1-1,1c-1.2,0.1-2.3,0.1-3.5,0c-0.6,0-1-0.3-1.1-1.1
			C272.6,98.9,274.4,98.9,276.2,98.9z"/>
		<path fill="#C0392B" d="M239,92.7c0,3,0,4,0,6c12,0,26,0,37,0c0-2,0-3,0-6C265,92.7,251,92.7,239,92.7z"/>
		<path fill="#F1948A" d="M239.4,92.4L239.4,92.4c0-1.2,1-2.2,2.2-2.2h32.5c1.2,0,2.2,1,2.2,2.2l0,0H239.4z"/>
	</g>
</g>
<g>
	<rect x="330.3" y="0" fill="#FFFFFF" width="100" height="100"/>
	<g>
		<path fill="#ECF0F1" d="M399.7,0c-17.1,0-30.9,10.9-30.9,24.5c0,8,4.9,15.2,12.5,19.6c-0.7,4.1-3.1,8.8-6.4,12.1
			c8.1-0.6,15.1-2.9,19.8-7.7c1.6,0.2,3.3,0.3,5,0.3c17.1,0,30.9-10.9,30.9-24.5C430.6,10.9,416.8,0,399.7,0z"/>
		<circle fill="#95A5A6" cx="385.2" cy="24.5" r="4.8"/>
		<circle fill="#95A5A6" cx="399.7" cy="24.5" r="4.8"/>
		<circle fill="#95A5A6" cx="414.2" cy="24.5" r="4.8"/>
		<path fill="#2980B9" d="M393.7,80.7c-9.8-7.9-12.5-4-17,0.4c-3.1,3.1-11-3.4-17.7-10.2c-6.8-6.8-13.3-14.6-10.2-17.7
			c4.4-4.4,8.3-7.2,0.4-17c-7.9-9.8-13.1-2.3-17.4,2c-5,5-0.3,23.5,18,41.8c18.3,18.3,36.8,23,41.8,18
			C396,93.8,403.5,88.6,393.7,80.7z"/>
		<path fill="#3498DB" d="M342.2,41.6c-0.1,0.1-0.3,0.1-0.6,0.2c-0.5,0.2-1,0.4-1.6,0.7c-0.3,0.1-0.6,0.3-0.9,0.5
			c-0.3,0.2-0.6,0.4-0.9,0.6c-0.3,0.2-0.5,0.6-0.8,0.9c-0.2,0.4-0.5,0.7-0.6,1.2c-0.2,0.4-0.3,0.9-0.4,1.4c-0.1,0.5-0.1,1-0.2,1.5
			c0,1,0,1.9,0.2,2.7c0.1,0.8,0.3,1.5,0.4,2c0.1,0.5,0.2,0.8,0.2,0.8s-0.1-0.2-0.4-0.7c-0.2-0.4-0.7-1-1-1.8
			c-0.4-0.8-0.8-1.7-1.2-2.8c-0.1-0.5-0.3-1.1-0.4-1.7c-0.1-0.6-0.2-1.3-0.1-1.9c0-0.7,0.1-1.3,0.2-2c0.2-0.7,0.4-1.3,0.7-1.9
			c0.3-0.6,0.7-1.2,1-1.6c0.4-0.5,0.8-0.9,1.1-1.3c0.7-0.7,1.4-1.2,1.7-1.5c0.2-0.2,0.3-0.3,0.4-0.4c0.1-0.1,0.1-0.1,0.1-0.1
			l3.4,5.3C342.4,41.5,342.4,41.5,342.2,41.6z"/>
		<path fill="#3498DB" d="M392.6,91.5c-0.3,0.4-0.8,1-1.5,1.8c-0.4,0.4-0.8,0.7-1.2,1.1c-0.4,0.4-1,0.7-1.6,1
			c-0.6,0.3-1.2,0.6-1.8,0.8c-0.6,0.2-1.3,0.4-1.9,0.4l-1,0.1l-0.9-0.1c-0.6,0-1.2-0.2-1.7-0.3c-0.6-0.1-1.1-0.3-1.5-0.4
			c-0.5-0.1-0.9-0.4-1.3-0.5c-0.8-0.3-1.4-0.7-1.8-0.9c-0.4-0.2-0.7-0.4-0.7-0.4s0.3,0,0.8,0.1c0.5,0.1,1.2,0.2,2,0.2
			c0.4,0,0.8,0.1,1.3,0c0.5,0,0.9,0,1.4-0.1c0.5-0.1,1-0.1,1.4-0.3l0.7-0.2l0.6-0.3c1.7-0.8,2.6-2.2,3.1-3.4
			c0.3-0.6,0.4-1.2,0.6-1.6c0.2-0.4,0.2-0.7,0.2-0.7l5.4,3C393.1,90.9,393,91.1,392.6,91.5z"/>
		<path fill="#BDC3C7" d="M427.8,14.3c0,30-28.4,31.8-35.8,31.6c-3.2,6.6-16.1,10.1-16.4,10.2c7.8-0.7,14.6-3,19.1-7.6
			c1.6,0.2,3.3,0.3,5,0.3c17.1,0,30.9-10.9,30.9-24.5C430.6,20.8,429.6,17.4,427.8,14.3z"/>
		
			<ellipse transform="matrix(0.7894 -0.6139 0.6139 0.7894 48.7685 221.444)" fill="#BDC3C7" cx="347.1" cy="39.6" rx="3" ry="8.9"/>
		<ellipse transform="matrix(0.596 -0.803 0.803 0.596 90.3304 346.6678)" fill="#BDC3C7" cx="389.7" cy="83.6" rx="3.5" ry="8.9"/>
	</g>
</g>
<g>
	<rect x="440.6" y="0" fill="#FFFFFF" width="100" height="100"/>
	<g>
		<g>
			<path fill="#F1C40F" d="M450.5,64.2c1.5-0.2,2.9-0.4,4.9-0.5c-6.2-1.1-11-6.6-11-13.1c0-0.4,0-0.9,0-1.3c0-0.2,0-0.3,0-0.5
				c0-0.3,0.1-0.5,0.1-0.8c0-0.2,0.1-0.4,0.1-0.5c0.1-0.2,0.1-0.4,0.2-0.7c0.1-0.2,0.1-0.4,0.2-0.6c0.1-0.2,0.1-0.4,0.2-0.6
				c0.1-0.2,0.2-0.4,0.3-0.6c0.1-0.2,0.1-0.3,0.2-0.5c0.1-0.2,0.2-0.4,0.3-0.6c0.1-0.1,0.2-0.2,0.2-0.4c0.1-0.2,0.3-0.4,0.4-0.7
				c0.1-0.1,0.4-0.2,0.5-0.3c0.2-0.2,0.8-0.5,0.8-0.7v6.6h9.6H468V42c0,0.2,0.2,0.4,0.4,0.7c0.1,0.1,0.1,0.2,0.1,0.3
				c0.1,0.2,0.3,0.4,0.4,0.7c0.1,0.1,0.1,0.2,0.2,0.4c0.1,0.2,0.2,0.4,0.3,0.6c0.1,0.2,0.1,0.3,0.2,0.5c0.1,0.2,0.2,0.4,0.3,0.6
				c0.1,0.2,0.1,0.4,0.2,0.6c0.1,0.2,0.1,0.4,0.2,0.6c0.1,0.2,0.1,0.4,0.2,0.7c0,0.2,0.1,0.4,0.1,0.5c0.1,0.3,0.1,0.5,0.1,0.8
				c0,0.2,0,0.3,0.1,0.5c0,0.4,0.1,0.9,0.1,1.3c0,6.5-4.7,11.9-10.9,13.1c2,0.1,4.1,0.3,5.6,0.5c6.6,1.1,8.4,3.5,8.4,3.5V50.6
				c0-8.6-6.9-15.6-15.5-15.6c-8.6,0-15.5,7-15.5,15.6v17.1C443,67.7,443.8,65.3,450.5,64.2z"/>
			<path fill="none" stroke="#FCD07A" stroke-width="0" stroke-linecap="round" stroke-linejoin="round" d="M444.5,48
				c0-0.2,0.1-0.4,0.1-0.5"/>
			<path fill="none" stroke="#FCD07A" stroke-width="0" stroke-linecap="round" stroke-linejoin="round" d="M444.3,49.3
				c0-0.2,0-0.3,0.1-0.5"/>
			<path fill="none" stroke="#FCD07A" stroke-width="0" stroke-linecap="round" stroke-linejoin="round" d="M446.2,43.6
				c0.1-0.2,0.3-0.4,0.4-0.7"/>
			<path fill="none" stroke="#FCD07A" stroke-width="0" stroke-linecap="round" stroke-linejoin="round" d="M444.8,46.8
				c0.1-0.2,0.1-0.4,0.2-0.6"/>
			<path fill="none" stroke="#FCD07A" stroke-width="0" stroke-linecap="round" stroke-linejoin="round" d="M445.7,44.6
				c0.1-0.2,0.2-0.4,0.3-0.6"/>
			<path fill="none" stroke="#FCD07A" stroke-width="0" stroke-linecap="round" stroke-linejoin="round" d="M445.2,45.7
				c0.1-0.2,0.2-0.4,0.3-0.6"/>
			<path fill="#FFEEDD" d="M440.6,82.7h6.4V68.6C443,72,440.6,77.7,440.6,82.7z"/>
			<path fill="#FFEEDD" d="M457.6,71.8c2.9,0,5.5-1.4,7-3.6c0.4-0.6,0.8-1.3,1-2.1c-2.4-1.4-5.1-2.2-8-2.2c-2.9,0-5.6,0.8-8,2.2
				c0.2,0.7,0.6,1.4,1,2.1C452.1,70.4,454.6,71.8,457.6,71.8z"/>
			<path fill="#FFEEDD" d="M470.9,50.6c0-0.4,0-0.9-0.1-1.3c0-0.2,0-0.3-0.1-0.5c0-0.3-0.1-0.5-0.1-0.8c0-0.2-0.1-0.4-0.1-0.5
				c-0.1-0.2-0.1-0.4-0.2-0.7c-0.1-0.2-0.1-0.4-0.2-0.6c-0.1-0.2-0.1-0.4-0.2-0.6c-0.1-0.2-0.2-0.4-0.3-0.6
				c-0.1-0.2-0.1-0.3-0.2-0.5c-0.1-0.2-0.2-0.4-0.3-0.6c-0.1-0.1-0.2-0.2-0.2-0.4c-0.1-0.2-0.3-0.4-0.4-0.7c-0.1-0.1,0-0.2-0.1-0.3
				c-0.2-0.2-0.4-0.5-0.4-0.7v6.6h-10.4H448V42c0,0.2-0.7,0.4-0.8,0.7c-0.1,0.1-0.3,0.2-0.3,0.3c-0.1,0.2-0.4,0.4-0.5,0.7
				c-0.1,0.1-0.2,0.2-0.3,0.4c-0.1,0.2-0.2,0.4-0.4,0.6c-0.1,0.2-0.2,0.3-0.2,0.5c-0.1,0.2-0.2,0.4-0.3,0.6
				c-0.1,0.2-0.1,0.4-0.2,0.6c-0.1,0.2-0.1,0.4-0.2,0.6c-0.1,0.2-0.1,0.4-0.2,0.7c0,0.2-0.1,0.4-0.1,0.5c-0.1,0.3-0.1,0.5-0.1,0.8
				c0,0.2,0,0.3-0.1,0.5c0,0.4-0.1,0.9-0.1,1.3c0,6.5,4.7,11.9,10.9,13.1c0.8,0.1,1.6,0.2,2.4,0.2c0.8,0,1.6-0.1,2.4-0.2
				C466.2,62.5,470.9,57.1,470.9,50.6z"/>
			<path fill="none" stroke="#FCD07A" stroke-width="0" stroke-linecap="round" stroke-linejoin="round" d="M470.6,48
				c0-0.2-0.1-0.4-0.1-0.5"/>
			<path fill="none" stroke="#FCD07A" stroke-width="0" stroke-linecap="round" stroke-linejoin="round" d="M470.8,49.3
				c0-0.2,0-0.3-0.1-0.5"/>
			<path fill="none" stroke="#FCD07A" stroke-width="0" stroke-linecap="round" stroke-linejoin="round" d="M468.9,43.6
				c-0.1-0.2-0.3-0.4-0.4-0.7"/>
			<path fill="none" stroke="#FCD07A" stroke-width="0" stroke-linecap="round" stroke-linejoin="round" d="M470.3,46.8
				c-0.1-0.2-0.1-0.4-0.2-0.6"/>
			<path fill="none" stroke="#FCD07A" stroke-width="0" stroke-linecap="round" stroke-linejoin="round" d="M469.5,44.6
				c-0.1-0.2-0.2-0.4-0.3-0.6"/>
			<path fill="none" stroke="#FCD07A" stroke-width="0" stroke-linecap="round" stroke-linejoin="round" d="M470,45.7
				c-0.1-0.2-0.2-0.4-0.3-0.6"/>
			<path fill="#FFEEDD" d="M469,68.6v14.1h5.5C474.5,77.7,472,72,469,68.6z"/>
			<path fill="#9B59B6" d="M468.5,68.2c-0.9-0.8-1.9-1.5-2.9-2.1c-0.2,0.7-0.6,1.4-1,2.1c-1.5,2.2-4.1,3.6-7,3.6
				c-2.9,0-5.5-1.4-7-3.6c-0.4-0.6-0.8-1.3-1-2.1c-1,0.6-1.6,1.3-2.5,2.1c-0.1,0.1-0.1,0.3-0.1,0.4v14.1h10.6H469V68.6
				C469,68.5,468.6,68.3,468.5,68.2z"/>
		</g>
		<g>
			<ellipse fill="#FFEEDD" cx="522.8" cy="48.1" rx="14.1" ry="13.7"/>
			<path fill="none" d="M521.7,46.4c0,0,0,0.2,0,0.2c-0.5-1.8-2.2-2.9-4.1-2.9c0,0,0,0,0,0C519.5,43.7,521.2,44.6,521.7,46.4z"/>
			<path fill="none" d="M513.2,47.8c0,0,0-0.3,0-0.4c0,0,0,0.5,0,0.5c0,2.4,1.9,4.8,4.3,4.8h0C515.2,52.7,513.2,50.2,513.2,47.8z"/>
			<path fill="none" d="M522.3,47.2C522.3,47.2,522.3,47.3,522.3,47.2C522.3,47.3,522.3,47.2,522.3,47.2c0.1,0,0.1,0,0.2,0
				C522.5,47.2,522.4,47.2,522.3,47.2z"/>
			<path fill="none" d="M522.6,45.8c-0.1,0-0.4,0-0.5,0c0,0-0.1,0-0.1,0c0,0,0.1,0,0.1,0C522.2,45.8,522.4,45.8,522.6,45.8z"/>
			<path fill="none" d="M528.1,43.7C528.1,43.7,528.1,43.7,528.1,43.7c-2,0-3.6,0.9-4.2,2.7c0,0,0,0.2,0,0.2
				C524.5,44.8,526.1,43.7,528.1,43.7z"/>
			<path fill="none" d="M523.1,47.2c0,0,0.1,0,0.1,0c0,0,0,0,0,0c0,0,0,0,0,0C523.2,47.2,523.2,47.2,523.1,47.2z"/>
			<path fill="none" d="M523.5,45.9C523.5,45.9,523.5,45.9,523.5,45.9c-0.2,0-0.3,0-0.6,0C523.2,45.8,523.3,45.8,523.5,45.9
				C523.5,45.9,523.5,45.9,523.5,45.9z"/>
			<path fill="none" d="M532.4,47.8c0,0,0-0.3,0-0.4c0,0,0,0.5,0,0.5c0,2.4-1.9,4.8-4.3,4.8h0C530.5,52.7,532.4,50.2,532.4,47.8z"/>
			<path fill="#FFFFFF" d="M528.1,44.3c-1.6,0-2.9,1.3-2.9,2.9s1.3,2.9,2.9,2.9c1.6,0,2.9-1.3,2.9-2.9S529.7,44.3,528.1,44.3z"/>
			<path fill="#002738" d="M536.7,49.9C536.7,49.9,536.7,49.9,536.7,49.9C536.7,49.9,536.8,49.9,536.7,49.9c0.1-0.5,0.1-1,0.1-1.5
				c0-3.4-1.2-6.5-3.2-8.9c-1.2,0.5-1.6,3.1-0.9,5.9c0.7,2.8,2.2,4.8,3.4,4.8c0.1,0,0.2,0,0.2,0C536.5,50,536.6,50,536.7,49.9z"/>
			<path fill="#F39C12" d="M533.2,66.1l-10.5,10.4l-10.4-10.4c-4.5,3.6-7.4,9.4-7.4,16.1l17.8-0.1l17.9,0.1
				C540.6,75.5,537.7,69.7,533.2,66.1z"/>
			<path fill="#D35400" d="M533.3,66.1c-0.8-0.6-1.6-1.2-2.5-1.6l-8,8l-8-8c-0.8,0.5-1.6,1-2.3,1.6l-0.1,0l10.4,10.4L533.3,66.1
				L533.3,66.1z"/>
			<path fill="#FFFFFF" d="M530.8,64.5c-0.3-0.2-0.5-0.3-0.8-0.5c-1.9,3.9-7.2,5.9-7.2,5.9s-5.1-2-7.1-5.9c-0.3,0.1-0.6,0.3-0.9,0.4
				l0,0l8,8L530.8,64.5z"/>
			<path fill="#FFFFFF" d="M520.5,47.2c0-1.6-1.3-2.9-2.9-2.9c-1.6,0-2.9,1.3-2.9,2.9s1.3,2.9,2.9,2.9
				C519.2,50.1,520.5,48.8,520.5,47.2z"/>
			<path fill="#002738" d="M512.9,45.3c0.7-2.8,0.3-5.3-0.9-5.9c0,0,0,0,0,0c-2,2.4-3.2,5.5-3.2,8.9c0,0.5,0,1,0.1,1.5
				c0.1,0.1,0.2,0.1,0.3,0.1c0.1,0,0.2,0,0.2,0C510.8,50.1,512.3,48.1,512.9,45.3z"/>
			<path fill="#002738" d="M522.7,69.9c0,0,5.2-2,7.2-5.9c0.4-0.9,0.7-1.9,0.7-3c0-0.4-0.1-0.7-0.1-1c-0.3-5.2-3.3-7.3-7.8-7.3
				c-4.2,0-7.4,2.1-7.7,7.3c0,0.3,0,0.7,0,1c0,1.1,0.2,2.1,0.7,3c0,0,0,0,0,0C517.6,67.9,522.7,69.9,522.7,69.9z M522.7,56.7h3.8
				c0,3-1.7,3.7-3.8,3.7c-1.8,0-3.6-0.7-3.6-3.7H522.7z"/>
			<path fill="#FFEEDD" d="M522.7,60.4c2.1,0,3.8-0.7,3.8-3.7h-3.8h-3.6C519.2,59.7,521,60.4,522.7,60.4z"/>
			<path fill="#0584C7" d="M532.4,47.2C532.4,47.2,532.4,47.2,532.4,47.2c-0.1-2.4-2-4.3-4.3-4.3c-2,0-3.6,1.3-4.1,3.1c0,0,0,0,0,0
				c0,0,0,0,0,0c-0.1,0-0.3-0.1-0.4-0.1c0,0,0,0,0,0c-0.2,0-0.3,0-0.5,0c-0.1,0-0.2,0-0.2,0c0,0-0.1,0-0.1,0c-0.1,0-0.4,0-0.5,0
				c0,0-0.1,0-0.1,0c-0.1,0-0.1,0-0.2,0.1c0,0,0,0.4,0,0.4c-0.5-1.8-2.2-2.7-4.1-2.7h0c-2.4,0-4.3,1.5-4.3,3.9c0,0,0,0.4,0,0.4
				c0,2.4,1.9,4.7,4.3,4.7c0,0,0,0,0,0c2.3,0,4.2-2.4,4.3-4.6c0.1-0.1,0.2-0.5,0.4-0.5c0,0,0-0.1,0-0.1c0.1,0,0.1-0.1,0.2-0.1
				c0.1,0,0.2,0,0.2,0c0.2,0,0.3,0,0.4,0c0,0,0.1,0,0.1,0c0,0,0,0,0,0c0.2,0.1,0.4,0.2,0.5,0.2c0.1,2.3,2,4.1,4.3,4.1
				C530.5,51.6,532.4,49.6,532.4,47.2z M514.7,47.2c0-1.6,1.3-2.9,2.9-2.9c1.6,0,2.9,1.3,2.9,2.9s-1.3,2.9-2.9,2.9
				C516,50.1,514.7,48.8,514.7,47.2z M528.1,50.1c-1.6,0-2.9-1.3-2.9-2.9s1.3-2.9,2.9-2.9c1.6,0,2.9,1.3,2.9,2.9
				S529.7,50.1,528.1,50.1z"/>
		</g>
		<g>
			<path fill="#FFA033" d="M491.1,17.8L491.1,17.8c0,0,0.1,0,0.1,0H491.1z"/>
			<path fill="#FFA033" d="M491.2,17.8c0,0-0.1,0-0.1,0v0.7C491.1,18.3,491.2,18.1,491.2,17.8z"/>
			<path fill="#ECF0F1" d="M486.9,64.5c-0.7,1.1-1.3,2.5-1.4,4.2l-8.4-8.2l8.8,21.5l2.8-14L486.9,64.5z"/>
			<path fill="#BDC3C7" d="M487.3,64.5c1.5-2.4,3.7-3.4,4.7-3.6v-0.1l-7.4-4.2c-2.5,0.9-5.1,2.2-7.2,3.9l8.5,8.2
				C486,67,486.6,65.6,487.3,64.5z"/>
			<path fill="#34495E" d="M467.2,82.7h18.7l-8.8-21.5C471.1,66,467.2,73.7,467.2,82.7z"/>
			<path fill="#E67E22" d="M480.6,30.1c4.3-0.8,10.4-4.2,11.4-11.6v-0.7c-11,0.1-18.9,8.4-18.9,18.8
				C473.1,36.6,476.1,30.9,480.6,30.1z"/>
			<path fill="#FFA033" d="M491.1,55.4L491.1,55.4c0,0,0.1,0,0.1,0C491.2,55.4,491.1,55.4,491.1,55.4z"/>
			<path fill="#FFE2C5" d="M491.2,60.8l7.1-4.2c-2.2-0.8-4.6-1.2-7.1-1.2c0,0-0.1,0-0.1,0c-2.4,0-4.8,0.4-7,1.2l7,4.2L491.2,60.8z"
				/>
			<path fill="#ECF0F1" d="M496.9,68.7c-0.1-1.7-0.7-3.1-1.4-4.2l-1.9,3.5l2.8,14l8.8-21.5L496.9,68.7z"/>
			<path fill="#3498DB" d="M495.5,64.5c-1.7-2.7-4.3-3.7-4.3-3.7s0,0-0.1,0c-0.5,0.2-2.7,1.3-4.2,3.6l1.9,3.9l-2.8,14.3h5.2h5.4
				l-2.8-14.3L495.5,64.5z"/>
			<path fill="#FFA033" d="M491.1,60.9c0.1,0,0.1,0,0.1,0l-0.1-0.1V60.9z"/>
			<path fill="#BDC3C7" d="M495.5,64.5c0.7,1.1,1.3,2.5,1.4,4.2l8.4-8.2c-2.1-1.7-4.5-3-7-3.9l-7.1,4.2
				C491.2,60.8,493.8,61.8,495.5,64.5z"/>
			<path fill="#34495E" d="M505.3,61.2l-8.8,21.5h18.7C515.2,73.7,511.3,66,505.3,61.2z"/>
			<path fill="#FFE2C5" d="M510,36.6c0,0-3.3-5.7-7.7-6.5c-4.4-0.8-10.3-4.4-11.1-12.3c0,0.2-0.1,0.5-0.1,0.7
				c-1.1,7.4-6.7,10.8-11,11.6c-4.4,0.8-7.7,6.5-7.7,6.5c0,10.3,8.4,18.7,18.7,18.8c0,0,0.1,0,0.1,0C501.6,55.4,510,47,510,36.6z"/>
			<path fill="#E67E22" d="M502.3,30.1c4.4,0.8,7.7,6.5,7.7,6.5c0-10.4-8.4-18.8-18.8-18.8C492,25.7,497.9,29.3,502.3,30.1z"/>
			<path fill="#34495E" d="M498.2,32.7c-2.7,0-5,1.8-5.6,4.3c-0.8-0.4-1.6-0.5-2.4-0.3c-0.2,0-0.3,0.1-0.5,0.1
				c-0.7-2.4-2.9-4.1-5.6-4.1c-3.2,0-5.8,2.6-5.8,5.8c0,3.2,2.6,5.8,5.8,5.8c3.1,0,5.6-2.4,5.8-5.5c0.1-0.1,0.3-0.3,0.6-0.3
				c0.5-0.1,1.1,0.1,1.8,0.5c0.3,3,2.8,5.3,5.8,5.3c3.2,0,5.8-2.6,5.8-5.8C504.1,35.3,501.5,32.7,498.2,32.7z M484.2,42.5
				c-2.2,0-3.9-1.8-3.9-3.9c0-2.2,1.8-3.9,3.9-3.9c2.2,0,3.9,1.8,3.9,3.9C488.1,40.7,486.3,42.5,484.2,42.5z M498.2,42.5
				c-2.2,0-3.9-1.8-3.9-3.9c0-2.2,1.8-3.9,3.9-3.9c2.2,0,3.9,1.8,3.9,3.9C502.2,40.7,500.4,42.5,498.2,42.5z"/>
		</g>
	</g>
</g>
<g>
	<rect x="550.6" y="0" fill="#FFFFFF" width="100" height="100"/>
	<g>
		<g>
			
				<rect x="623.7" y="54.3" transform="matrix(0.387 0.9221 -0.9221 0.387 437.7504 -548.1821)" fill="#BDC3C7" width="15" height="1.7"/>
			
				<rect x="630" y="54.3" transform="matrix(-0.387 0.9221 -0.9221 -0.387 934.9798 -511.3596)" fill="#BDC3C7" width="15" height="1.7"/>
		</g>
		<line fill="#FFFFFF" stroke="#7F8C8D" stroke-width="2" stroke-miterlimit="10" x1="598" y1="31.7" x2="598" y2="71.7"/>
		<line fill="#FFFFFF" stroke="#7F8C8D" stroke-width="2" stroke-miterlimit="10" x1="598.7" y1="31" x2="628.1" y2="58.7"/>
		<line fill="#FFFFFF" stroke="#7F8C8D" stroke-width="2" stroke-miterlimit="10" x1="597.8" y1="31" x2="568.4" y2="58.7"/>
		<g>
			<circle fill="#3498DB" cx="597.8" cy="18.6" r="18.6"/>
			<g>
				<defs>
					<circle id="SVGID_13_" cx="597.8" cy="18.6" r="18.6"/>
				</defs>
				<clipPath id="SVGID_14_">
					<use xlink:href="#SVGID_13_"  overflow="visible"/>
				</clipPath>
				<rect x="597.8" y="-4.4" opacity="0.15" clip-path="url(#SVGID_14_)" fill="#231F20" width="24.2" height="45.7"/>
			</g>
			<path fill="#FFFFFF" d="M589.9,29.5c-0.5,0-1-0.2-1.3-0.5l-0.7-0.6c-0.7-0.7-1-1.6-1-2.8c0-3.3,2.4-7.7,6.2-11.5
				c3.8-3.8,8.3-6.2,11.5-6.2c1.2,0,2.2,0.4,2.8,1l0.7,0.7c0.3,0.3,0.5,0.8,0.5,1.3c0,0.5-0.2,1-0.5,1.3l-2.6,2.6
				c-0.3,0.3-0.8,0.5-1.3,0.5l0,0c-0.5,0-1-0.2-1.3-0.5l-0.7-0.7c-0.3-0.3-0.8-0.5-1.3-0.5c-0.9,0-2.6,0.5-5.2,3.1
				c-2.1,2.1-3.1,3.8-3.1,5.1c0,0.5,0.2,1,0.5,1.4l0.7,0.7c0.3,0.3,0.5,0.8,0.5,1.3c0,0.5-0.2,1-0.5,1.3l-2.6,2.6
				C590.8,29.3,590.4,29.5,589.9,29.5z"/>
		</g>
		<g>
			<rect x="576.8" y="68" fill="#BDC3C7" width="42" height="32"/>
			<rect x="579" y="75.7" fill="#FFFFFF" width="38" height="23"/>
			<rect x="612.8" y="70" fill="#FFFFFF" width="4" height="2"/>
			<rect x="606.8" y="70" fill="#FFFFFF" width="4" height="2"/>
			<rect x="578.8" y="70" fill="#FFFFFF" width="26" height="2"/>
			<rect x="580.8" y="77" fill="#0584C7" width="17.4" height="19"/>
			<rect x="600.7" y="77" fill="#7F8C8D" width="13.3" height="3"/>
			<rect x="600.7" y="82" fill="#7F8C8D" width="13.3" height="3"/>
			<rect x="600.7" y="87" fill="#7F8C8D" width="9.1" height="3"/>
		</g>
		<path fill="#BDC3C7" d="M646.7,56.8c-2.3-0.3-4.8-0.6-7.4-0.7l-3.3-0.1c-0.6,0-1.1,0-1.7,0l0,0L631,56c-3.2,0.1-6.2,0.4-9,0.8
			c-0.7,2.8-1.1,6-1.1,9.3c0,3.3,0.4,6.4,1.1,9.3c3.8,0.5,8,0.8,12.4,0.8s8.6-0.3,12.4-0.8c0.7-2.8,1.1-6,1.1-9.3
			C647.8,62.7,647.4,59.6,646.7,56.8z"/>
		<path fill="#ECF0F1" d="M643.6,72.2c-2.8,0.4-6,0.6-9.3,0.6s-6.4-0.2-9.3-0.6c-0.5-1.9-0.8-4-0.8-6.2c0-2.2,0.3-4.3,0.8-6.2
			c2.8-0.4,6-0.6,9.3-0.6c3.3,0,6.4,0.2,9.3,0.6c0.5,1.9,0.8,4,0.8,6.2C644.4,68.2,644.1,70.3,643.6,72.2z"/>
		<rect x="626.5" y="68" fill="#3498DB" width="16" height="3.5"/>
		<rect x="627" y="61.6" fill="#7F8C8D" width="15" height="1.7"/>
		<rect x="628.3" y="64.2" fill="#7F8C8D" width="12.3" height="1.7"/>
		<path fill="#BDC3C7" d="M554.7,44.5h18.9l-17.1-5.3c-0.3,0.6-0.8,0.9-1.5,0.9c-0.9,0-1.6-0.7-1.6-1.6s0.7-1.6,1.6-1.6
			c0.9,0,1.6,0.7,1.6,1.6l19.2,5.4c0.3-0.3,0.7-0.5,1.2-0.5c0.7,0,1.3,0.5,1.6,1.1c0.7,0.1,1.2,0.6,1.2,1.3v16
			c0,0.8-0.5,1.3-1.3,1.3h-23.7c-0.8,0-1.3-0.5-1.3-1.3v-16C553.4,45.1,554,44.5,554.7,44.5z"/>
		<path fill="#ECF0F1" d="M576.7,61.6h-20.1c-1,0-1.7-0.8-1.7-1.7V47.5c0-1,0.8-1.7,1.7-1.7h20.1c1,0,1.7,0.8,1.7,1.7v12.4
			C578.5,60.9,577.7,61.6,576.7,61.6z"/>
		<path fill="#7F8C8D" d="M562.8,59.9c3.3,0,6-2.7,6-6s-2.7-6-6-6s-6,2.7-6,6S559.5,59.9,562.8,59.9z"/>
		<path fill="#7F8C8D" d="M574.7,52.1c1.1,0,2.1-1,2.1-2.1c0-1.1-1-2.1-2.1-2.1c-1.1,0-2.1,1-2.1,2.1
			C572.5,51.1,573.5,52.1,574.7,52.1z"/>
		<path fill="#7F8C8D" d="M574.7,59.5c1.1,0,2.1-1,2.1-2.1c0-1.1-1-2.1-2.1-2.1c-1.1,0-2.1,1-2.1,2.1
			C572.5,58.5,573.5,59.5,574.7,59.5z"/>
		<g>
			<path fill="#BDC3C7" d="M567.7,53.8c0,0.2,0,0.3-0.1,0.5h-9.8c0-0.2-0.1-0.3-0.1-0.5s0-0.3,0.1-0.5h9.8
				C567.6,53.5,567.7,53.6,567.7,53.8z"/>
			<path fill="#BDC3C7" d="M558.7,51.1c-0.2,0.3-0.4,0.7-0.5,1.1h9.3c-0.1-0.4-0.3-0.8-0.5-1.1H558.7z"/>
			<path fill="#BDC3C7" d="M565.8,57.7h-6.2c0.9,0.7,1.9,1.1,3.1,1.1C564,58.8,565,58.4,565.8,57.7z"/>
			<path fill="#BDC3C7" d="M567.4,55.5H558c0.1,0.4,0.3,0.8,0.5,1.1h8.2C567.1,56.3,567.3,55.9,567.4,55.5z"/>
			<path fill="#BDC3C7" d="M559.7,50h6.2c-0.9-0.7-1.9-1.1-3.1-1.1C561.6,48.9,560.6,49.3,559.7,50z"/>
		</g>
	</g>
</g>
</svg>
