<?xml version="1.0" encoding="utf-8"?>
<!-- Generator: Adobe Illustrator 18.0.0, SVG Export Plug-In . SVG Version: 6.00 Build 0)  -->
<!DOCTYPE svg PUBLIC "-//W3C//DTD SVG 1.1//EN" "http://www.w3.org/Graphics/SVG/1.1/DTD/svg11.dtd">
<svg version="1.1" xmlns="http://www.w3.org/2000/svg" xmlns:xlink="http://www.w3.org/1999/xlink" x="0px" y="0px" width="100px"
	 height="100px" viewBox="0 0 100 100" enable-background="new 0 0 100 100" xml:space="preserve">
<g id="Layer_2">
	<rect fill="none" width="100" height="100"/>
</g>
<g id="Layer_1">
	<g>
		<path fill="#E74C3C" d="M76.4,86.4L74,83.1c10.2-7.4,16.3-19.4,16.3-32c0-3.4-0.4-6.8-1.3-10.1l3.9-1c0.9,3.6,1.4,7.3,1.4,11.1
			C94.4,65,87.6,78.2,76.4,86.4z"/>
		<polygon fill="#E74C3C" points="73,74.4 62.6,91 82.1,91.7 		"/>
		<path fill="#0584C7" d="M12.3,71.5C9,65.3,7.2,58.2,7.2,51.1c0-21,14.9-39,35.5-42.8l0.7,3.9C24.8,15.7,11.2,32,11.2,51.1
			c0,6.5,1.6,12.9,4.6,18.6L12.3,71.5z"/>
		<polygon fill="#0584C7" points="40.7,20.5 57.2,10 39.9,1 		"/>
		<path fill="#7F8C8D" d="M7.6,97.7c-0.3,0-0.6-0.1-0.9-0.1c-0.4-0.1-0.9-0.1-1.3-0.3c-0.6-0.3-1.5-0.3-1.6-1.3l-0.2-0.1
			c-0.6-0.3-0.6-0.5-0.1-1.1c-0.8-0.3-0.9-0.6-0.3-1.2C3,93.3,2.9,93,3,92.7c0.3-0.7,0.8,0,1.2-0.1c-0.3-0.4-1.1-0.6-0.8-1.2
			c0.1-0.2,0.7-0.2,0.9-0.3c0-0.2-0.2-0.6-0.2-0.9c0-0.1,0.5-0.2,0.8-0.3c0-0.4,0-0.9,0.9-0.7c0.2-0.4,0.3-0.8,0.9-0.6
			c0.2,0.1,0.6-0.3,0.9-0.5c0.7-0.3,1.4-0.6,1.9-1c0.4-0.3,0.5-0.9,0.7-1.3c0.1-0.2,0-0.4,0-0.7c0-0.5-0.3-1.2-0.1-1.5
			c0.9-1.2,1.7-2.6,3.3-3c0.7-0.2,1.3-0.5,2-0.7l0.1,0.1c0.3,1.6,0.3,1.6-1.3,1.7c-0.1,0-0.2,0-0.3,0.1c0.2,0.6,0.4,1.2,0.5,1.9
			c0,0.2-0.2,0.5-0.4,0.7c0.1,0.2,0.5,0.5,0.5,0.7c0,0.5-0.5,0.5-0.9,0.5c-0.4,0-0.8,0.1-1.3,0.2c0.6,0.1,1.1,0.1,1.6,0.2
			c0.2,0.1,0.4,0.3,0.6,0.5c-0.2,0.2-0.4,0.4-0.6,0.5c-0.5,0.1-1,0-1.5,0.1c0.4,0.1,0.7,0.3,1.1,0.4c0.4,0.1,0.8,0.3,0.6,0.8
			c-0.2,0.5-0.6,0.3-1,0.2c-0.1,0-0.2-0.1-0.4-0.1c0.1,0.5,1,0.6,0.5,1.2c-0.1,0.2-0.5,0.2-0.9,0.3c0,0.4,0.1,0.9-0.7,0.7l-0.2,0
			c-0.1,0.8-0.9,0.5-1.3,0.8c-0.5,0.4-1.3,0.5-1.9,0.8c-0.5,0.3-0.9,0.7-1.3,1.2c1,0,1.9,0.5,2.8,0.2c0.2,0,0.4,0.1,0.7,0.2
			c0.5-0.4,0.6-0.4,1.1,0.1c0.6-0.6,0.7-0.7,1.3-0.1c0.5-0.7,0.7-0.7,1.3-0.1c0.6-0.7,0.7-0.7,1.3-0.2c0.5-0.8,0.6-0.8,1.3-0.2
			c0.3-0.6,0.7-0.8,1.3-0.2c0.3-0.5,0.6-0.9,1-0.5c0.5-0.1,0.9-0.1,1.3-0.2c0.1,0,0.2-0.1,0.3-0.1c0.2-0.1,0.4-0.2,0.8-0.3
			c0,1.3,0,2.6,0,3.8c0,0.2-0.2,0.4-0.4,0.4c-0.7,0.1-1.6,0-2.2,0.4c-0.5,0.3-1.2-0.1-1.6,0.4c-0.1,0.1-0.5-0.1-0.9-0.1
			c-0.3,0.5-0.7,0.6-1.2,0c-0.5,0.7-0.6,0.7-1.2,0.2c-0.6,0.6-0.8,0.7-1.3,0.1c-0.6,0.6-0.8,0.7-1.3,0.1c-0.8,0.7-0.8,0.7-1.3,0.1
			c-0.4,0.6-0.8,0.7-1.2,0.1C8.3,98,8.2,98,7.6,97.7z"/>
		<polygon fill="#E74C3C" points="29.3,76.9 28.4,80.4 28,87.4 37.1,89.3 46.8,89.1 48.3,83.4 48.1,80.4 47.2,76.9 44.1,74 
			32.3,73.9 		"/>
		<path fill="#3498DB" d="M97.3,22.3c0,10.7-8.7,19.4-19.4,19.4s-19.4-8.7-19.4-19.4S67.2,3,77.9,3S97.3,11.6,97.3,22.3"/>
		<g>
			<defs>
				<path id="SVGID_1_" d="M97.3,22.3c0,10.7-8.7,19.4-19.4,19.4s-19.4-8.7-19.4-19.4S67.2,3,77.9,3S97.3,11.6,97.3,22.3"/>
			</defs>
			<clipPath id="SVGID_2_">
				<use xlink:href="#SVGID_1_"  overflow="visible"/>
			</clipPath>
			<path clip-path="url(#SVGID_2_)" fill="#3186BF" d="M77.9,3v38.8c10.7,0,19.4-8.7,19.4-19.4S88.6,3,77.9,3"/>
		</g>
		<path fill="#FFFFFF" d="M69.7,33.7c-0.5,0-1-0.2-1.4-0.6l-0.7-0.7c-0.7-0.7-1.1-1.7-1.1-3c0-3.4,2.5-8,6.5-12c4-4,8.6-6.5,12-6.5
			c1.2,0,2.3,0.4,3,1.1l0.7,0.7c0.4,0.4,0.6,0.8,0.6,1.4c0,0.5-0.2,1-0.6,1.4L86,18.2c-0.3,0.3-0.8,0.5-1.4,0.5
			c-0.5,0-1-0.2-1.4-0.5l-0.7-0.7c-0.4-0.4-0.8-0.5-1.4-0.5c-1,0-2.7,0.6-5.4,3.3c-2.2,2.2-3.3,4-3.3,5.4c0,0.6,0.2,1.1,0.5,1.4
			l0.7,0.7c0.4,0.4,0.6,0.8,0.6,1.4c0,0.5-0.2,1-0.6,1.4L71,33.1C70.7,33.5,70.2,33.7,69.7,33.7z"/>
		<path fill="#C0392B" d="M49.4,75.8c0.2-0.4,0.3-0.7,0.5-1.1c-0.8-0.2-1.5-0.3-2.3-0.5c0-0.8,0-1.5,0-2.3c0-1-0.4-1.4-1.2-1.5
			c-1.2-0.1-1.8,0.2-2,1.2c-0.2,0.7-0.3,1.4-0.5,2.2c-0.5-0.1-1-0.2-1.4-0.3c-2.8-1-5.6-1-8.3,0c-0.1,0-0.2,0.1-0.3,0.1
			c-0.4,0-0.7,0-1.1,0c-0.2-0.7-0.3-1.5-0.5-2.2c-0.2-0.9-0.8-1.2-2-1.1c-0.7,0.1-1.3,0.5-1.2,1.4c0,0.6,0,1.2,0,1.8
			c0,0.4-0.1,0.6-0.5,0.6c-0.4,0-0.7,0.1-1.1,0.2c-0.4,0.1-0.7,0.2-1.1,0.3c0.2,0.4,0.4,0.8,0.6,1.2c-3.3,0.9-11.6,3.1-11.8,3.1
			c-0.7-2.6,1.1-5.6,3.8-6.6c3.2-1.3,6.5-2.3,9.9-2.9c2.4-0.4,4.8-0.5,7.2-0.7c1.3-0.1,2.7,0,4,0c5.6,0.1,11.1,1.2,16.3,3.2
			c1,0.4,2,0.8,2.8,1.5c1.7,1.4,2.3,3.2,2,5.5C57.9,78.1,49.6,75.9,49.4,75.8z"/>
		<ellipse fill="#7F8C8D" cx="38.3" cy="80.4" rx="9.4" ry="7.3"/>
		<path fill="#FFFFFF" d="M41.7,82.8c0.7,0.7,1.6,0.9,3.7,0.9c-0.3,0.3-0.6,0.6-0.9,0.9c-2.2,1.7-4.7,2.3-7.5,2
			c-2-0.2-3.8-0.9-5.3-2.3c-2.2-2.1-2.5-5.1-0.3-7.4c1.6-1.7,3.6-2.4,5.9-2.7c2.4-0.2,4.6,0.3,6.6,1.6c1.7,1.1,2.7,2.7,2.7,4.8
			c0,0.6-0.2,1.1-0.4,1.7c-0.2,0.6-0.9,0.5-1.3,0.5c-0.8,0.1-1.6-0.1-2.4-0.1C42.2,82.7,42,82.8,41.7,82.8z"/>
		<path fill="#7F8C8D" d="M38.4,82.9c0.9,0.1,1.8-0.2,2.7-0.7c1.9-1.1,2.1-3.1,0.4-4.5c-1.7-1.4-5-1.3-6.6,0.2
			c-1.2,1.1-1.2,2.6,0,3.7C35.8,82.6,37,83,38.4,82.9z"/>
		<path fill="#ECF0F1" d="M38.3,81.4c0.5,0,0.9-0.1,1.3-0.3c1-0.6,1-1.6,0.2-2.3c-0.9-0.7-2.5-0.7-3.3,0.1c-0.6,0.6-0.6,1.3,0,1.9
			C37,81.3,37.6,81.4,38.3,81.4z"/>
		<path fill="#231F20" d="M38.1,76.3c0.7,0,1.3-0.4,1.3-0.9c0-0.5-0.6-0.9-1.2-1c-0.6,0-1.2,0.4-1.3,0.9
			C36.9,75.9,37.4,76.3,38.1,76.3z"/>
		<path fill="#231F20" d="M32,80c0.6,0,1.2-0.4,1.3-0.9c0-0.5-0.6-0.9-1.2-0.9c-0.7,0-1.2,0.4-1.2,0.9C30.8,79.6,31.3,80,32,80z"/>
		<path fill="#231F20" d="M35.4,76.8c0.7,0,1.2-0.4,1.2-0.9c0-0.5-0.5-1-1.2-1c-0.6,0-1.2,0.4-1.2,0.9
			C34.2,76.4,34.7,76.8,35.4,76.8z"/>
		<path fill="#231F20" d="M40.9,76.8c0.7,0,1.2-0.4,1.2-0.9c0-0.5-0.6-0.9-1.2-0.9c-0.6,0-1.2,0.5-1.2,0.9
			C39.6,76.4,40.2,76.8,40.9,76.8z"/>
		<path fill="#231F20" d="M34.5,77.2c0-0.5-0.5-0.9-1.2-0.9c-0.8,0-1.2,0.3-1.2,0.9c0,0.5,0.5,0.9,1.1,0.9
			C33.9,78.2,34.5,77.7,34.5,77.2z"/>
		<path fill="#231F20" d="M32.1,82.1c0.6,0,1.2-0.4,1.2-0.9c0-0.5-0.7-0.9-1.3-0.9c-0.6,0-1.2,0.5-1.2,1
			C30.8,81.8,31.3,82.1,32.1,82.1z"/>
		<path fill="#231F20" d="M32.1,83.1c0,0.5,0.6,1,1.2,1c0.6,0,1.2-0.5,1.2-0.9c0-0.5-0.5-1-1.1-1C32.5,82.2,32.1,82.5,32.1,83.1z"/>
		<path fill="#231F20" d="M35.3,83.5c-0.6,0-1.1,0.4-1.1,0.9c0,0.5,0.6,0.9,1.1,0.9c0.7,0,1.3-0.4,1.3-0.9
			C36.6,83.9,36.1,83.5,35.3,83.5z"/>
		<path fill="#231F20" d="M40.8,85.3c0.7,0,1.2-0.4,1.2-0.9c0-0.6-0.5-0.9-1.2-0.9c-0.7,0-1.2,0.5-1.2,0.9
			C39.6,84.9,40.2,85.3,40.8,85.3z"/>
		<path fill="#231F20" d="M38.1,85.8c0.6,0,1.3-0.5,1.2-0.9c0-0.5-0.6-0.9-1.3-0.9c-0.6,0-1.1,0.4-1.1,0.9
			C37,85.4,37.5,85.8,38.1,85.8z"/>
		<path fill="#E74C3C" d="M22.6,89.7c1.9-3.1,3.8-6.2,5.8-9.3c0.2,1.5,0.5,2.8,1.2,4c1.1,2,2.9,3.2,5,3.8c3.3,1,6.4,0.8,9.4-1
			c2.3-1.4,3.6-3.3,4-6.9c2,3.2,3.9,6.2,5.8,9.3C43.5,89.7,33.1,89.7,22.6,89.7z"/>
		<path fill="#E74C3C" d="M60.9,78.6c-3.8-1-7.5-2-11.3-3.1c-0.5-0.1-0.8,0-1,0.5c-0.1,0.5-0.3,1.1-0.5,1.6c-0.2,0.7,0,1,0.7,1.2
			c2.3,0.6,4.6,1.3,6.9,1.9c1.3,0.4,2.7,0.7,4,1.1c0.4,0.1,0.9,0.3,1.1-0.3c0.3-0.7,0.4-1.5,0.7-2.4C61.4,78.9,61.2,78.6,60.9,78.6z
			"/>
		<path fill="#E74C3C" d="M27.6,76.1c-0.1-0.4-0.4-0.7-1-0.5c-1.2,0.4-2.5,0.7-3.8,1c-2.5,0.7-5,1.4-7.5,2c-0.5,0.1-0.8,0.4-0.7,0.9
			c0.1,0.7,0.3,1.3,0.6,1.9c0.1,0.2,0.4,0.4,0.6,0.5c0.3-0.1,0.5-0.1,0.7-0.2c1.1-0.3,2.2-0.6,3.2-0.9c2.6-0.7,5.2-1.4,7.7-2.1
			c0.5-0.1,0.8-0.4,0.6-1C27.9,77.3,27.8,76.7,27.6,76.1z"/>
		<path fill="#E74C3C" d="M29.3,76.9c0-1.7,0-3.5,0-5.3c0-0.7,0.3-0.9,1-0.9c1.3,0,1.3,0,1.7,1.3c0.2,0.6,0.3,1.3,0.4,1.9
			c0,0.2,0,0.4-0.2,0.5C31.2,75.2,30.2,76.1,29.3,76.9z"/>
		<path fill="#E74C3C" d="M44.1,74c0.2-0.8,0.4-1.7,0.6-2.6c0.2-0.7,0.6-0.9,1.8-0.7c0.6,0.1,0.7,0.5,0.7,1.1c0,1.8,0,3.5,0,5.2
			C46.2,76,45.3,75.1,44.1,74z"/>
		<path fill="#7F8C8D" d="M25.9,97.9c0.1,0.7-0.4,1-0.9,1c-1.1,0.1-2.2,0.1-3.3,0c-0.5,0-1-0.3-1-1C22.4,97.9,24.1,97.9,25.9,97.9z"
			/>
		<path fill="#7F8C8D" d="M56,97.9c0.1,0.7-0.4,1-0.9,1c-1.1,0.1-2.2,0.1-3.3,0c-0.5,0-1-0.3-1-1C52.5,97.9,54.2,97.9,56,97.9z"/>
		<path fill="#C0392B" d="M21,92c0,3,0,4,0,6c10,0,24,0,35,0c0-2,0-3,0-6C45,92,31,92,21,92z"/>
		<path fill="#F1948A" d="M20.6,91.7L20.6,91.7c0-1.2,0.9-2.1,2.1-2.1h31.2c1.1,0,2.1,0.9,2.1,2.1H20.6z"/>
	</g>
</g>
</svg>
