<?xml version="1.0" encoding="utf-8"?>
<!-- Generator: Adobe Illustrator 18.0.0, SVG Export Plug-In . SVG Version: 6.00 Build 0)  -->
<!DOCTYPE svg PUBLIC "-//W3C//DTD SVG 1.1//EN" "http://www.w3.org/Graphics/SVG/1.1/DTD/svg11.dtd">
<svg version="1.1" id="Layer_1" xmlns="http://www.w3.org/2000/svg" xmlns:xlink="http://www.w3.org/1999/xlink" x="0px" y="0px"
	 width="16px" height="16px" viewBox="0 0 16 16" enable-background="new 0 0 16 16" xml:space="preserve">
<g>
	<path fill="#FFFFFF" d="M8,8c1.1,0,2-0.4,2.7-1.2C11.4,6,11.8,5.1,11.8,4c0-1.1-0.4-2-1.1-2.8C10,0.4,9.1,0,8,0S6,0.4,5.3,1.2
		C4.6,2,4.2,2.9,4.2,4c0,1.1,0.4,2,1.1,2.8S6.9,8,8,8z"/>
	<path fill="#FFFFFF" d="M15,12.2c0-0.4-0.1-0.7-0.1-1.1c-0.1-0.4-0.2-0.8-0.3-1.1c-0.1-0.3-0.2-0.7-0.4-1c-0.2-0.3-0.4-0.6-0.6-0.8
		c-0.2-0.2-0.5-0.4-0.9-0.6c-0.3-0.1-0.7-0.2-1.1-0.2c-0.1,0-0.2,0.1-0.4,0.2s-0.5,0.3-0.7,0.5c-0.3,0.2-0.6,0.4-1.1,0.5
		C8.9,8.7,8.4,8.8,8,8.8c-0.4,0-0.9-0.1-1.3-0.2C6.2,8.4,5.9,8.2,5.6,8.1C5.3,7.9,5.1,7.7,4.9,7.6C4.6,7.4,4.5,7.3,4.4,7.3
		C4,7.3,3.7,7.4,3.3,7.5S2.7,7.9,2.5,8.1C2.2,8.3,2,8.6,1.9,8.9c-0.2,0.3-0.3,0.7-0.4,1c-0.1,0.3-0.2,0.7-0.3,1.1
		c-0.1,0.4-0.1,0.8-0.1,1.1c0,0.4,0,0.7,0,1.1c0,0.8,0.2,1.5,0.7,2C2.2,15.8,2.9,16,3.7,16h8.7c0.8,0,1.4-0.2,1.9-0.7
		c0.5-0.5,0.7-1.1,0.7-2C15,12.9,15,12.6,15,12.2z"/>
</g>
<rect y="0" fill="none" width="16" height="16"/>
</svg>
