<?xml version="1.0" encoding="utf-8"?>
<!-- Generator: Adobe Illustrator 18.0.0, SVG Export Plug-In . SVG Version: 6.00 Build 0)  -->
<!DOCTYPE svg PUBLIC "-//W3C//DTD SVG 1.1//EN" "http://www.w3.org/Graphics/SVG/1.1/DTD/svg11.dtd">
<svg version="1.1" xmlns="http://www.w3.org/2000/svg" xmlns:xlink="http://www.w3.org/1999/xlink" x="0px" y="0px" width="100px"
	 height="100px" viewBox="0 0 100 100" enable-background="new 0 0 100 100" xml:space="preserve">
<g id="Layer_2">
	<rect fill="none" width="100" height="100"/>
</g>
<g id="Layer_1">
	<g>
		<g>
			<path fill="#F1C40F" d="M12.2,62.2c1.4-0.2,2.8-0.4,4.7-0.5C11,60.6,6.5,55.5,6.5,49.4c0-0.4,0-0.8,0-1.2c0-0.1,0-0.3,0-0.4
				c0-0.3,0.1-0.5,0.1-0.7c0-0.2,0.1-0.3,0.1-0.5c0-0.2,0.1-0.4,0.2-0.6c0.1-0.2,0.1-0.4,0.2-0.6c0.1-0.2,0.1-0.3,0.2-0.5
				c0.1-0.2,0.2-0.4,0.2-0.6c0.1-0.1,0.1-0.3,0.2-0.4c0.1-0.2,0.2-0.4,0.3-0.6c0.1-0.1,0.1-0.2,0.2-0.4c0.1-0.2,0.3-0.4,0.4-0.6
				C8.8,42.1,9.1,42,9.2,42c0.2-0.2,0.8-0.4,0.8-0.6V47h8.9H28v-5.7c0,0.2,0.6,0.4,0.8,0.6c0.1,0.1,0.3,0.2,0.3,0.2
				c0.1,0.2,0.3,0.4,0.5,0.6c0.1,0.1,0.2,0.2,0.2,0.4c0.1,0.2,0.2,0.4,0.3,0.6c0.1,0.1,0.2,0.3,0.2,0.4c0.1,0.2,0.2,0.4,0.3,0.6
				c0.1,0.2,0.1,0.3,0.2,0.5c0.1,0.2,0.1,0.4,0.2,0.6c0.1,0.2,0.1,0.4,0.2,0.6c0,0.2,0.1,0.3,0.1,0.5c0,0.2,0.1,0.5,0.1,0.7
				c0,0.1,0,0.3,0.1,0.4c0,0.4,0.1,0.8,0.1,1.2c0,6.1-4.4,11.2-10.2,12.3c1.9,0.1,3.7,0.2,5.1,0.5c6.2,1,7.7,3.3,7.7,3.3V49.4
				c0-8.1-6.4-14.6-14.5-14.6C11.4,34.8,5,41.3,5,49.4v16.1C5,65.4,5.9,63.2,12.2,62.2z"/>
			<path fill="none" stroke="#FCD07A" stroke-width="0" stroke-linecap="round" stroke-linejoin="round" d="M6.7,47
				c0-0.2,0.1-0.3,0.1-0.5"/>
			<path fill="none" stroke="#FCD07A" stroke-width="0" stroke-linecap="round" stroke-linejoin="round" d="M6.5,48.2
				c0-0.1,0-0.3,0.1-0.4"/>
			<path fill="none" stroke="#FCD07A" stroke-width="0" stroke-linecap="round" stroke-linejoin="round" d="M8.3,42.8
				c0.1-0.2,0.3-0.4,0.4-0.6"/>
			<path fill="none" stroke="#FCD07A" stroke-width="0" stroke-linecap="round" stroke-linejoin="round" d="M6.9,45.9
				c0.1-0.2,0.1-0.4,0.2-0.6"/>
			<path fill="none" stroke="#FCD07A" stroke-width="0" stroke-linecap="round" stroke-linejoin="round" d="M7.8,43.8
				c0.1-0.2,0.2-0.4,0.3-0.6"/>
			<path fill="none" stroke="#FCD07A" stroke-width="0" stroke-linecap="round" stroke-linejoin="round" d="M7.3,44.8
				c0.1-0.2,0.2-0.4,0.2-0.6"/>
			<path fill="#FFEEDD" d="M3,79h6V66.3C5,69.6,3,74,3,79z"/>
			<path fill="#FFEEDD" d="M18.9,69.3c2.8,0,5.2-1.4,6.6-3.4c0.4-0.6,0.7-1.3,0.9-2c-2.2-1.3-4.8-2.1-7.5-2.1
				c-2.7,0-5.3,0.8-7.5,2.1c0.2,0.7,0.5,1.4,0.9,2C13.8,68,16.2,69.3,18.9,69.3z"/>
			<path fill="#FFEEDD" d="M31.5,49.4c0-0.4,0-0.8-0.1-1.2c0-0.1,0-0.3-0.1-0.4c0-0.3-0.1-0.5-0.1-0.7c0-0.2-0.1-0.3-0.1-0.5
				c0-0.2-0.1-0.4-0.2-0.6c-0.1-0.2-0.1-0.4-0.2-0.6c-0.1-0.2-0.1-0.3-0.2-0.5c-0.1-0.2-0.2-0.4-0.2-0.6c-0.1-0.1-0.1-0.3-0.2-0.4
				c-0.1-0.2-0.2-0.4-0.3-0.6c-0.1-0.1-0.1-0.2-0.2-0.4c-0.1-0.2-0.3-0.4-0.4-0.6c-0.1-0.1-0.4-0.2-0.4-0.2
				c-0.2-0.2-0.8-0.4-0.8-0.6V47h-9.1H10v-5.7c0,0.2-0.6,0.4-0.8,0.6c-0.1,0.1-0.3,0.2-0.3,0.2c-0.1,0.2-0.3,0.4-0.5,0.6
				c-0.1,0.1-0.2,0.2-0.3,0.4c-0.1,0.2-0.2,0.4-0.3,0.6c-0.1,0.1-0.2,0.3-0.2,0.4c-0.1,0.2-0.2,0.4-0.3,0.6
				c-0.1,0.2-0.1,0.3-0.2,0.5c-0.1,0.2-0.1,0.4-0.2,0.6c-0.1,0.2-0.1,0.4-0.2,0.6c0,0.2-0.1,0.3-0.1,0.5c0,0.2-0.1,0.5-0.1,0.7
				c0,0.1,0,0.3-0.1,0.4c0,0.4-0.1,0.8-0.1,1.2c0,6.1,4.4,11.2,10.2,12.3c0.7,0.1,1.5,0.2,2.3,0.2c0.8,0,1.5-0.1,2.3-0.2
				C27.1,60.6,31.5,55.5,31.5,49.4z"/>
			<path fill="none" stroke="#FCD07A" stroke-width="0" stroke-linecap="round" stroke-linejoin="round" d="M31.2,47
				c0-0.2-0.1-0.3-0.1-0.5"/>
			<path fill="none" stroke="#FCD07A" stroke-width="0" stroke-linecap="round" stroke-linejoin="round" d="M31.4,48.2
				c0-0.1,0-0.3-0.1-0.4"/>
			<path fill="none" stroke="#FCD07A" stroke-width="0" stroke-linecap="round" stroke-linejoin="round" d="M29.6,42.8
				c-0.1-0.2-0.3-0.4-0.4-0.6"/>
			<path fill="none" stroke="#FCD07A" stroke-width="0" stroke-linecap="round" stroke-linejoin="round" d="M31,45.9
				c-0.1-0.2-0.1-0.4-0.2-0.6"/>
			<path fill="none" stroke="#FCD07A" stroke-width="0" stroke-linecap="round" stroke-linejoin="round" d="M30.1,43.8
				c-0.1-0.2-0.2-0.4-0.3-0.6"/>
			<path fill="none" stroke="#FCD07A" stroke-width="0" stroke-linecap="round" stroke-linejoin="round" d="M30.6,44.8
				c-0.1-0.2-0.2-0.4-0.2-0.6"/>
			<path fill="#FFEEDD" d="M29,66.3V79h5.9C34.9,74,32,69.6,29,66.3z"/>
			<path fill="#9B59B6" d="M28.9,65.9c-0.8-0.7-1.6-1.4-2.5-2c-0.2,0.7-0.5,1.4-0.9,2c-1.4,2-3.8,3.4-6.5,3.4
				c-2.8,0-5.2-1.4-6.6-3.4c-0.4-0.6-0.7-1.3-0.9-2c-0.9,0.6-1.5,1.2-2.3,2C9,66.1,9,66.2,9,66.3V79h9.9H29V66.3
				C29,66.2,29,66.1,28.9,65.9z"/>
		</g>
		<g>
			<ellipse fill="#FFEEDD" cx="80.3" cy="47" rx="13.2" ry="12.9"/>
			<path fill="#002738" d="M93.4,48.7C93.4,48.7,93.4,48.8,93.4,48.7C93.4,48.8,93.4,48.7,93.4,48.7c0.1-0.5,0.1-1,0.1-1.5
				c0-3.2-1.1-6.1-3-8.4c-1.1,0.5-1.5,2.9-0.8,5.5c0.6,2.6,2,4.5,3.2,4.5c0.1,0,0.2,0,0.2,0C93.2,48.8,93.3,48.8,93.4,48.7z"/>
			<path fill="#F39C12" d="M90,64l-9.8,9.8L70.4,64c-4.2,3.4-7,8.9-7,15.1L80.2,79L97,79C97,72.8,94.3,67.3,90,64z"/>
			<path fill="#D35400" d="M90.1,63.9c-0.7-0.6-1.5-1.1-2.3-1.5l-7.6,7.5l-7.5-7.5c-0.8,0.4-1.5,0.9-2.2,1.5l-0.1,0l9.7,9.8
				L90.1,63.9L90.1,63.9z"/>
			<path fill="#FFFFFF" d="M87.7,62.4c-0.3-0.1-0.5-0.3-0.8-0.4c-1.8,3.7-6.7,5.5-6.7,5.5s-4.8-1.8-6.6-5.5
				c-0.3,0.1-0.6,0.3-0.8,0.4l0,0l7.5,7.5L87.7,62.4z"/>
			<path fill="#002738" d="M71,44.4c0.6-2.6,0.3-5-0.8-5.5c0,0,0,0,0,0c-1.9,2.3-3,5.2-3,8.4c0,0.5,0,1,0.1,1.5
				c0.1,0.1,0.2,0.1,0.3,0.1c0.1,0,0.2,0,0.2,0C69,48.9,70.4,47,71,44.4z"/>
			<path fill="#002738" d="M80.2,67.5c0,0,4.9-1.8,6.7-5.5c0.4-0.8,0.7-1.8,0.7-2.8c0-0.3-0.1-0.6-0.1-1c-0.3-4.9-3.1-6.8-7.4-6.8
				c-4,0-7,1.9-7.3,6.8c0,0.3,0,0.6,0,1c0,1,0.2,2,0.6,2.8c0,0,0,0,0,0C75.4,65.7,80.2,67.5,80.2,67.5z M80.2,55h3.6
				c0,2-1.6,3.5-3.6,3.5c-1.6,0-3.4-1.5-3.4-3.5H80.2z"/>
			<path fill="#FFEEDD" d="M80.2,58.5c2,0,3.6-1.5,3.6-3.5h-3.6h-3.4C76.8,57,78.5,58.5,80.2,58.5z"/>
			<path fill="#3498DB" d="M85.2,42.5c-2.1,0-3.8,1.7-3.8,3.8c0,2.1,1.7,3.8,3.8,3.8c2.1,0,3.8-1.7,3.8-3.8
				C89,44.1,87.3,42.5,85.2,42.5z"/>
			<path fill="#3498DB" d="M79.1,46.2c0-2.1-1.7-3.8-3.8-3.8c-2.1,0-3.8,1.7-3.8,3.8c0,2.1,1.7,3.8,3.8,3.8
				C77.4,50,79.1,48.3,79.1,46.2z"/>
			<path fill="none" stroke="#3498DB" stroke-miterlimit="10" d="M78,46.5c0-2,5-2,5,0"/>
			<path fill="#FFFFFF" d="M85.2,43.5c-1.5,0-2.7,1.2-2.7,2.7c0,1.5,1.2,2.7,2.7,2.7c1.5,0,2.7-1.2,2.7-2.7
				C88,44.7,86.8,43.5,85.2,43.5z"/>
			<path fill="#FFFFFF" d="M78.1,46.2c0-1.5-1.2-2.7-2.7-2.7c-1.5,0-2.7,1.2-2.7,2.7c0,1.5,1.2,2.7,2.7,2.7
				C76.9,49,78.1,47.7,78.1,46.2z"/>
		</g>
		<g>
			<path fill="#FFA033" d="M50.5,18.6L50.5,18.6C50.5,18.6,50.5,18.6,50.5,18.6L50.5,18.6z"/>
			<path fill="#FFA033" d="M50.6,18.6C50.5,18.6,50.5,18.6,50.6,18.6l-0.1,0.7C50.5,19,50.5,18.8,50.6,18.6z"/>
			<path fill="#ECF0F1" d="M46.5,62.4c-0.7,1-1.2,2.3-1.3,4l-7.9-7.7l8.3,20.2l2.7-13.1L46.5,62.4z"/>
			<path fill="#BDC3C7" d="M46.8,62.4c1.4-2.2,3.2-3.2,4.2-3.4v-0.1L44.2,55c-2.4,0.8-4.8,2.1-6.7,3.7l7.9,7.7
				C45.5,64.8,46.1,63.5,46.8,62.4z"/>
			<path fill="#34495E" d="M28,79h17.6l-8.3-20.2C31.7,63.4,28,71,28,79z"/>
			<path fill="#E67E22" d="M40.4,30.1c4-0.7,9.6-3.9,10.6-10.9v-0.7c-10,0.1-17.7,7.9-17.7,17.7C33.3,36.3,36.2,30.9,40.4,30.1z"/>
			<path fill="#FFA033" d="M50.5,53.9L50.5,53.9C50.5,53.9,50.5,53.9,50.5,53.9C50.5,53.9,50.5,53.9,50.5,53.9z"/>
			<path fill="#FFE2C5" d="M50.6,59l6.6-4c-2.1-0.7-4.3-1.1-6.6-1.1c0,0-0.1,0-0.1,0c-2.3,0-4.5,0.4-6.5,1.1L50.6,59L50.6,59z"/>
			<path fill="#ECF0F1" d="M55.9,66.4c-0.1-1.6-0.7-2.9-1.3-4l-1.8,3.3l2.7,13.1l8.3-20.2L55.9,66.4z"/>
			<path fill="#3498DB" d="M54.6,62.4C53,59.9,50.6,59,50.6,59s0,0-0.1,0c-0.5,0.2-2.5,1.2-4,3.4l1.8,3.4L45.6,79h4.9h5.1l-2.7-13.2
				L54.6,62.4z"/>
			<path fill="#FFA033" d="M50.5,59C50.5,59,50.6,59,50.5,59L50.5,59L50.5,59z"/>
			<path fill="#BDC3C7" d="M54.6,62.4c0.7,1,1.2,2.3,1.3,4l7.9-7.7c-2-1.6-4.2-2.9-6.6-3.7l-6.6,4C50.6,59,53,59.9,54.6,62.4z"/>
			<path fill="#34495E" d="M63.8,58.8L55.5,79h17.6C73.1,71,69.4,63.4,63.8,58.8z"/>
			<path fill="#FFE2C5" d="M68.2,36.3c0,0-3.1-5.4-7.2-6.1c-4.2-0.7-9.7-4.1-10.4-11.5c0,0.2-0.1,0.4-0.1,0.7
				c-1,6.9-6.3,10.2-10.3,10.9c-4.2,0.7-7.2,6.1-7.2,6.1c0,9.7,7.9,17.6,17.6,17.7c0,0,0.1,0,0.1,0C60.3,53.9,68.2,46,68.2,36.3z"/>
			<path fill="#E67E22" d="M61,30.1c4.2,0.7,7.2,6.1,7.2,6.1c0-9.8-7.9-17.7-17.7-17.7C51.3,26,56.8,29.4,61,30.1z"/>
			<path fill="#34495E" d="M57.2,32.6c-2.5,0-4.7,1.7-5.3,4.1c-0.8-0.3-1.5-0.5-2.2-0.3c-0.2,0-0.3,0.1-0.5,0.1
				c-0.7-2.3-2.8-3.9-5.2-3.9c-3,0-5.5,2.5-5.5,5.5c0,3,2.5,5.5,5.5,5.5c2.9,0,5.3-2.3,5.5-5.1c0.1-0.1,0.3-0.3,0.6-0.3
				c0.5-0.1,1.1,0.1,1.7,0.5c0.3,2.8,2.6,5,5.4,5c3,0,5.5-2.5,5.5-5.5C62.7,35,60.2,32.6,57.2,32.6z M43.9,41.7
				c-2,0-3.7-1.7-3.7-3.7c0-2,1.7-3.7,3.7-3.7s3.7,1.7,3.7,3.7C47.6,40.1,46,41.7,43.9,41.7z M57.2,41.7c-2,0-3.7-1.7-3.7-3.7
				c0-2,1.7-3.7,3.7-3.7c2,0,3.7,1.7,3.7,3.7C60.9,40.1,59.2,41.7,57.2,41.7z"/>
		</g>
	</g>
</g>
</svg>
