<?xml version="1.0" encoding="utf-8"?>
<!-- Generator: Adobe Illustrator 18.0.0, SVG Export Plug-In . SVG Version: 6.00 Build 0)  -->
<!DOCTYPE svg PUBLIC "-//W3C//DTD SVG 1.1//EN" "http://www.w3.org/Graphics/SVG/1.1/DTD/svg11.dtd">
<svg version="1.1" id="Layer_1" xmlns="http://www.w3.org/2000/svg" xmlns:xlink="http://www.w3.org/1999/xlink" x="0px" y="0px"
	 width="100px" height="100px" viewBox="0 0 100 100" enable-background="new 0 0 100 100" xml:space="preserve">
<rect fill="none" width="100" height="100"/>
<path fill="#FFFFFF" d="M50,1C22.9,1,1,22.9,1,50c0,27.1,21.9,49,49,49c27.1,0,49-21.9,49-49C99,22.9,77.1,1,50,1z M60.6,74.4
	c-3.4-0.3-25.7-5.6-35.1-32.1c-1.9-5.6,0.4-14.5,6.8-16.5c6.4-2.1,9.7,6.9,10.7,12.6L37.4,44c0,0-0.2,3.5,7.5,11.2
	c7.7,7.7,11.2,7.5,11.2,7.5l6.5-6.5c4.1,0.9,12.4,6.1,12.4,6.1C74.1,70.1,68.8,75.3,60.6,74.4z"/>
</svg>
