<?xml version="1.0" encoding="utf-8"?>
<!-- Generator: Adobe Illustrator 18.0.0, SVG Export Plug-In . SVG Version: 6.00 Build 0)  -->
<!DOCTYPE svg PUBLIC "-//W3C//DTD SVG 1.1//EN" "http://www.w3.org/Graphics/SVG/1.1/DTD/svg11.dtd">
<svg version="1.1" xmlns="http://www.w3.org/2000/svg" xmlns:xlink="http://www.w3.org/1999/xlink" x="0px" y="0px" width="100px"
	 height="100px" viewBox="0 0 100 100" enable-background="new 0 0 100 100" xml:space="preserve">
<g id="Layer_2">
	<rect fill="none" width="100" height="100"/>
</g>
<g id="Layer_1">
	<g>
		<g>
			<path fill="#2980B9" d="M97.8,56.8V22c0-1.2-1-2.1-2.1-2.1H4.1c-1.2,0-2.1,1-2.1,2.1v34.9l-1,0.7v15.9l1,0.8v2.9
				c0,1.2,1,2.1,2.1,2.1h3.5c0.4,0.5,1,0.8,1.7,0.8h4.8l9.4-9.4H43h14h19.5l9.4,9.4h4.8c0.7,0,1.3-0.3,1.7-0.8h3.2
				c1.2,0,2.1-1,2.1-2.1v-2.7l1.2-1V57.6L97.8,56.8z"/>
		</g>
		<path fill="#34495E" d="M76.5,70.7H57H43H23.5l-9.4,9.4h71.8L76.5,70.7z M27,77.7c-1.1,0-2-0.9-2-2c0-1.1,0.9-2,2-2
			c1.1,0,2,0.9,2,2C29,76.8,28.1,77.7,27,77.7z M34.9,75.6h-1.8c-0.6,0-1.1-0.5-1.1-1.1c0-0.6,0.5-1.1,1.1-1.1h1.8
			c0.6,0,1.1,0.5,1.1,1.1C36,75.1,35.5,75.6,34.9,75.6z M67.3,75.6h-1.8c-0.6,0-1.1-0.5-1.1-1.1c0-0.6,0.5-1.1,1.1-1.1h1.8
			c0.6,0,1.1,0.5,1.1,1.1C68.4,75.1,67.9,75.6,67.3,75.6z M73.2,77.7c-1.1,0-2-0.9-2-2c0-1.1,0.9-2,2-2c1.1,0,2,0.9,2,2
			C75.2,76.8,74.3,77.7,73.2,77.7z"/>
		<g>
			<path fill="#ECF0F1" d="M88.3,23.8H10l-3.9,3.9v38.9c0,1.2,1,2.1,2.1,2.1h83.1c1.2,0,2.1-1,2.1-2.1V29L88.3,23.8z"/>
		</g>
		<path fill="#3498DB" d="M77.9,45.2c0,4-3.2,7.3-7.1,7.3H28.7c-3.9,0-7.1-3.3-7.1-7.3s3.2-7.3,7.1-7.3h42.1
			C74.7,37.9,77.9,41.2,77.9,45.2z"/>
		<circle fill="#FFFFFF" cx="28.9" cy="45.1" r="5.6"/>
		<circle fill="#FFFFFF" cx="70.4" cy="45.1" r="5.6"/>
		<rect x="40.2" y="39.9" fill="#FFFFFF" width="19.2" height="7"/>
		<g>
			<defs>
				<circle id="SVGID_1_" cx="28.9" cy="45.1" r="5.6"/>
			</defs>
			<clipPath id="SVGID_2_">
				<use xlink:href="#SVGID_1_"  overflow="visible"/>
			</clipPath>
			<g clip-path="url(#SVGID_2_)">
				<rect x="27.8" y="39.2" fill="#7F8C8D" width="2.1" height="2.1"/>
				<rect x="27.8" y="48.9" fill="#7F8C8D" width="2.1" height="2.1"/>
				<g>
					
						<rect x="32.1" y="41.8" transform="matrix(0.4795 0.8776 -0.8776 0.4795 54.8329 -6.7824)" fill="#7F8C8D" width="2.1" height="2.1"/>
					
						<rect x="23.6" y="46.5" transform="matrix(0.4795 0.8775 -0.8775 0.4795 54.4818 3.1324)" fill="#7F8C8D" width="2.1" height="2.1"/>
				</g>
				<g>
					
						<rect x="31.9" y="46.8" transform="matrix(-0.5602 0.8284 -0.8284 -0.5602 90.9884 47.4585)" fill="#7F8C8D" width="2.1" height="2.1"/>
					
						<rect x="23.8" y="41.4" transform="matrix(-0.5602 0.8284 -0.8284 -0.5602 73.9082 45.6334)" fill="#7F8C8D" width="2.1" height="2.1"/>
				</g>
			</g>
		</g>
		<g>
			<defs>
				<circle id="SVGID_3_" cx="70.4" cy="45.1" r="5.6"/>
			</defs>
			<clipPath id="SVGID_4_">
				<use xlink:href="#SVGID_3_"  overflow="visible"/>
			</clipPath>
			<g clip-path="url(#SVGID_4_)">
				<rect x="69.4" y="39.2" fill="#7F8C8D" width="2.1" height="2.1"/>
				<rect x="69.4" y="48.9" fill="#7F8C8D" width="2.1" height="2.1"/>
				<g>
					
						<rect x="73.6" y="41.8" transform="matrix(0.4795 0.8775 -0.8775 0.4795 76.4607 -43.2489)" fill="#7F8C8D" width="2.1" height="2.1"/>
					
						<rect x="65.1" y="46.5" transform="matrix(0.4795 0.8775 -0.8775 0.4795 76.1111 -33.3333)" fill="#7F8C8D" width="2.1" height="2.1"/>
				</g>
				<g>
					
						<rect x="73.4" y="46.8" transform="matrix(-0.5602 0.8284 -0.8284 -0.5602 155.8203 13.0359)" fill="#7F8C8D" width="2.1" height="2.1"/>
					
						<rect x="65.3" y="41.4" transform="matrix(-0.5602 0.8284 -0.8284 -0.5602 138.7395 11.2103)" fill="#7F8C8D" width="2.1" height="2.1"/>
				</g>
			</g>
		</g>
		<g>
			<defs>
				<rect id="SVGID_5_" x="40.2" y="39.9" width="19.2" height="7"/>
			</defs>
			<clipPath id="SVGID_6_">
				<use xlink:href="#SVGID_5_"  overflow="visible"/>
			</clipPath>
			<g clip-path="url(#SVGID_6_)">
				<circle fill="#2F3131" cx="29.1" cy="45.2" r="18.8"/>
				<circle fill="#2F3131" cx="70.5" cy="45.2" r="18.8"/>
			</g>
		</g>
	</g>
</g>
</svg>
