<?xml version="1.0" encoding="utf-8"?>
<!-- Generator: Adobe Illustrator 18.0.0, SVG Export Plug-In . SVG Version: 6.00 Build 0)  -->
<!DOCTYPE svg PUBLIC "-//W3C//DTD SVG 1.1//EN" "http://www.w3.org/Graphics/SVG/1.1/DTD/svg11.dtd">
<svg version="1.1" xmlns="http://www.w3.org/2000/svg" xmlns:xlink="http://www.w3.org/1999/xlink" x="0px" y="0px" width="100px"
	 height="100px" viewBox="0 0 100 100" enable-background="new 0 0 100 100" xml:space="preserve">
<g id="Layer_2">
	<rect fill="none" width="100" height="100"/>
</g>
<g id="Layer_1">
	<g>
		<path fill="#ECF0F1" d="M68.9,1.3C52.3,1.3,38.8,12,38.8,25.1c0,7.8,4.8,14.8,12.2,19.1c-0.7,4-3,8.6-6.2,11.8
			c7.8-0.6,14.8-2.8,19.3-7.5c1.6,0.2,3.2,0.3,4.9,0.3C85.5,48.9,99,38.3,99,25.1C99,12,85.5,1.3,68.9,1.3z"/>
		<circle fill="#95A5A6" cx="54.8" cy="25.1" r="4.7"/>
		<circle fill="#95A5A6" cx="68.9" cy="25.1" r="4.7"/>
		<circle fill="#95A5A6" cx="83" cy="25.1" r="4.7"/>
		<path fill="#2980B9" d="M63.1,79.9c-9.5-7.7-12.2-3.9-16.5,0.4c-3,3-10.7-3.3-17.3-9.9c-6.6-6.6-12.9-14.3-9.9-17.3
			c4.3-4.3,8.1-7,0.4-16.5c-7.7-9.5-12.8-2.2-17,2C-2,43.5,2.5,61.5,20.4,79.3c17.8,17.8,35.9,22.4,40.7,17.6
			C65.3,92.7,72.6,87.6,63.1,79.9z"/>
		<path fill="#3498DB" d="M12.9,41.8c-0.1,0.1-0.3,0.1-0.6,0.2c-0.5,0.2-1,0.4-1.6,0.6c-0.3,0.1-0.6,0.3-0.9,0.5
			c-0.3,0.2-0.6,0.4-0.9,0.6c-0.3,0.2-0.5,0.5-0.8,0.9C8,45,7.8,45.3,7.6,45.8c-0.2,0.4-0.3,0.9-0.4,1.3c-0.1,0.5-0.1,1-0.2,1.4
			c0,1,0,1.9,0.2,2.7c0.1,0.8,0.3,1.5,0.3,1.9c0.1,0.5,0.2,0.7,0.2,0.7s-0.1-0.2-0.4-0.6c-0.2-0.4-0.6-1-1-1.7
			c-0.4-0.7-0.8-1.7-1.2-2.7c-0.1-0.5-0.3-1.1-0.4-1.7c-0.1-0.6-0.2-1.2-0.1-1.9c0-0.7,0.1-1.3,0.2-2c0.2-0.6,0.4-1.3,0.7-1.9
			c0.3-0.6,0.6-1.1,1-1.6c0.4-0.5,0.7-0.9,1.1-1.2c0.7-0.7,1.3-1.2,1.7-1.5c0.2-0.2,0.3-0.3,0.4-0.3l0.1-0.1l3.3,5.1
			C13.1,41.7,13,41.8,12.9,41.8z"/>
		<path fill="#3498DB" d="M62,90.4c-0.3,0.4-0.8,1-1.5,1.7c-0.4,0.3-0.7,0.7-1.2,1.1c-0.4,0.4-1,0.7-1.5,1c-0.6,0.3-1.2,0.6-1.8,0.8
			c-0.6,0.2-1.3,0.3-1.9,0.4l-0.9,0.1l-0.9,0c-0.6,0-1.2-0.2-1.7-0.3c-0.5-0.1-1-0.3-1.5-0.4c-0.5-0.1-0.9-0.4-1.3-0.5
			c-0.8-0.3-1.3-0.7-1.8-0.9c-0.4-0.2-0.7-0.4-0.7-0.4s0.3,0,0.7,0.1c0.5,0.1,1.1,0.2,1.9,0.2c0.4,0,0.8,0.1,1.3,0
			c0.4,0,0.9,0,1.4-0.1c0.5-0.1,0.9-0.1,1.4-0.3l0.7-0.2l0.6-0.3c1.6-0.8,2.5-2.2,3-3.4c0.3-0.6,0.4-1.1,0.6-1.5
			c0.2-0.4,0.2-0.7,0.2-0.7l5.3,3C62.5,89.8,62.3,90.1,62,90.4z"/>
		<path fill="#BDC3C7" d="M96.3,15.3c0,29.2-27.7,30.9-34.9,30.8c-3.1,6.4-15.7,9.8-16,9.9c7.6-0.7,14.2-2.9,18.6-7.4
			c1.6,0.2,3.2,0.3,4.9,0.3C85.5,48.9,99,38.3,99,25.1C99,21.6,98,18.3,96.3,15.3z"/>
		
			<ellipse transform="matrix(0.7894 -0.6139 0.6139 0.7894 -20.7744 19.2652)" fill="#BDC3C7" cx="17.7" cy="39.9" rx="2.9" ry="8.7"/>
		<ellipse transform="matrix(0.596 -0.803 0.803 0.596 -42.5015 80.9013)" fill="#BDC3C7" cx="59.2" cy="82.7" rx="3.4" ry="8.7"/>
	</g>
</g>
</svg>
