<?xml version="1.0" encoding="utf-8"?>
<!-- Generator: Adobe Illustrator 18.0.0, SVG Export Plug-In . SVG Version: 6.00 Build 0)  -->
<!DOCTYPE svg PUBLIC "-//W3C//DTD SVG 1.1//EN" "http://www.w3.org/Graphics/SVG/1.1/DTD/svg11.dtd">
<svg version="1.1" id="Layer_1" xmlns="http://www.w3.org/2000/svg" xmlns:xlink="http://www.w3.org/1999/xlink" x="0px" y="0px"
	 width="100px" height="100px" viewBox="0 0 100 100" enable-background="new 0 0 100 100" xml:space="preserve">
<path fill="#FFFFFF" d="M50,1C22.9,1,1,22.9,1,50c0,27.1,21.9,49,49,49c27.1,0,49-21.9,49-49C99,22.9,77.1,1,50,1z M73.7,29.9
	L50,50.6L26.3,29.9H73.7z M24.6,32.6L42,47.7L24.6,67.2V32.6z M26.1,69.9L43.7,50l6.3,5.5l6.3-5.4l17.6,19.8H26.1z M75.6,67.2
	L58.3,47.7l17.3-15.2V67.2z"/>
<rect fill="none" width="100" height="100"/>
</svg>
