<?xml version="1.0" encoding="utf-8"?>
<!-- Generator: Adobe Illustrator 18.0.0, SVG Export Plug-In . SVG Version: 6.00 Build 0)  -->
<!DOCTYPE svg PUBLIC "-//W3C//DTD SVG 1.1//EN" "http://www.w3.org/Graphics/SVG/1.1/DTD/svg11.dtd">
<svg version="1.1" id="Layer_1" xmlns="http://www.w3.org/2000/svg" xmlns:xlink="http://www.w3.org/1999/xlink" x="0px" y="0px"
	 width="50px" height="50px" viewBox="0 0 50 50" enable-background="new 0 0 50 50" xml:space="preserve">
<g>
	<path fill="#E74C3C" d="M47,50H3c-1.7,0-3-1.3-3-3V3c0-1.7,1.3-3,3-3h44c1.7,0,3,1.3,3,3v44C50,48.7,48.7,50,47,50z"/>
	<g>
		<path fill="#FFFFFF" d="M35.5,23.4v-5.7h-6.2v-3.3h6.2V8.3h3.3v6.2h5.7v3.3h-5.7v5.7H35.5z M25.9,34.4c0,3.7-3.5,7.3-10,7.3
			c-5.6,0-10.4-2.3-10.4-6c0-3.7,4.3-7.3,10-7.3c0.6,0,1.2,0,1.8,0c-0.8-0.8-1.4-1.7-1.4-2.8c0-0.7,0.2-1.4,0.5-1.9
			c-0.3,0-0.6,0-0.9,0c-4.6,0-7.7-3.4-7.7-7.5c0-4,4.3-7.7,8.8-7.7c2.5,0,10.1,0,10.1,0l-2.3,2.1h-3.2c2.1,0.5,3.3,3.3,3.3,5.9
			c0,2.1-1.2,4-2.9,5.3c-1.6,1.3-1.9,1.8-1.9,2.9c0,0.9,1.8,2.5,2.7,3.2C25,29.7,25.9,31.5,25.9,34.4z M20.9,16.6
			c-0.5-3.4-2.9-6.2-5.6-6.3c-2.6-0.1-4.4,2.6-3.9,6c0.5,3.4,2.9,6.3,5.6,6.4C19.6,22.8,21.3,20.1,20.9,16.6z M23.3,34.8
			c0-0.4,0-0.7-0.1-1c-0.4-1.7-1.9-2.5-4.1-4c-0.8-0.2-1.6-0.4-2.5-0.4c-3.9,0-7.4,2.4-7.4,5.3c0,3,2.8,5.4,6.7,5.4
			C21.4,40.1,23.3,37.8,23.3,34.8z"/>
	</g>
</g>
</svg>
