<?xml version="1.0" encoding="utf-8"?>
<!-- Generator: Adobe Illustrator 18.0.0, SVG Export Plug-In . SVG Version: 6.00 Build 0)  -->
<!DOCTYPE svg PUBLIC "-//W3C//DTD SVG 1.1//EN" "http://www.w3.org/Graphics/SVG/1.1/DTD/svg11.dtd">
<svg version="1.1" xmlns="http://www.w3.org/2000/svg" xmlns:xlink="http://www.w3.org/1999/xlink" x="0px" y="0px" width="100px"
	 height="100px" viewBox="0 0 100 100" enable-background="new 0 0 100 100" xml:space="preserve">
<g id="Layer_2">
	<rect fill="none" width="100" height="100"/>
</g>
<g id="Layer_1">
	<g>
		<g>
			<path fill="#ECF0F1" d="M20.1,26.5c-3.5,0-6.4-2.9-6.4-6.4V20c0-3.5,2.9-6.4,6.4-6.4h3.1c1.4,0,2.5-1.1,2.5-2.5
				c0-4.2,3.3-7.5,7.4-7.5h0.2c4.1,0,7.4,3.3,7.4,7.4c0,1.5,1.1,2.6,2.5,2.6h3.1c3.5,0,6.4,2.9,6.4,6.4v0.1c0,3.5-2.9,6.4-6.4,6.4
				H20.1z"/>
			<path fill="#7F8C8D" d="M33.2,4.1c3.8,0,6.9,3.1,6.9,6.9v0.1c0,1.6,1.3,3,3,3h3.1c3.3,0,5.9,2.6,5.9,5.9v0.1
				c0,3.3-2.6,5.9-5.9,5.9h-26c-3.3,0-5.9-2.6-5.9-5.9V20c0-3.3,2.6-5.9,5.9-5.9h3.1c1.6,0,3-1.3,3-3V11c0-3.8,3.1-6.9,6.9-6.9H33.2
				 M33.2,3.1h-0.2c-4.4,0-7.9,3.5-7.9,7.9v0.1c0,1.1-0.9,2-2,2h-3.1c-3.8,0-6.9,3.1-6.9,6.9v0.1c0,3.8,3.1,6.9,6.9,6.9h26
				c3.8,0,6.9-3.1,6.9-6.9V20c0-3.8-3.1-6.9-6.9-6.9h-3.1c-1.1,0-2-0.9-2-2V11C41.1,6.6,37.6,3.1,33.2,3.1L33.2,3.1z"/>
		</g>
		<g>
			<circle fill="#7F8C8D" cx="33.1" cy="11.1" r="3"/>
		</g>
		<path fill="#F39C12" d="M56.8,95.5H9.5c-3.9,0-7-3.1-7-7V26.5c0-3.9,3.1-7,7-7h47.2c3.9,0,7,3.1,7,7v62.1
			C63.8,92.4,60.6,95.5,56.8,95.5z"/>
		<g>
			<defs>
				<path id="SVGID_1_" d="M56.8,95.5H9.5c-3.9,0-7-3.1-7-7V26.5c0-3.9,3.1-7,7-7h47.2c3.9,0,7,3.1,7,7v62.1
					C63.8,92.4,60.6,95.5,56.8,95.5z"/>
			</defs>
			<clipPath id="SVGID_2_">
				<use xlink:href="#SVGID_1_"  overflow="visible"/>
			</clipPath>
			<polygon opacity="0.1" clip-path="url(#SVGID_2_)" fill="#231F20" points="67.5,16.5 -1.2,99.4 71,99 			"/>
		</g>
		<rect x="9.4" y="34.4" fill="#FFFFFF" width="47.4" height="54.2"/>
		<g>
			<path d="M51.9,57.3H28.4c-0.7,0-1.4-0.6-1.4-1.4v-1.4c0-0.7,0.6-1.4,1.4-1.4h23.5c0.7,0,1.4,0.6,1.4,1.4V56
				C53.2,56.7,52.6,57.3,51.9,57.3z"/>
			<path d="M51.9,45.2H28.4c-0.7,0-1.4-0.6-1.4-1.4v-1.4c0-0.7,0.6-1.4,1.4-1.4h23.5c0.7,0,1.4,0.6,1.4,1.4v1.4
				C53.2,44.6,52.6,45.2,51.9,45.2z"/>
			<path d="M46.1,68.2H28.4c-0.7,0-1.4-0.6-1.4-1.4v-1.4c0-0.7,0.6-1.4,1.4-1.4h17.7c0.7,0,1.4,0.6,1.4,1.4v1.4
				C47.4,67.5,46.8,68.2,46.1,68.2z"/>
			<path d="M43.4,80.3h-15c-0.7,0-1.4-0.6-1.4-1.4v-1.4c0-0.7,0.6-1.4,1.4-1.4h15c0.7,0,1.4,0.6,1.4,1.4V79
				C44.7,79.7,44.1,80.3,43.4,80.3z"/>
		</g>
		<g>
			<path fill="#0584C7" d="M24.4,40.2l-5,5.6c-0.2,0.3-0.6,0.4-0.9,0.4c-0.3,0-0.5-0.1-0.8-0.3l-3.1-2.5c-0.5-0.4-0.6-1.2-0.2-1.7
				c0.4-0.5,1.2-0.6,1.7-0.2l2.2,1.8l4.2-4.7c0.5-0.5,1.2-0.6,1.8-0.1C24.8,38.9,24.9,39.7,24.4,40.2z"/>
			<path fill="#0584C7" d="M24.4,52.2l-5,5.6c-0.2,0.3-0.6,0.4-0.9,0.4c-0.3,0-0.5-0.1-0.8-0.3l-3.1-2.5c-0.5-0.4-0.6-1.2-0.2-1.7
				c0.4-0.5,1.2-0.6,1.7-0.2l2.2,1.8l4.2-4.7c0.5-0.5,1.2-0.6,1.8-0.1C24.8,50.9,24.9,51.7,24.4,52.2z"/>
			<path fill="#0584C7" d="M24.4,63.7l-5,5.6c-0.2,0.3-0.6,0.4-0.9,0.4c-0.3,0-0.5-0.1-0.8-0.3L14.6,67c-0.5-0.4-0.6-1.2-0.2-1.7
				c0.4-0.5,1.2-0.6,1.7-0.2l2.2,1.8l4.2-4.7c0.5-0.5,1.2-0.6,1.8-0.1C24.8,62.4,24.9,63.2,24.4,63.7z"/>
			<path fill="#0584C7" d="M24.4,75.3l-5,5.6c-0.2,0.3-0.6,0.4-0.9,0.4c-0.3,0-0.5-0.1-0.8-0.3l-3.1-2.5c-0.5-0.4-0.6-1.2-0.2-1.7
				c0.4-0.5,1.2-0.6,1.7-0.2l2.2,1.8l4.2-4.7c0.5-0.5,1.2-0.6,1.8-0.1C24.8,74,24.9,74.8,24.4,75.3z"/>
		</g>
		<g>
			
				<rect x="76" y="41.6" transform="matrix(0.9637 0.2671 -0.2671 0.9637 15.9447 -19.7429)" fill="#7F8C8D" width="9.1" height="14.3"/>
			<circle fill="#BDC3C7" cx="74.1" cy="72.5" r="23.4"/>
			<circle fill="#C0392B" cx="74.1" cy="72.5" r="21"/>
			<circle fill="#FFFFFF" cx="74.1" cy="72.5" r="18.3"/>
			<g>
				<defs>
					<circle id="SVGID_3_" cx="74.1" cy="72.5" r="18.3"/>
				</defs>
				<clipPath id="SVGID_4_">
					<use xlink:href="#SVGID_3_"  overflow="visible"/>
				</clipPath>
				
					<line clip-path="url(#SVGID_4_)" fill="#FFFFFF" stroke="#000000" stroke-width="2" stroke-miterlimit="10" x1="80.2" y1="51.2" x2="68.3" y2="93.9"/>
				
					<line clip-path="url(#SVGID_4_)" fill="#FFFFFF" stroke="#000000" stroke-width="2" stroke-miterlimit="10" x1="95.6" y1="78.5" x2="52.9" y2="66.6"/>
				
					<line clip-path="url(#SVGID_4_)" fill="#FFFFFF" stroke="#000000" stroke-width="2" stroke-miterlimit="10" x1="93.8" y1="61.5" x2="55.3" y2="83.3"/>
				
					<line clip-path="url(#SVGID_4_)" fill="#FFFFFF" stroke="#000000" stroke-width="2" stroke-miterlimit="10" x1="85.4" y1="91.7" x2="63.6" y2="53.2"/>
				<circle clip-path="url(#SVGID_4_)" fill="#FFFFFF" cx="74.1" cy="72.5" r="13.8"/>
			</g>
			<path fill="#E74C3C" d="M76.4,63.9c0,0-6.5,6.9-7.1,9.2c-0.7,2.4,0.7,4.8,3.1,5.4c2.4,0.7,4.8-0.7,5.4-3.1
				C78.4,73.1,76.4,63.9,76.4,63.9z"/>
			<path fill="#95A5A6" d="M91.6,50.7l-21.6-6l2.3-8.1c0.7-2.3,22.2,3.6,21.6,6L91.6,50.7z"/>
		</g>
	</g>
</g>
</svg>
