<?xml version="1.0" encoding="utf-8"?>
<!-- Generator: Adobe Illustrator 18.0.0, SVG Export Plug-In . SVG Version: 6.00 Build 0)  -->
<!DOCTYPE svg PUBLIC "-//W3C//DTD SVG 1.1//EN" "http://www.w3.org/Graphics/SVG/1.1/DTD/svg11.dtd">
<svg version="1.1" id="Layer_1" xmlns="http://www.w3.org/2000/svg" xmlns:xlink="http://www.w3.org/1999/xlink" x="0px" y="0px"
	 width="832px" height="202px" viewBox="0 0 832 202" enable-background="new 0 0 832 202" xml:space="preserve">
<g>
	<linearGradient id="SVGID_1_" gradientUnits="userSpaceOnUse" x1="630" y1="101" x2="832" y2="101">
		<stop  offset="0" style="stop-color:#3B5998"/>
		<stop  offset="1" style="stop-color:#8E44AD"/>
	</linearGradient>
	<circle fill="none" stroke="url(#SVGID_1_)" stroke-width="2" stroke-miterlimit="10" cx="731" cy="101" r="100"/>
	<linearGradient id="SVGID_2_" gradientUnits="userSpaceOnUse" x1="686.6645" y1="101.009" x2="775.3355" y2="101.009">
		<stop  offset="0" style="stop-color:#3B5998"/>
		<stop  offset="1" style="stop-color:#8E44AD"/>
	</linearGradient>
	<path fill="none" stroke="url(#SVGID_2_)" stroke-width="2" stroke-miterlimit="10" d="M747.9,93c4.2,4.4,18,23.1,18.5,25.3v15.2
		c0,1.4-1.1,2.5-2.5,2.5h-67.4c-1.4,0-2.5-1.1-2.5-2.5l0-15.1c0.5-2.3,14.3-21,18.6-25.3v-2.2v-2.5c0-1.1,1.3-1.2,2.9-1.2h2.6
		c1.6,0,2.9,0.1,2.9,1.2v2.2v1.7h18.5v-1.7v-2.2c0-1.1,1.3-1.2,2.9-1.2h2.6c1.6,0,2.9,0.1,2.9,1.2v2.5V93z M774.3,94.5
		c0-25-21.9-28.5-43.3-28.5c-21.4,0-43.3,3.5-43.3,28.5h-0.1c0,7,4,5.3,8.9,5.3c4.3,0,7.9,0.6,8.7-3.7c0.1-0.6,0.2-1.6,0.2-1.6h-0.1
		c1.4-17,11.6-15.6,26.1-15.4c14.6,0.1,23.8-1.6,25,15.4h-0.1c0,0,0.1,0.7,0.2,1.3c0.8,3.9,4.5,4,8.8,4
		C770.3,99.8,774.3,101.5,774.3,94.5L774.3,94.5z M719.5,125.8c0-1.9-1.5-3.4-3.4-3.4c-1.9,0-3.4,1.5-3.4,3.4c0,1.9,1.5,3.4,3.4,3.4
		C718,129.2,719.5,127.6,719.5,125.8z M719.5,114.1c0-1.9-1.5-3.4-3.4-3.4c-1.9,0-3.4,1.5-3.4,3.4s1.5,3.4,3.4,3.4
		C718,117.5,719.5,116,719.5,114.1z M719.5,102.5c0-1.9-1.5-3.4-3.4-3.4c-1.9,0-3.4,1.5-3.4,3.4c0,1.9,1.5,3.4,3.4,3.4
		C718,105.9,719.5,104.4,719.5,102.5z M733.5,125.8c0-1.9-1.5-3.4-3.4-3.4c-1.9,0-3.4,1.5-3.4,3.4c0,1.9,1.5,3.4,3.4,3.4
		C732,129.2,733.5,127.6,733.5,125.8z M733.5,114.1c0-1.9-1.5-3.4-3.4-3.4c-1.9,0-3.4,1.5-3.4,3.4s1.5,3.4,3.4,3.4
		C732,117.5,733.5,116,733.5,114.1z M733.5,102.5c0-1.9-1.5-3.4-3.4-3.4c-1.9,0-3.4,1.5-3.4,3.4c0,1.9,1.5,3.4,3.4,3.4
		C732,105.9,733.5,104.4,733.5,102.5z M747.5,125.8c0-1.9-1.5-3.4-3.4-3.4s-3.4,1.5-3.4,3.4c0,1.9,1.5,3.4,3.4,3.4
		S747.5,127.6,747.5,125.8z M747.5,114.1c0-1.9-1.5-3.4-3.4-3.4s-3.4,1.5-3.4,3.4s1.5,3.4,3.4,3.4S747.5,116,747.5,114.1z
		 M747.5,102.5c0-1.9-1.5-3.4-3.4-3.4s-3.4,1.5-3.4,3.4c0,1.9,1.5,3.4,3.4,3.4S747.5,104.4,747.5,102.5z"/>
</g>
<g>
	<linearGradient id="SVGID_3_" gradientUnits="userSpaceOnUse" x1="420" y1="101" x2="622" y2="101">
		<stop  offset="0" style="stop-color:#3B5998"/>
		<stop  offset="1" style="stop-color:#8E44AD"/>
	</linearGradient>
	<circle fill="none" stroke="url(#SVGID_3_)" stroke-width="2" stroke-miterlimit="10" cx="521" cy="101" r="100"/>
	<g>
		<linearGradient id="SVGID_4_" gradientUnits="userSpaceOnUse" x1="474.3364" y1="101" x2="567.6636" y2="101">
			<stop  offset="0" style="stop-color:#3B5998"/>
			<stop  offset="1" style="stop-color:#8E44AD"/>
		</linearGradient>
		<path fill="none" stroke="url(#SVGID_4_)" stroke-width="2" stroke-miterlimit="10" d="M483.1,96c4.3,0,7.8,3.5,7.8,7.8
			c0,4.3-3.5,7.8-7.8,7.8c-4.3,0-7.8-3.5-7.8-7.8C475.3,99.5,478.8,96,483.1,96z M503.3,59.6c0,4.8,3.9,8.6,8.6,8.6
			c4.8,0,8.6-3.9,8.6-8.6s-3.9-8.6-8.6-8.6C507.2,51,503.3,54.9,503.3,59.6z M505.1,143.2c0,4.3,3.5,7.8,7.8,7.8
			c4.3,0,7.8-3.5,7.8-7.8s-3.5-7.8-7.8-7.8C508.6,135.5,505.1,138.9,505.1,143.2z M551.1,127.9c0,4.3,3.5,7.8,7.8,7.8
			c4.3,0,7.8-3.5,7.8-7.8s-3.5-7.8-7.8-7.8C554.6,120.1,551.1,123.6,551.1,127.9z M551.1,79.7c0,4.3,3.5,7.8,7.8,7.8
			c4.3,0,7.8-3.5,7.8-7.8s-3.5-7.8-7.8-7.8C554.6,71.9,551.1,75.4,551.1,79.7z M514.6,135.3l3.3-15.6 M513.7,68l3.1,14.7
			 M490.5,104.5h10 M552.3,123.8L533.7,112 M552.3,83.8l-16.5,10.6 M537.1,101.2c0,10.2-8.3,18.5-18.5,18.5
			c-10.2,0-18.5-8.3-18.5-18.5s8.3-18.5,18.5-18.5C528.9,82.7,537.1,91,537.1,101.2z M510.8,112c-0.5,0-1-0.2-1.3-0.5l-0.6-0.6
			c-0.7-0.7-1-1.6-1-2.8c0-3.2,2.4-7.6,6.2-11.4c3.8-3.8,8.2-6.2,11.4-6.2c1.2,0,2.2,0.3,2.8,1l0.6,0.6c0.3,0.3,0.5,0.8,0.5,1.3
			c0,0.5-0.2,1-0.5,1.3l-2.6,2.6c-0.3,0.3-0.8,0.5-1.3,0.5l0,0c-0.5,0-1-0.2-1.3-0.5l-0.6-0.6c-0.3-0.3-0.8-0.5-1.3-0.5
			c-0.9,0-2.6,0.5-5.1,3.1c-2.1,2.1-3.1,3.8-3.1,5.1c0,0.5,0.2,1,0.5,1.3l0.6,0.6c0.3,0.3,0.5,0.8,0.5,1.3c0,0.5-0.2,1-0.5,1.3
			l-2.6,2.6C511.7,111.8,511.3,112,510.8,112z"/>
	</g>
</g>
<g>
	<linearGradient id="SVGID_5_" gradientUnits="userSpaceOnUse" x1="210" y1="101" x2="412" y2="101">
		<stop  offset="0" style="stop-color:#3B5998"/>
		<stop  offset="1" style="stop-color:#8E44AD"/>
	</linearGradient>
	<circle fill="none" stroke="url(#SVGID_5_)" stroke-width="2" stroke-miterlimit="10" cx="311" cy="101" r="100"/>
	<g>
		<linearGradient id="SVGID_6_" gradientUnits="userSpaceOnUse" x1="267.7439" y1="101" x2="354.2561" y2="101">
			<stop  offset="0" style="stop-color:#3B5998"/>
			<stop  offset="1" style="stop-color:#8E44AD"/>
		</linearGradient>
		<path fill="none" stroke="url(#SVGID_6_)" stroke-width="2" stroke-miterlimit="10" d="M325.5,66h22.2c3.1,0,5.5,2.5,5.5,5.5v6.8
			v5.5v46.5c0,3.1-2.5,5.5-5.5,5.5h-73.4c-3.1,0-5.5-2.5-5.5-5.5V84.4c0-3.1,2.5-5.5,5.5-5.5h42.2c1.9,0,3.5-1.6,3.5-3.5v-3.8
			C320,68.5,322.4,66,325.5,66z M298,128.1l5.1-5.1c0.7-0.7,1.1-1.6,1.1-2.6s-0.4-1.9-1.1-2.6l-1.3-1.3c-0.7-0.7-1-1.6-1-2.7
			c0-2.6,2.1-6,6.1-10.1c5.1-5.1,8.3-6.1,10.2-6.1c1.1,0,1.9,0.3,2.6,1l1.3,1.3c0.6,0.6,1.6,1,2.6,1l0,0c1,0,1.9-0.4,2.6-1l5.1-5.1
			c0.7-0.7,1.1-1.6,1.1-2.6c0-1-0.4-1.9-1.1-2.6l-1.3-1.3c-1.3-1.3-3.2-2-5.6-2c-6.4,0-15,4.7-22.6,12.2
			c-7.5,7.5-12.2,16.2-12.2,22.5c0,2.4,0.7,4.3,2,5.6l1.3,1.3c0.7,0.7,1.6,1.1,2.6,1.1C296.4,129.2,297.3,128.8,298,128.1z
			 M274.3,79v-6.2c0-0.9,0.8-1.7,1.7-1.7h44.1"/>
	</g>
</g>
<g>
	<linearGradient id="SVGID_7_" gradientUnits="userSpaceOnUse" x1="0" y1="101" x2="202" y2="101">
		<stop  offset="0" style="stop-color:#3B5998"/>
		<stop  offset="1" style="stop-color:#8E44AD"/>
	</linearGradient>
	<circle fill="none" stroke="url(#SVGID_7_)" stroke-width="2" stroke-miterlimit="10" cx="101" cy="101" r="100"/>
	<linearGradient id="SVGID_8_" gradientUnits="userSpaceOnUse" x1="58.4041" y1="101.1883" x2="143.5959" y2="101.1883">
		<stop  offset="0" style="stop-color:#3B5998"/>
		<stop  offset="1" style="stop-color:#8E44AD"/>
	</linearGradient>
	
		<path fill="none" stroke="url(#SVGID_8_)" stroke-width="2" stroke-linecap="round" stroke-linejoin="round" stroke-miterlimit="10" d="
		M141.2,67.9L141.2,67.9c2.1,2.4,1.8,6-0.6,8l-32,27.1l-7.3-8.6l32-27.1C135.7,65.2,139.2,65.5,141.2,67.9z M94.4,107.7l11.4-2.8
		L99,96.8L94.4,107.7z M105.5,85.5H70.8l-11.4,51h78.1l-9.9-44.3 M84,123.5l2.3-11H73.8l-2.3,11H84z M87.5,95.5H77.2l-2.2,11h12.5
		l0.6-5.2 M81.1,98.5l2.9,3.2l8.5-5.7"/>
</g>
</svg>
