<?xml version="1.0" encoding="utf-8"?>
<!-- Generator: Adobe Illustrator 18.0.0, SVG Export Plug-In . SVG Version: 6.00 Build 0)  -->
<!DOCTYPE svg PUBLIC "-//W3C//DTD SVG 1.1//EN" "http://www.w3.org/Graphics/SVG/1.1/DTD/svg11.dtd">
<svg version="1.1" id="Layer_1" xmlns="http://www.w3.org/2000/svg" xmlns:xlink="http://www.w3.org/1999/xlink" x="0px" y="0px"
	 width="100px" height="100px" viewBox="0 0 100 100" enable-background="new 0 0 100 100" xml:space="preserve">
<g>
	
		<rect x="73.1" y="52.8" transform="matrix(0.387 0.9221 -0.9221 0.387 98.8206 -41.3887)" fill="#BDC3C7" width="15" height="1.7"/>
	
		<rect x="79.4" y="52.8" transform="matrix(-0.387 0.9221 -0.9221 -0.387 169.9318 -5.7271)" fill="#BDC3C7" width="15" height="1.7"/>
	<line fill="#FFFFFF" x1="47" y1="33" x2="47" y2="70"/>
	<polyline fill="#7F8C8D" points="46,33 46,70 48,70 48,33 46,33 	"/>
	<polyline fill="#FFFFFF" points="48.1,32.5 77.5,57.2 48.1,32.5 	"/>
	<polyline fill="#7F8C8D" points="47.4,33.2 76.8,57.9 78.2,56.5 48.8,31.8 47.4,33.2 	"/>
	<polyline fill="#FFFFFF" points="47.2,32.5 17.8,57.2 47.2,32.5 	"/>
	<polyline fill="#7F8C8D" points="46.5,31.8 17.1,56.5 18.5,57.9 47.9,33.2 46.5,31.8 	"/>
	<path fill="#3498DB" d="M65.8,20.1c0,10.3-8.3,18.6-18.6,18.6s-18.6-8.3-18.6-18.6c0-10.3,8.3-18.6,18.6-18.6S65.8,9.8,65.8,20.1"
		/>
	<g>
		<defs>
			<path id="SVGID_1_" d="M65.8,20.1c0,10.3-8.3,18.6-18.6,18.6s-18.6-8.3-18.6-18.6c0-10.3,8.3-18.6,18.6-18.6S65.8,9.8,65.8,20.1"
				/>
		</defs>
		<clipPath id="SVGID_2_">
			<use xlink:href="#SVGID_1_"  overflow="visible"/>
		</clipPath>
		<path clip-path="url(#SVGID_2_)" fill="#3186BF" d="M47.2,1.5v37.2c10.3,0,18.6-8.3,18.6-18.6C65.8,9.8,57.5,1.5,47.2,1.5"/>
	</g>
	<path fill="#FFFFFF" d="M39.3,31c-0.5,0-1-0.2-1.3-0.5l-0.7-0.6c-0.7-0.7-1-1.6-1-2.8c0-3.3,2.4-7.7,6.2-11.5
		c3.8-3.8,8.3-6.2,11.5-6.2c1.2,0,2.2,0.4,2.8,1l0.7,0.7c0.3,0.3,0.5,0.8,0.5,1.3c0,0.5-0.2,1-0.5,1.3l-2.6,2.6
		c-0.3,0.3-0.8,0.5-1.3,0.5c-0.5,0-1-0.2-1.3-0.5l-0.7-0.7c-0.3-0.3-0.8-0.5-1.3-0.5c-0.9,0-2.6,0.5-5.2,3.1
		c-2.1,2.1-3.1,3.8-3.1,5.1c0,0.5,0.2,1,0.5,1.4l0.7,0.7c0.3,0.3,0.5,0.8,0.5,1.3c0,0.5-0.2,1-0.5,1.3l-2.6,2.6
		C40.2,30.8,39.8,31,39.3,31z"/>
	<rect x="26.2" y="66.5" fill="#BDC3C7" width="42" height="32"/>
	<rect x="28" y="73" fill="#FFFFFF" width="38" height="23"/>
	<rect x="62.2" y="68.5" fill="#FFFFFF" width="4" height="2"/>
	<rect x="56.2" y="68.5" fill="#FFFFFF" width="4" height="2"/>
	<rect x="28.2" y="68.5" fill="#FFFFFF" width="26" height="2"/>
	<rect x="30.2" y="74.5" fill="#0584C7" width="17.4" height="19"/>
	<rect x="50.1" y="74.5" fill="#7F8C8D" width="13.3" height="3"/>
	<rect x="50.1" y="79.5" fill="#7F8C8D" width="13.3" height="3"/>
	<rect x="50.1" y="84.5" fill="#7F8C8D" width="9.1" height="3"/>
	<path fill="#BDC3C7" d="M96.1,55.3c-2.3-0.3-4.8-0.6-7.4-0.7l-3.3-0.1c-0.6,0-1.1,0-1.7,0l-3.3,0.1c-3.2,0.1-6.2,0.4-9,0.8
		c-0.7,2.8-1.1,6-1.1,9.3s0.4,6.4,1.1,9.3c3.8,0.5,8,0.8,12.4,0.8s8.6-0.3,12.4-0.8c0.7-2.8,1.1-6,1.1-9.3S96.8,58.1,96.1,55.3z"/>
	<path fill="#ECF0F1" d="M93,70.7c-2.8,0.4-6,0.6-9.3,0.6s-6.4-0.2-9.3-0.6c-0.5-1.9-0.8-4-0.8-6.2c0-2.2,0.3-4.3,0.8-6.2
		c2.8-0.4,6-0.6,9.3-0.6c3.3,0,6.4,0.2,9.3,0.6c0.5,1.9,0.8,4,0.8,6.2C93.8,66.7,93.5,68.8,93,70.7z"/>
	<rect x="75.9" y="66.5" fill="#3498DB" width="16" height="3.5"/>
	<rect x="76.4" y="60.1" fill="#7F8C8D" width="15" height="1.7"/>
	<rect x="77.7" y="62.7" fill="#7F8C8D" width="12.3" height="1.7"/>
	<path fill="#BDC3C7" d="M4.1,43H23L5.9,37.7c-0.3,0.6-0.8,0.9-1.5,0.9c-0.9,0-1.6-0.7-1.6-1.6c0-0.9,0.7-1.6,1.6-1.6
		c0.9,0,1.6,0.7,1.6,1.6l19.2,5.4c0.3-0.3,0.7-0.5,1.2-0.5c0.7,0,1.3,0.5,1.6,1.1c0.7,0.1,1.2,0.6,1.2,1.3v16c0,0.8-0.5,1.3-1.3,1.3
		H4.1c-0.8,0-1.3-0.5-1.3-1.3v-16C2.8,43.6,3.4,43,4.1,43z"/>
	<path fill="#ECF0F1" d="M26.1,60.1H6c-1,0-1.7-0.8-1.7-1.7V46c0-1,0.8-1.7,1.7-1.7h20.1c1,0,1.7,0.8,1.7,1.7v12.4
		C27.8,59.4,27.1,60.1,26.1,60.1z"/>
	<path fill="#7F8C8D" d="M12.2,58.4c3.3,0,6-2.7,6-6s-2.7-6-6-6s-6,2.7-6,6S8.9,58.4,12.2,58.4z"/>
	<path fill="#7F8C8D" d="M24.1,50.6c1.1,0,2.1-1,2.1-2.1c0-1.1-1-2.1-2.1-2.1s-2.1,1-2.1,2.1C21.9,49.6,22.9,50.6,24.1,50.6z"/>
	<path fill="#7F8C8D" d="M24.1,58c1.1,0,2.1-1,2.1-2.1c0-1.1-1-2.1-2.1-2.1s-2.1,1-2.1,2.1C21.9,57,22.9,58,24.1,58z"/>
	<path fill="#BDC3C7" d="M17.1,52.3c0,0.2,0,0.3-0.1,0.5H7.2c0-0.2-0.1-0.3-0.1-0.5s0-0.3,0.1-0.5H17C17,52,17.1,52.1,17.1,52.3z"/>
	<path fill="#BDC3C7" d="M8.1,49.6c-0.2,0.3-0.4,0.7-0.5,1.1h9.3c-0.1-0.4-0.3-0.8-0.5-1.1H8.1z"/>
	<path fill="#BDC3C7" d="M15.2,56.2H9.1c0.9,0.7,1.9,1.1,3.1,1.1C13.4,57.3,14.4,56.9,15.2,56.2z"/>
	<path fill="#BDC3C7" d="M16.8,54H7.4c0.1,0.4,0.3,0.8,0.5,1.1h8.2C16.4,54.8,16.7,54.4,16.8,54z"/>
	<path fill="#BDC3C7" d="M9.1,48.5h6.2c-0.9-0.7-1.9-1.1-3.1-1.1C11,47.4,10,47.8,9.1,48.5z"/>
</g>
<rect fill="none" width="100" height="100"/>
</svg>
