<?xml version="1.0" encoding="utf-8"?>
<!-- Generator: Adobe Illustrator 18.0.0, SVG Export Plug-In . SVG Version: 6.00 Build 0)  -->
<!DOCTYPE svg PUBLIC "-//W3C//DTD SVG 1.1//EN" "http://www.w3.org/Graphics/SVG/1.1/DTD/svg11.dtd">
<svg version="1.1" id="Layer_1" xmlns="http://www.w3.org/2000/svg" xmlns:xlink="http://www.w3.org/1999/xlink" x="0px" y="0px"
	 width="248.4px" height="83.1px" viewBox="0 0 248.4 83.1" enable-background="new 0 0 248.4 83.1" xml:space="preserve">
<g>
	<g>
		<path fill="#666666" d="M110.1,48.2l0,0.1c0,3.1-0.8,5.6-2.6,7.4c-1.8,1.8-4.3,2.7-7.5,2.7c-3.2,0-5.8-1.1-7.8-3.4
			c-2-2.2-3-5.1-3-8.7v-5.7c0-3.5,1-6.4,2.9-8.7c1.9-2.3,4.5-3.4,7.6-3.4c3.3,0,5.9,0.9,7.7,2.8c1.9,1.8,2.8,4.3,2.7,7.5l0,0.1h-5.2
			c0-1.9-0.4-3.4-1.3-4.4c-0.8-1-2.1-1.5-3.9-1.5c-1.6,0-2.9,0.7-3.8,2.1c-0.9,1.4-1.4,3.2-1.4,5.4v5.8c0,2.2,0.5,4,1.5,5.4
			c1,1.4,2.3,2.1,4,2.1c1.7,0,2.9-0.5,3.7-1.5c0.8-1,1.2-2.4,1.2-4.3H110.1z"/>
		<path fill="#666666" d="M128.2,51.8h-9.3L117,58h-5.4l9.1-29h5.5l9.1,29H130L128.2,51.8z M120.2,47.2h6.7l-3.3-11.4h-0.1
			L120.2,47.2z"/>
		<path fill="#666666" d="M143.2,53.6H155V58h-17.2v-29h5.3V53.6z"/>
		<path fill="#666666" d="M163.4,53.6h11.8V58h-17.2v-29h5.3V53.6z"/>
		<path fill="#666666" d="M178.3,58v-29h9c3.1,0,5.6,0.7,7.3,2c1.8,1.3,2.6,3.3,2.6,5.9c0,1.3-0.3,2.5-1,3.6
			c-0.7,1.1-1.6,1.8-2.8,2.4c1.6,0.4,2.8,1.2,3.6,2.4c0.8,1.2,1.2,2.6,1.2,4.2c0,2.8-0.8,4.9-2.5,6.3c-1.7,1.4-4.1,2.1-7.1,2.1
			H178.3z M183.7,41.2h3.8c1.4,0,2.5-0.3,3.3-1c0.8-0.6,1.2-1.6,1.2-2.8c0-1.3-0.4-2.3-1.2-3c-0.8-0.6-1.9-1-3.5-1h-3.7V41.2z
			 M183.7,45.2v8.3h4.9c1.4,0,2.5-0.3,3.2-1c0.7-0.7,1.1-1.7,1.1-3c0-1.4-0.3-2.5-1-3.2c-0.6-0.7-1.6-1.1-3-1.1H183.7z"/>
		<path fill="#666666" d="M223.7,46.2c0,3.6-1,6.5-3.1,8.8s-4.7,3.5-8,3.5c-3.3,0-5.9-1.2-8-3.5c-2-2.3-3.1-5.3-3.1-8.8V41
			c0-3.5,1-6.5,3.1-8.8s4.7-3.5,8-3.5c3.3,0,6,1.2,8.1,3.5c2.1,2.3,3.1,5.3,3.1,8.8V46.2z M218.4,40.9c0-2.3-0.5-4.1-1.6-5.6
			c-1-1.4-2.5-2.2-4.3-2.2s-3.2,0.7-4.2,2.2s-1.5,3.3-1.5,5.6v5.3c0,2.3,0.5,4.2,1.5,5.6c1,1.4,2.4,2.2,4.2,2.2
			c1.8,0,3.3-0.7,4.3-2.2c1-1.4,1.5-3.3,1.5-5.6V40.9z"/>
		<path fill="#666666" d="M236.8,39.3l5-10.3h6.2l-7.9,14.4l8.3,14.6H242l-5.1-10.4L231.7,58h-6.2l8.1-14.6l-7.9-14.4h6.2
			L236.8,39.3z"/>
	</g>
	<g>
		<path fill="#046598" d="M46.1,80.9c-3,3-7.9,3-11,0L2.3,48c-3-3-3-7.9,0-11L35.1,4.2c3-3,7.9-3,11,0L79,37c3,3,3,7.9,0,11
			L46.1,80.9z"/>
		<path fill="#0584C7" d="M48,79c-3,3-7.9,3-11,0L4.2,46.1c-3-3-3-7.9,0-11L37,2.3c3-3,7.9-3,11,0l32.9,32.9c3,3,3,7.9,0,11L48,79z"
			/>
		<path fill="#FFFFFF" d="M30.6,21.1c-3.8,0-6.8,1.5-9.2,4.4c-2.4,2.9-3.5,6.7-3.5,11.3v8c0,4.6,1.2,8.4,3.7,11.3
			c2.5,2.9,5.6,4.3,9.6,4.3c3.9,0,6.9-1.2,8.9-3.5c2.1-2.4,3.2-5.8,3.3-10.2l0-0.2h-7.2c-0.1,2.5-0.5,4.3-1.3,5.4
			c-0.7,1.1-2,1.7-3.8,1.7c-1.8,0-3.3-0.8-4.3-2.4c-1-1.6-1.6-3.7-1.6-6.4v-8c0-2.6,0.5-4.7,1.4-6.3c1-1.6,2.3-2.4,3.9-2.4
			c2,0,3.4,0.6,4.2,1.8c0.8,1.2,1.3,3,1.4,5.5h7.2l0-0.2c-0.3-4.5-1.5-7.9-3.6-10.3C37.7,22.3,34.6,21.1,30.6,21.1z"/>
		<path fill="#FFFFFF" d="M65.9,43.2c-0.9-1.6-2.3-2.6-4.1-3.1c1.5-0.7,2.6-1.8,3.3-3.3c0.7-1.5,1.1-3.1,1.1-5
			c0-3.6-1.1-6.3-3.3-8.1c-2.2-1.8-5.3-2.7-9.2-2.7H39c4.1,2.2,6.8,6.5,6.8,11.4v16.7c0,3-1.1,6-3,8.3c-0.9,1.1-1.9,2-3.1,2.8h15.5
			c3.9,0,6.9-1,8.9-2.9c2.1-2,3.1-4.8,3.1-8.7C67.2,46.6,66.8,44.8,65.9,43.2z M50.1,28h3.5c1.7,0,3,0.4,3.9,1.1
			c0.8,0.8,1.3,2,1.3,3.6c0,1.5-0.4,2.6-1.2,3.4c-0.8,0.8-2.1,1.2-3.7,1.2h-3.7V28z M58.7,52.1c-0.8,0.8-2,1.1-3.5,1.1h-5.1v-9.8
			h5.5c1.5,0,2.6,0.4,3.3,1.3c0.7,0.9,1,2.2,1,3.9C59.9,50.2,59.5,51.3,58.7,52.1z"/>
		<path fill="#024467" d="M50.1,28h3.5c1.7,0,3,0.4,3.9,1.1c0.8,0.8,1.3,2,1.3,3.6c0,1.5-0.4,2.6-1.2,3.4c-0.8,0.8-2.1,1.2-3.7,1.2
			h-3.7V28z"/>
		<path fill="#024467" d="M58.7,52.1c-0.8,0.8-2,1.1-3.5,1.1h-5.1v-9.8h5.5c1.5,0,2.6,0.4,3.3,1.3c0.7,0.9,1,2.2,1,3.9
			C59.9,50.2,59.5,51.3,58.7,52.1z"/>
		<path fill="none" d="M39,21.1L39,21.1l14.8,0c-0.1,0-0.2,0-0.2,0H39z"/>
		<path fill="#046598" d="M82.6,43.5L64,24.9c1.4,1.7,2.1,4,2.1,6.9c0,1.9-0.4,3.5-1.1,5c-0.7,1.5-1.8,2.5-3.3,3.3
			c1.9,0.5,3.2,1.6,4.1,3.1c0.9,1.6,1.3,3.4,1.3,5.4c0,3.8-1,6.7-3.1,8.7c-2.1,2-5.1,2.9-8.9,2.9H39.7c1.2-0.7,2.2-1.7,3.1-2.8
			c2-2.3,3-5.3,3-8.3V32.4c0-4.9-2.8-9.2-6.8-11.4l-8.6,0l0,0c0.1,0,0.1,0,0.2,0c4,0,7.1,1.2,9.2,3.6c2.1,2.4,3.3,5.9,3.6,10.3
			l0,0.2h-7.2c-0.1-2.5-0.6-4.3-1.4-5.5c-0.8-1.2-2.2-1.8-4.2-1.8c-1.7,0-3,0.8-3.9,2.4c-1,1.6-1.4,3.7-1.4,6.3v8
			c0,2.6,0.5,4.8,1.6,6.4c1,1.6,2.5,2.4,4.3,2.4c1.8,0,3-0.6,3.8-1.7c0.7-1.1,1.2-2.9,1.3-5.4h7.2l0,0.2c-0.1,4.5-1.2,7.9-3.3,10.2
			c-2.1,2.4-5,3.5-8.9,3.5c-3.3,0-6.1-1-8.4-3.1L46,80.4c0.7-0.4,1.4-0.8,2-1.4l32.9-32.9C81.6,45.3,82.2,44.4,82.6,43.5z"/>
		<path fill="#024467" d="M64,24.9c1.4,1.7,2.1,4,2.1,6.9c0,1.9-0.4,3.5-1.1,5c-0.7,1.5-1.8,2.5-3.3,3.3c1.9,0.5,3.2,1.6,4.1,3.1
			c0.9,1.6,1.3,3.4,1.3,5.4c0,3.8-1,6.7-3.1,8.7c-2.1,2-5.1,2.9-8.9,2.9H39.7l13.5,13.5l13.5-13.5l14.1-14.1
			c0.8-0.8,1.3-1.6,1.7-2.6L64,24.9z"/>
	</g>
</g>
</svg>
