<?xml version="1.0" encoding="utf-8"?>
<!-- Generator: Adobe Illustrator 18.0.0, SVG Export Plug-In . SVG Version: 6.00 Build 0)  -->
<!DOCTYPE svg PUBLIC "-//W3C//DTD SVG 1.1//EN" "http://www.w3.org/Graphics/SVG/1.1/DTD/svg11.dtd">
<svg version="1.1" id="Layer_1" xmlns="http://www.w3.org/2000/svg" xmlns:xlink="http://www.w3.org/1999/xlink" x="0px" y="0px"
	 width="168.4px" height="50px" viewBox="0 0 168.4 50" enable-background="new 0 0 168.4 50" xml:space="preserve">
<g>
	<g>
		<path fill="#FFFFFF" d="M73.5,29.5L73.5,29.5c0.1,2.2-0.5,3.9-1.8,5.2c-1.2,1.3-2.9,1.9-5.1,1.9c-2.2,0-4-0.8-5.3-2.3
			c-1.4-1.5-2.1-3.5-2.1-5.9v-3.9c0-2.4,0.7-4.4,2-5.9c1.3-1.5,3.1-2.3,5.2-2.3c2.3,0,4,0.6,5.3,1.9s1.9,3,1.8,5.1l0,0.1H70
			c0-1.3-0.3-2.3-0.9-3c-0.6-0.7-1.5-1-2.7-1c-1.1,0-2,0.5-2.6,1.4c-0.6,1-1,2.2-1,3.7v4c0,1.5,0.3,2.8,1,3.7c0.7,1,1.6,1.4,2.7,1.4
			c1.1,0,2-0.3,2.5-1s0.8-1.7,0.8-3H73.5z"/>
		<path fill="#FFFFFF" d="M85.9,32h-6.4l-1.2,4.3h-3.7l6.3-19.8h3.7l6.2,19.8h-3.7L85.9,32z M80.4,28.8H85l-2.3-7.8h-0.1L80.4,28.8z
			"/>
		<path fill="#FFFFFF" d="M96.2,33.2h8.1v3.1H92.5V16.4h3.6V33.2z"/>
		<path fill="#FFFFFF" d="M110,33.2h8.1v3.1h-11.8V16.4h3.6V33.2z"/>
		<path fill="#FFFFFF" d="M120.2,36.2V16.4h6.1c2.1,0,3.8,0.5,5,1.4c1.2,0.9,1.8,2.3,1.8,4.1c0,0.9-0.2,1.7-0.7,2.5
			s-1.1,1.3-1.9,1.6c1.1,0.3,1.9,0.8,2.5,1.6c0.5,0.8,0.8,1.8,0.8,2.9c0,1.9-0.6,3.3-1.7,4.3c-1.1,1-2.8,1.5-4.9,1.5H120.2z
			 M123.9,24.7h2.6c1,0,1.7-0.2,2.3-0.7c0.5-0.4,0.8-1.1,0.8-1.9c0-0.9-0.3-1.6-0.8-2c-0.5-0.4-1.3-0.7-2.4-0.7h-2.5V24.7z
			 M123.9,27.5v5.7h3.4c1,0,1.7-0.2,2.2-0.7c0.5-0.5,0.8-1.1,0.8-2c0-1-0.2-1.7-0.7-2.2c-0.4-0.5-1.1-0.8-2-0.8H123.9z"/>
		<path fill="#FFFFFF" d="M151.3,28.1c0,2.4-0.7,4.4-2.1,6s-3.2,2.4-5.5,2.4c-2.2,0-4.1-0.8-5.5-2.4s-2.1-3.6-2.1-6v-3.6
			c0-2.4,0.7-4.4,2.1-6c1.4-1.6,3.2-2.4,5.5-2.4c2.3,0,4.1,0.8,5.5,2.4c1.4,1.6,2.1,3.6,2.1,6V28.1z M147.7,24.5
			c0-1.5-0.4-2.8-1.1-3.8c-0.7-1-1.7-1.5-2.9-1.5s-2.2,0.5-2.9,1.5s-1,2.3-1,3.8v3.6c0,1.6,0.3,2.9,1,3.8c0.7,1,1.7,1.5,2.9,1.5
			c1.3,0,2.2-0.5,2.9-1.5c0.7-1,1.1-2.3,1.1-3.8V24.5z"/>
		<path fill="#FFFFFF" d="M160.3,23.4l3.4-7h4.3l-5.4,9.8l5.7,10h-4.4l-3.5-7.1l-3.5,7.1h-4.3l5.5-10l-5.4-9.8h4.2L160.3,23.4z"/>
	</g>
	<g>
		<path fill="#006599" d="M27.7,48.6c-1.8,1.8-4.8,1.8-6.6,0L1.4,28.9c-1.8-1.8-1.8-4.8,0-6.6L21.1,2.5c1.8-1.8,4.8-1.8,6.6,0
			l19.8,19.8c1.8,1.8,1.8,4.8,0,6.6L27.7,48.6z"/>
		<path fill="#0084C7" d="M28.9,47.5c-1.8,1.8-4.8,1.8-6.6,0L2.5,27.7c-1.8-1.8-1.8-4.8,0-6.6L22.3,1.4c1.8-1.8,4.8-1.8,6.6,0
			l19.8,19.8c1.8,1.8,1.8,4.8,0,6.6L28.9,47.5z"/>
		<path fill="#FFFFFF" d="M18.4,12.7c-2.3,0-4.1,0.9-5.5,2.6c-1.4,1.7-2.1,4-2.1,6.8v4.8c0,2.8,0.7,5,2.2,6.8
			c1.5,1.7,3.4,2.6,5.8,2.6c2.4,0,4.1-0.7,5.4-2.1c1.2-1.4,1.9-3.5,2-6.2l0-0.1h-4.3c-0.1,1.5-0.3,2.6-0.8,3.3c-0.4,0.7-1.2,1-2.3,1
			c-1.1,0-2-0.5-2.6-1.5c-0.6-1-0.9-2.3-0.9-3.8V22c0-1.6,0.3-2.8,0.9-3.8c0.6-1,1.4-1.5,2.4-1.5c1.2,0,2,0.4,2.5,1.1
			c0.5,0.7,0.8,1.8,0.8,3.3h4.3l0-0.1c-0.2-2.7-0.9-4.8-2.2-6.2C22.7,13.4,20.8,12.7,18.4,12.7z"/>
		<path fill="#FFFFFF" d="M39.6,26c-0.5-0.9-1.4-1.6-2.5-1.9c0.9-0.4,1.6-1.1,2-2c0.4-0.9,0.6-1.9,0.6-3c0-2.1-0.7-3.8-2-4.8
			c-1.3-1.1-3.2-1.6-5.5-1.6h-8.8c2.4,1.3,4.1,3.9,4.1,6.9v10.1c0,1.8-0.6,3.6-1.8,5c-0.5,0.7-1.2,1.2-1.9,1.7h9.3
			c2.3,0,4.1-0.6,5.4-1.8c1.2-1.2,1.9-2.9,1.9-5.2C40.4,28,40.2,26.9,39.6,26z M30.1,16.9h2.1c1,0,1.8,0.2,2.3,0.7
			c0.5,0.5,0.8,1.2,0.8,2.2c0,0.9-0.2,1.6-0.7,2c-0.5,0.5-1.3,0.7-2.3,0.7h-2.2V16.9z M35.3,31.3c-0.5,0.5-1.2,0.7-2.1,0.7h-3.1
			v-5.9h3.3c0.9,0,1.6,0.3,2,0.8c0.4,0.5,0.6,1.3,0.6,2.3C36,30.2,35.8,30.9,35.3,31.3z"/>
		<path fill="#004366" d="M30.1,16.9h2.1c1,0,1.8,0.2,2.3,0.7c0.5,0.5,0.8,1.2,0.8,2.2c0,0.9-0.2,1.6-0.7,2
			c-0.5,0.5-1.3,0.7-2.3,0.7h-2.2V16.9z"/>
		<path fill="#004366" d="M35.3,31.3c-0.5,0.5-1.2,0.7-2.1,0.7h-3.1v-5.9h3.3c0.9,0,1.6,0.3,2,0.8c0.4,0.5,0.6,1.3,0.6,2.3
			C36,30.2,35.8,30.9,35.3,31.3z"/>
		<path fill="none" d="M23.5,12.7L23.5,12.7l8.9,0c0,0-0.1,0-0.1,0H23.5z"/>
		<path fill="#006599" d="M49.7,26.2L38.5,15c0.9,1,1.3,2.4,1.3,4.1c0,1.1-0.2,2.1-0.6,3c-0.4,0.9-1.1,1.5-2,2
			c1.1,0.3,1.9,0.9,2.5,1.9c0.5,0.9,0.8,2,0.8,3.3c0,2.3-0.6,4-1.9,5.2c-1.3,1.2-3,1.8-5.4,1.8h-9.3c0.7-0.4,1.3-1,1.9-1.7
			c1.2-1.4,1.8-3.2,1.8-5V19.5c0-3-1.7-5.5-4.1-6.9l-5.2,0l0,0c0,0,0.1,0,0.1,0c2.4,0,4.3,0.7,5.5,2.2c1.3,1.5,2,3.5,2.2,6.2l0,0.1
			h-4.3c-0.1-1.5-0.3-2.6-0.8-3.3c-0.5-0.7-1.3-1.1-2.5-1.1c-1,0-1.8,0.5-2.4,1.5c-0.6,1-0.9,2.2-0.9,3.8v4.8c0,1.6,0.3,2.9,0.9,3.8
			c0.6,1,1.5,1.5,2.6,1.5c1.1,0,1.8-0.3,2.3-1c0.4-0.7,0.7-1.8,0.8-3.3h4.3l0,0.1c-0.1,2.7-0.7,4.7-2,6.2c-1.2,1.4-3,2.1-5.4,2.1
			c-2,0-3.7-0.6-5-1.9l14,14c0.4-0.2,0.8-0.5,1.2-0.9l19.8-19.8C49.1,27.3,49.4,26.7,49.7,26.2z"/>
		<path fill="#004366" d="M38.5,15c0.9,1,1.3,2.4,1.3,4.1c0,1.1-0.2,2.1-0.6,3c-0.4,0.9-1.1,1.5-2,2c1.1,0.3,1.9,0.9,2.5,1.9
			c0.5,0.9,0.8,2,0.8,3.3c0,2.3-0.6,4-1.9,5.2c-1.3,1.2-3,1.8-5.4,1.8h-9.3l8.1,8.1l8.1-8.1l8.5-8.5c0.5-0.5,0.8-1,1-1.6L38.5,15z"
			/>
	</g>
</g>
</svg>
