<?xml version="1.0" encoding="utf-8"?>
<!-- Generator: Adobe Illustrator 18.0.0, SVG Export Plug-In . SVG Version: 6.00 Build 0)  -->
<!DOCTYPE svg PUBLIC "-//W3C//DTD SVG 1.1//EN" "http://www.w3.org/Graphics/SVG/1.1/DTD/svg11.dtd">
<svg version="1.1" id="Layer_1" xmlns="http://www.w3.org/2000/svg" xmlns:xlink="http://www.w3.org/1999/xlink" x="0px" y="0px"
	 width="900px" height="750px" viewBox="0 0 900 750" enable-background="new 0 0 900 750" xml:space="preserve">
<radialGradient id="SVGID_1_" cx="-4056.4299" cy="5107.3076" r="504.217" gradientTransform="matrix(0.4303 0 0 3.345867e-002 2191.8167 546.8837)" gradientUnits="userSpaceOnUse">
	<stop  offset="8.163265e-002" style="stop-color:#000000"/>
	<stop  offset="1" style="stop-color:#000000;stop-opacity:0"/>
</radialGradient>
<ellipse opacity="0.3" fill="url(#SVGID_1_)" cx="450" cy="717.9" rx="221.7" ry="19.3"/>
<g id="base">
	<g>
		<path fill-rule="evenodd" clip-rule="evenodd" fill="#181818" d="M449.9,715.6c-32.2,0-110.5,0-148.8-1.2v4.2
			c0,2.4,109.4,1.9,147.9,1.8c38.5,0,147.9,0.6,147.9-1.8v-4.2C559.2,716.1,482.1,715.6,449.9,715.6z"/>
	</g>
</g>
<g id="Shape">
	<g>
		<path fill-rule="evenodd" clip-rule="evenodd" fill="#E0E0E0" d="M449.9,715.3c-32.2,0-112.4,0-150.8-1.2v0.8c0,0,0,0,0,0v1.3
			c0,2.4,111.4,1.9,149.9,1.8c38.5,0,149.9,0.6,149.9-1.8V715c0,0,0,0,0,0v-0.8C561.2,715.8,482.1,715.3,449.9,715.3z"/>
	</g>
</g>
<g id="Shape_1_">
	<g>
		<path fill-rule="evenodd" clip-rule="evenodd" fill="#D2D3D5" d="M560.8,706.6c-6.5-2.8-13.1-78.7-13.1-95.3H349.8
			c0,16.6-6.6,92.5-13.1,95.3c-6.5,2.8-37.9,5.8-37.9,7.6c38.4,1.2,118.6,1.2,150.8,1.2c32.2,0,111.3,0.5,149-1.2
			C598.7,712.4,567.3,709.4,560.8,706.6z"/>
	</g>
</g>
<g id="Shape_copy">
	<g>
		<path fill-rule="evenodd" clip-rule="evenodd" fill="#A8A9AA" d="M547.7,611.3H349.8c0,16.6-6.6,92.5-13.1,95.3
			c-6.5,2.8-37.9,5.8-37.9,7.6c38.4,1.2,160.8,0.9,160.8,0.9l88.7-89.9C548.3,625.3,547.7,614.3,547.7,611.3z"/>
	</g>
</g>
<g id="Shape_2_">
	<g>
		<path fill-rule="evenodd" clip-rule="evenodd" fill="#D2D3D5" d="M11.5,543.9v56.2c0,14.1,11.5,25.6,25.6,25.6h825.7
			c14.1,0,25.6-11.5,25.6-25.6v-56.2H11.5z"/>
	</g>
</g>
<g id="body">
	<g>
		<path fill-rule="evenodd" clip-rule="evenodd" fill="#181818" d="M862.9,12.8H37.1c-14.1,0-25.6,11.5-25.6,25.6V544h877V38.4
			C888.5,24.2,877,12.8,862.9,12.8z"/>
	</g>
</g>
<g>
	<path fill="#AAAFB3" d="M454.1,613.8c-2.3,2.3-6,2.3-8.3,0L421.1,589c-2.3-2.3-2.3-6,0-8.3l24.8-24.8c2.3-2.3,6-2.3,8.3,0
		l24.8,24.8c2.3,2.3,2.3,6,0,8.3L454.1,613.8z"/>
	<path fill="#FFFFFF" d="M441,570.1c-2.9,0-5.2,1.1-6.9,3.3c-1.8,2.2-2.7,5-2.7,8.5v6c0,3.5,0.9,6.3,2.8,8.5
		c1.9,2.2,4.3,3.3,7.2,3.3c2.9,0,5.2-0.9,6.8-2.7c1.6-1.8,2.4-4.3,2.5-7.7l0-0.1h-5.4c-0.1,1.9-0.4,3.2-1,4.1
		c-0.6,0.9-1.5,1.3-2.8,1.3c-1.4,0-2.5-0.6-3.3-1.8c-0.8-1.2-1.2-2.8-1.2-4.8v-6c0-2,0.4-3.6,1.1-4.8c0.7-1.2,1.7-1.8,3-1.8
		c1.5,0,2.5,0.5,3.2,1.4c0.6,0.9,1,2.3,1,4.2h5.4l0-0.1c-0.2-3.4-1.1-6-2.7-7.8C446.4,571,444.1,570.1,441,570.1z"/>
	<path fill="#FFFFFF" d="M467.7,586.8c-0.7-1.2-1.7-2-3.1-2.4c1.1-0.6,1.9-1.4,2.5-2.5c0.5-1.1,0.8-2.3,0.8-3.8
		c0-2.7-0.8-4.7-2.5-6.1c-1.7-1.4-4-2-7-2h-11c3.1,1.6,5.1,4.9,5.1,8.6v12.6c0,2.3-0.8,4.5-2.3,6.3c-0.7,0.8-1.5,1.5-2.3,2.1h11.7
		c2.9,0,5.2-0.7,6.7-2.2c1.6-1.5,2.4-3.7,2.4-6.5C468.7,589.4,468.3,588,467.7,586.8z M455.7,575.4h2.6c1.3,0,2.3,0.3,2.9,0.9
		c0.6,0.6,1,1.5,1,2.8c0,1.1-0.3,2-0.9,2.5c-0.6,0.6-1.6,0.9-2.8,0.9h-2.8V575.4z M462.2,593.5c-0.6,0.6-1.5,0.9-2.7,0.9h-3.8V587
		h4.1c1.1,0,2,0.3,2.5,1c0.5,0.7,0.8,1.6,0.8,2.9C463.1,592.1,462.8,593,462.2,593.5z"/>
	<path fill="none" d="M447.4,570.1L447.4,570.1l11.2,0c-0.1,0-0.1,0-0.2,0H447.4z"/>
</g>
</svg>
